<?xml version="1.0" encoding="UTF-8"?>
<!DOCTYPE svg PUBLIC "-//W3C//DTD SVG 1.1//EN" "http://www.w3.org/Graphics/SVG/1.1/DTD/svg11.dtd">
<svg version="1.2" width="43.54mm" height="44.53mm" viewBox="37925 28623 4354 4453" preserveAspectRatio="xMidYMid" fill-rule="evenodd" stroke-width="28.222" stroke-linejoin="round" xmlns="http://www.w3.org/2000/svg" xmlns:ooo="http://xml.openoffice.org/svg/export" xmlns:xlink="http://www.w3.org/1999/xlink" xmlns:presentation="http://sun.com/xmlns/staroffice/presentation" xmlns:smil="http://www.w3.org/2001/SMIL20/" xmlns:anim="urn:oasis:names:tc:opendocument:xmlns:animation:1.0" xmlns:svg="urn:oasis:names:tc:opendocument:xmlns:svg-compatible:1.0" xml:space="preserve">
 <defs class="EmbeddedBulletChars">
  <g id="bullet-char-template-57356" transform="scale(0.00048828125,-0.00048828125)">
   <path d="M 580,1141 L 1163,571 580,0 -4,571 580,1141 Z"/>
  </g>
  <g id="bullet-char-template-57354" transform="scale(0.00048828125,-0.00048828125)">
   <path d="M 8,1128 L 1137,1128 1137,0 8,0 8,1128 Z"/>
  </g>
  <g id="bullet-char-template-10146" transform="scale(0.00048828125,-0.00048828125)">
   <path d="M 174,0 L 602,739 174,1481 1456,739 174,0 Z M 1358,739 L 309,1346 659,739 1358,739 Z"/>
  </g>
  <g id="bullet-char-template-10132" transform="scale(0.00048828125,-0.00048828125)">
   <path d="M 2015,739 L 1276,0 717,0 1260,543 174,543 174,936 1260,936 717,1481 1274,1481 2015,739 Z"/>
  </g>
  <g id="bullet-char-template-10007" transform="scale(0.00048828125,-0.00048828125)">
   <path d="M 0,-2 C -7,14 -16,27 -25,37 L 356,567 C 262,823 215,952 215,954 215,979 228,992 255,992 264,992 276,990 289,987 310,991 331,999 354,1012 L 381,999 492,748 772,1049 836,1024 860,1049 C 881,1039 901,1025 922,1006 886,937 835,863 770,784 769,783 710,716 594,584 L 774,223 C 774,196 753,168 711,139 L 727,119 C 717,90 699,76 672,76 641,76 570,178 457,381 L 164,-76 C 142,-110 111,-127 72,-127 30,-127 9,-110 8,-76 1,-67 -2,-52 -2,-32 -2,-23 -1,-13 0,-2 Z"/>
  </g>
  <g id="bullet-char-template-10004" transform="scale(0.00048828125,-0.00048828125)">
   <path d="M 285,-33 C 182,-33 111,30 74,156 52,228 41,333 41,471 41,549 55,616 82,672 116,743 169,778 240,778 293,778 328,747 346,684 L 369,508 C 377,444 397,411 428,410 L 1163,1116 C 1174,1127 1196,1133 1229,1133 1271,1133 1292,1118 1292,1087 L 1292,965 C 1292,929 1282,901 1262,881 L 442,47 C 390,-6 338,-33 285,-33 Z"/>
  </g>
  <g id="bullet-char-template-9679" transform="scale(0.00048828125,-0.00048828125)">
   <path d="M 813,0 C 632,0 489,54 383,161 276,268 223,411 223,592 223,773 276,916 383,1023 489,1130 632,1184 813,1184 992,1184 1136,1130 1245,1023 1353,916 1407,772 1407,592 1407,412 1353,268 1245,161 1136,54 992,0 813,0 Z"/>
  </g>
  <g id="bullet-char-template-8226" transform="scale(0.00048828125,-0.00048828125)">
   <path d="M 346,457 C 273,457 209,483 155,535 101,586 74,649 74,723 74,796 101,859 155,911 209,963 273,989 346,989 419,989 480,963 531,910 582,859 608,796 608,723 608,648 583,586 532,535 482,483 420,457 346,457 Z"/>
  </g>
  <g id="bullet-char-template-8211" transform="scale(0.00048828125,-0.00048828125)">
   <path d="M -4,459 L 1135,459 1135,606 -4,606 -4,459 Z"/>
  </g>
  <g id="bullet-char-template-61548" transform="scale(0.00048828125,-0.00048828125)">
   <path d="M 173,740 C 173,903 231,1043 346,1159 462,1274 601,1332 765,1332 928,1332 1067,1274 1183,1159 1299,1043 1357,903 1357,740 1357,577 1299,437 1183,322 1067,206 928,148 765,148 601,148 462,206 346,322 231,437 173,577 173,740 Z"/>
  </g>
 </defs>
 <g class="Page">
  <g class="Group">
   <g class="com.sun.star.drawing.ClosedBezierShape">
    <g id="id3">
     <rect class="BoundingBox" stroke="none" fill="none" x="37925" y="28623" width="4354" height="4453"/>
     <path fill="rgb(255,255,255)" stroke="none" d="M 38002,32799 C 38003,32920 38095,32999 38202,32999 38309,32999 40489,33001 41102,32999 41715,32997 42200,32505 42202,31899 42204,31293 42202,30766 42202,30199 42002,30199 41802,30199 41602,30199 41602,30066 41602,29932 41602,29799 41802,29799 42002,29799 42202,29799 42204,29583 42202,29293 42202,29097 42202,28901 42047,28699 41802,28699 41557,28699 39134,28698 38756,28699 38378,28700 38005,29000 38002,29451 37999,29902 38001,32678 38002,32799 Z"/>
     <path fill="none" stroke="rgb(1,34,105)" stroke-width="150" stroke-linejoin="round" d="M 38002,32799 C 38003,32920 38095,32999 38202,32999 38309,32999 40489,33001 41102,32999 41715,32997 42200,32505 42202,31899 42204,31293 42202,30766 42202,30199 L 41602,30199 41602,29799 42202,29799 C 42204,29583 42202,29293 42202,29097 42202,28901 42047,28699 41802,28699 41557,28699 39134,28698 38756,28699 38378,28700 38005,29000 38002,29451 37999,29902 38001,32678 38002,32799 Z"/>
    </g>
   </g>
   <g class="Group">
    <g class="Group">
     <g class="com.sun.star.drawing.PolyPolygonShape">
      <g id="id4">
       <rect class="BoundingBox" stroke="none" fill="none" x="39548" y="29799" width="1655" height="2801"/>
       <path fill="rgb(1,34,105)" stroke="none" d="M 40803,31599 L 40803,30500 40037,31599 40803,31599 Z M 40803,32599 L 40803,31999 39549,31999 39549,31601 40803,29799 41200,29800 41202,32599 40803,32599 Z"/>
      </g>
     </g>
     <g class="com.sun.star.drawing.ClosedBezierShape">
      <g id="id5">
       <rect class="BoundingBox" stroke="none" fill="none" x="38401" y="29799" width="2158" height="1601"/>
       <path fill="rgb(255,149,14)" stroke="none" d="M 38403,30799 L 39002,30799 39002,30399 38403,30399 C 38403,30399 38400,30449 38403,30199 38406,29949 38615,29799 38803,29799 38991,29799 39972,29799 40557,29799 40186,30332 39444,31399 39444,31399 L 38403,31399 38403,30799 Z"/>
      </g>
     </g>
     <g class="com.sun.star.drawing.CustomShape">
      <g id="id6">
       <rect class="BoundingBox" stroke="none" fill="none" x="38403" y="31599" width="947" height="401"/>
       <path fill="rgb(255,149,14)" stroke="none" d="M 38876,31999 L 38403,31999 38403,31599 39349,31599 39349,31999 38876,31999 Z"/>
      </g>
     </g>
     <g class="com.sun.star.drawing.ClosedBezierShape">
      <g id="id7">
       <rect class="BoundingBox" stroke="none" fill="none" x="38402" y="32199" width="2200" height="401"/>
       <path fill="rgb(255,149,14)" stroke="none" d="M 38601,32599 C 38601,32599 38532,32590 38502,32572 38472,32555 38446,32529 38429,32499 38411,32469 38402,32434 38402,32399 38402,32392 38403,32199 38403,32199 L 40601,32199 40601,32599 38601,32599 Z"/>
      </g>
     </g>
    </g>
   </g>
   <g class="Group">
    <g class="com.sun.star.drawing.ClosedBezierShape">
     <g id="id8">
      <rect class="BoundingBox" stroke="none" fill="none" x="38402" y="29102" width="287" height="349"/>
      <path fill="rgb(1,34,105)" stroke="none" d="M 38687,29213 C 38687,29235 38681,29254 38672,29273 38661,29290 38646,29304 38629,29313 38608,29322 38586,29328 38561,29328 L 38474,29328 38474,29450 38402,29450 38402,29103 38558,29103 C 38600,29103 38631,29112 38653,29132 38676,29151 38687,29177 38687,29213 Z M 38613,29214 C 38613,29177 38592,29158 38550,29158 L 38474,29158 38474,29271 38551,29271 C 38570,29271 38586,29267 38598,29257 38608,29247 38613,29233 38613,29214 Z"/>
     </g>
    </g>
    <g class="com.sun.star.drawing.ClosedBezierShape">
     <g id="id9">
      <rect class="BoundingBox" stroke="none" fill="none" x="38724" y="29098" width="352" height="358"/>
      <path fill="rgb(1,34,105)" stroke="none" d="M 39075,29275 C 39075,29312 39067,29343 39053,29372 39039,29398 39017,29419 38991,29433 38964,29449 38933,29455 38898,29455 38845,29455 38802,29439 38771,29408 38741,29375 38724,29331 38724,29275 38724,29220 38741,29177 38771,29146 38802,29115 38845,29099 38898,29099 38953,29099 38997,29115 39028,29146 39058,29177 39075,29220 39075,29275 Z M 39000,29275 C 39000,29239 38991,29209 38973,29188 38956,29167 38930,29155 38898,29155 38867,29155 38842,29167 38823,29188 38807,29209 38798,29237 38798,29275 38798,29313 38807,29343 38825,29365 38842,29388 38867,29398 38898,29398 38930,29398 38956,29388 38973,29367 38991,29344 39000,29314 39000,29275 Z"/>
     </g>
    </g>
    <g class="com.sun.star.drawing.ClosedBezierShape">
     <g id="id10">
      <rect class="BoundingBox" stroke="none" fill="none" x="39096" y="29103" width="476" height="349"/>
      <path fill="rgb(1,34,105)" stroke="none" d="M 39481,29451 L 39395,29451 39348,29250 C 39341,29227 39336,29202 39333,29176 39329,29198 39327,29214 39324,29225 39322,29236 39304,29312 39271,29451 L 39186,29451 39096,29104 39169,29104 39220,29327 39230,29382 C 39236,29359 39240,29337 39245,29317 39250,29296 39264,29225 39294,29104 L 39374,29104 39418,29288 C 39422,29303 39427,29332 39435,29382 L 39442,29353 39455,29296 39496,29104 39570,29104 39481,29451 Z"/>
     </g>
    </g>
    <g class="com.sun.star.drawing.ClosedBezierShape">
     <g id="id11">
      <rect class="BoundingBox" stroke="none" fill="none" x="39603" y="29103" width="285" height="349"/>
      <path fill="rgb(1,34,105)" stroke="none" d="M 39604,29451 C 39604,29334 39604,29219 39604,29104 39695,29104 39785,29104 39877,29104 39877,29122 39877,29142 39877,29159 39809,29159 39742,29159 39676,29159 39676,29189 39676,29218 39676,29246 39737,29246 39801,29246 39861,29246 39861,29265 39861,29284 39861,29303 39801,29303 39737,29303 39676,29303 39676,29332 39676,29364 39676,29394 39746,29394 39815,29394 39886,29394 39886,29413 39886,29430 39886,29451 39792,29451 39698,29451 39604,29451 Z"/>
     </g>
    </g>
    <g class="com.sun.star.drawing.ClosedBezierShape">
     <g id="id12">
      <rect class="BoundingBox" stroke="none" fill="none" x="39941" y="29102" width="322" height="349"/>
      <path fill="rgb(1,34,105)" stroke="none" d="M 40181,29450 L 40099,29318 40014,29318 40014,29450 39942,29450 39942,29103 40114,29103 C 40156,29103 40187,29112 40211,29128 40232,29147 40245,29173 40245,29206 40245,29231 40237,29252 40223,29269 40211,29287 40190,29299 40168,29305 L 40261,29450 40181,29450 Z M 40170,29209 C 40170,29176 40150,29158 40107,29158 L 40014,29158 40014,29261 40109,29261 C 40129,29261 40145,29257 40155,29248 40165,29239 40170,29226 40170,29209 Z"/>
     </g>
    </g>
    <g class="com.sun.star.drawing.ClosedBezierShape">
     <g id="id13">
      <rect class="BoundingBox" stroke="none" fill="none" x="40304" y="29103" width="284" height="349"/>
      <path fill="rgb(1,34,105)" stroke="none" d="M 40304,29451 C 40304,29334 40304,29219 40304,29104 40395,29104 40486,29104 40577,29104 40577,29122 40577,29142 40577,29159 40509,29159 40442,29159 40376,29159 40376,29189 40376,29218 40376,29246 40437,29246 40501,29246 40562,29246 40562,29265 40562,29284 40562,29303 40501,29303 40437,29303 40376,29303 40376,29332 40376,29364 40376,29394 40447,29394 40516,29394 40587,29394 40587,29413 40587,29430 40587,29451 40493,29451 40398,29451 40304,29451 Z"/>
     </g>
    </g>
    <g class="com.sun.star.drawing.ClosedBezierShape">
     <g id="id14">
      <rect class="BoundingBox" stroke="none" fill="none" x="40640" y="29103" width="311" height="349"/>
      <path fill="rgb(1,34,105)" stroke="none" d="M 40949,29274 C 40949,29310 40941,29341 40928,29368 40914,29394 40894,29416 40868,29429 40843,29443 40812,29451 40780,29451 L 40640,29451 40640,29104 40766,29104 C 40824,29104 40869,29118 40901,29148 40933,29177 40949,29219 40949,29274 Z M 40876,29274 C 40876,29237 40867,29208 40846,29189 40828,29169 40800,29159 40765,29159 L 40712,29159 40712,29394 40773,29394 C 40805,29394 40830,29383 40848,29361 40867,29341 40876,29312 40876,29274 Z"/>
     </g>
    </g>
    <g class="com.sun.star.drawing.ClosedBezierShape">
     <g id="id15">
      <rect class="BoundingBox" stroke="none" fill="none" x="41142" y="29103" width="308" height="349"/>
      <path fill="rgb(1,34,105)" stroke="none" d="M 41449,29351 C 41449,29382 41437,29408 41414,29424 41390,29442 41357,29451 41315,29451 L 41143,29451 41143,29104 41301,29104 C 41344,29104 41376,29112 41396,29125 41419,29141 41429,29162 41429,29190 41429,29210 41424,29227 41414,29241 41401,29254 41386,29263 41364,29268 41391,29271 41413,29280 41428,29295 41443,29309 41449,29327 41449,29351 Z M 41357,29201 C 41357,29185 41352,29174 41342,29168 41332,29160 41317,29158 41297,29158 L 41215,29158 41215,29244 41298,29244 C 41318,29244 41334,29240 41344,29233 41352,29225 41357,29215 41357,29201 Z M 41378,29346 C 41378,29313 41353,29297 41308,29297 L 41215,29297 41215,29396 41310,29396 C 41332,29396 41349,29391 41361,29383 41371,29375 41378,29362 41378,29346 Z"/>
     </g>
    </g>
    <g class="com.sun.star.drawing.ClosedBezierShape">
     <g id="id16">
      <rect class="BoundingBox" stroke="none" fill="none" x="41482" y="29103" width="321" height="349"/>
      <path fill="rgb(1,34,105)" stroke="none" d="M 41678,29308 C 41678,29356 41678,29404 41678,29451 41654,29451 41631,29451 41606,29451 41606,29404 41606,29356 41606,29308 41565,29240 41523,29172 41483,29104 41507,29104 41534,29104 41559,29104 41586,29152 41614,29202 41641,29250 41670,29202 41697,29152 41726,29104 41752,29104 41775,29104 41802,29104 41760,29172 41720,29240 41678,29308 Z"/>
     </g>
    </g>
   </g>
  </g>
 </g>
</svg>