<?xml version="1.0" encoding="UTF-8"?>
<!DOCTYPE svg PUBLIC "-//W3C//DTD SVG 1.1//EN" "http://www.w3.org/Graphics/SVG/1.1/DTD/svg11.dtd">
<svg version="1.2" width="102.02mm" height="64.02mm" viewBox="31899 43903 10202 6402" preserveAspectRatio="xMidYMid" fill-rule="evenodd" stroke-width="28.222" stroke-linejoin="round" xmlns="http://www.w3.org/2000/svg" xmlns:ooo="http://xml.openoffice.org/svg/export" xmlns:xlink="http://www.w3.org/1999/xlink" xmlns:presentation="http://sun.com/xmlns/staroffice/presentation" xmlns:smil="http://www.w3.org/2001/SMIL20/" xmlns:anim="urn:oasis:names:tc:opendocument:xmlns:animation:1.0" xmlns:svg="urn:oasis:names:tc:opendocument:xmlns:svg-compatible:1.0" xml:space="preserve">
 <defs class="EmbeddedBulletChars">
  <g id="bullet-char-template-57356" transform="scale(0.00048828125,-0.00048828125)">
   <path d="M 580,1141 L 1163,571 580,0 -4,571 580,1141 Z"/>
  </g>
  <g id="bullet-char-template-57354" transform="scale(0.00048828125,-0.00048828125)">
   <path d="M 8,1128 L 1137,1128 1137,0 8,0 8,1128 Z"/>
  </g>
  <g id="bullet-char-template-10146" transform="scale(0.00048828125,-0.00048828125)">
   <path d="M 174,0 L 602,739 174,1481 1456,739 174,0 Z M 1358,739 L 309,1346 659,739 1358,739 Z"/>
  </g>
  <g id="bullet-char-template-10132" transform="scale(0.00048828125,-0.00048828125)">
   <path d="M 2015,739 L 1276,0 717,0 1260,543 174,543 174,936 1260,936 717,1481 1274,1481 2015,739 Z"/>
  </g>
  <g id="bullet-char-template-10007" transform="scale(0.00048828125,-0.00048828125)">
   <path d="M 0,-2 C -7,14 -16,27 -25,37 L 356,567 C 262,823 215,952 215,954 215,979 228,992 255,992 264,992 276,990 289,987 310,991 331,999 354,1012 L 381,999 492,748 772,1049 836,1024 860,1049 C 881,1039 901,1025 922,1006 886,937 835,863 770,784 769,783 710,716 594,584 L 774,223 C 774,196 753,168 711,139 L 727,119 C 717,90 699,76 672,76 641,76 570,178 457,381 L 164,-76 C 142,-110 111,-127 72,-127 30,-127 9,-110 8,-76 1,-67 -2,-52 -2,-32 -2,-23 -1,-13 0,-2 Z"/>
  </g>
  <g id="bullet-char-template-10004" transform="scale(0.00048828125,-0.00048828125)">
   <path d="M 285,-33 C 182,-33 111,30 74,156 52,228 41,333 41,471 41,549 55,616 82,672 116,743 169,778 240,778 293,778 328,747 346,684 L 369,508 C 377,444 397,411 428,410 L 1163,1116 C 1174,1127 1196,1133 1229,1133 1271,1133 1292,1118 1292,1087 L 1292,965 C 1292,929 1282,901 1262,881 L 442,47 C 390,-6 338,-33 285,-33 Z"/>
  </g>
  <g id="bullet-char-template-9679" transform="scale(0.00048828125,-0.00048828125)">
   <path d="M 813,0 C 632,0 489,54 383,161 276,268 223,411 223,592 223,773 276,916 383,1023 489,1130 632,1184 813,1184 992,1184 1136,1130 1245,1023 1353,916 1407,772 1407,592 1407,412 1353,268 1245,161 1136,54 992,0 813,0 Z"/>
  </g>
  <g id="bullet-char-template-8226" transform="scale(0.00048828125,-0.00048828125)">
   <path d="M 346,457 C 273,457 209,483 155,535 101,586 74,649 74,723 74,796 101,859 155,911 209,963 273,989 346,989 419,989 480,963 531,910 582,859 608,796 608,723 608,648 583,586 532,535 482,483 420,457 346,457 Z"/>
  </g>
  <g id="bullet-char-template-8211" transform="scale(0.00048828125,-0.00048828125)">
   <path d="M -4,459 L 1135,459 1135,606 -4,606 -4,459 Z"/>
  </g>
  <g id="bullet-char-template-61548" transform="scale(0.00048828125,-0.00048828125)">
   <path d="M 173,740 C 173,903 231,1043 346,1159 462,1274 601,1332 765,1332 928,1332 1067,1274 1183,1159 1299,1043 1357,903 1357,740 1357,577 1299,437 1183,322 1067,206 928,148 765,148 601,148 462,206 346,322 231,437 173,577 173,740 Z"/>
  </g>
 </defs>
 <g class="Page">
  <g class="Group">
   <g class="com.sun.star.drawing.ClosedBezierShape">
    <g id="id3">
     <rect class="BoundingBox" stroke="none" fill="none" x="31899" y="43903" width="10202" height="6402"/>
     <path fill="rgb(255,255,255)" stroke="none" d="M 32000,49599 C 32001,49922 32261,50204 32604,50203 32947,50202 37535,50200 40801,50203 41507,50203 42000,49628 42000,49003 42000,48378 42000,47003 42000,46003 41600,46003 40800,46003 40800,46003 L 40800,45234 42000,45234 C 42000,45234 42000,44910 42000,44607 42000,44304 41764,44004 41396,44003 41028,44002 33907,44004 33200,44003 32493,44002 32000,44592 32000,45203 31999,46416 31999,49276 32000,49599 Z"/>
     <path fill="none" stroke="rgb(1,34,105)" stroke-width="200" stroke-linejoin="round" d="M 32000,49599 C 32001,49922 32261,50204 32604,50203 32947,50202 37535,50200 40801,50203 41507,50203 42000,49628 42000,49003 L 42000,46003 40800,46003 40800,45234 42000,45234 42000,44607 C 42000,44304 41764,44004 41396,44003 41028,44002 33907,44004 33200,44003 32493,44002 32000,44592 32000,45203 31999,46416 31999,49276 32000,49599 Z"/>
    </g>
   </g>
   <g class="Group">
    <g class="com.sun.star.drawing.PolyPolygonShape">
     <g id="id4">
      <rect class="BoundingBox" stroke="none" fill="none" x="33948" y="46595" width="1655" height="2801"/>
      <path fill="rgb(1,34,105)" stroke="none" d="M 35202,48395 L 35202,47295 34436,48395 35202,48395 Z M 35202,49395 L 35202,48795 33948,48795 33948,48397 35202,46595 35597,46595 35602,49395 35202,49395 Z"/>
     </g>
    </g>
    <g class="com.sun.star.drawing.ClosedBezierShape">
     <g id="id5">
      <rect class="BoundingBox" stroke="none" fill="none" x="32801" y="46595" width="2157" height="1601"/>
      <path fill="rgb(255,149,14)" stroke="none" d="M 32802,47595 L 33401,47595 33401,47195 32802,47195 C 32802,47195 32799,47245 32802,46995 32805,46745 33014,46595 33202,46595 33390,46595 34371,46595 34956,46595 34585,47128 33843,48195 33843,48195 L 32802,48195 32802,47595 Z"/>
     </g>
    </g>
    <g class="com.sun.star.drawing.ClosedBezierShape">
     <g id="id6">
      <rect class="BoundingBox" stroke="none" fill="none" x="39601" y="47195" width="1202" height="1602"/>
      <path fill="rgb(1,34,105)" stroke="none" d="M 40103,48395 L 40802,48395 40801,48795 39899,48796 C 39847,48796 39796,48782 39750,48756 39705,48730 39667,48692 39641,48647 39615,48601 39601,48550 39601,48498 L 39601,47493 C 39601,47441 39615,47390 39641,47344 39667,47299 39705,47261 39750,47235 39796,47209 39847,47195 39899,47195 L 40801,47195 40802,47595 40103,47594 C 40085,47594 40068,47599 40052,47608 40036,47617 40024,47629 40015,47645 40006,47661 40001,47678 40001,47696 L 40001,48293 C 40001,48311 40006,48328 40015,48344 40024,48360 40036,48372 40052,48381 40068,48390 40085,48395 40103,48395 Z"/>
     </g>
    </g>
    <g class="com.sun.star.drawing.CustomShape">
     <g id="id7">
      <rect class="BoundingBox" stroke="none" fill="none" x="32802" y="48395" width="947" height="401"/>
      <path fill="rgb(255,149,14)" stroke="none" d="M 33275,48795 L 32802,48795 32802,48395 33748,48395 33748,48795 33275,48795 Z"/>
     </g>
    </g>
    <g class="com.sun.star.drawing.CustomShape">
     <g id="id8">
      <rect class="BoundingBox" stroke="none" fill="none" x="35801" y="46595" width="800" height="401"/>
      <path fill="rgb(255,149,14)" stroke="none" d="M 36201,46995 L 35801,46995 35801,46595 36600,46595 36600,46995 36201,46995 Z"/>
     </g>
    </g>
    <g class="com.sun.star.drawing.CustomShape">
     <g id="id9">
      <rect class="BoundingBox" stroke="none" fill="none" x="37401" y="46595" width="401" height="401"/>
      <path fill="rgb(1,34,105)" stroke="none" d="M 37601,46995 L 37401,46995 37401,46595 37801,46595 37801,46995 37601,46995 Z"/>
     </g>
    </g>
    <g class="com.sun.star.drawing.ClosedBezierShape">
     <g id="id10">
      <rect class="BoundingBox" stroke="none" fill="none" x="37401" y="47195" width="401" height="1602"/>
      <path fill="rgb(1,34,105)" stroke="none" d="M 37501,47222 C 37532,47204 37566,47195 37601,47195 L 37801,47195 37801,48795 C 37801,48795 37608,48796 37602,48796 37566,48796 37532,48787 37501,48769 37471,48752 37445,48726 37428,48696 37410,48665 37401,48631 37401,48596 L 37401,47396 C 37401,47360 37410,47326 37428,47295 37445,47265 37471,47239 37501,47222 Z"/>
     </g>
    </g>
    <g class="com.sun.star.drawing.ClosedBezierShape">
     <g id="id11">
      <rect class="BoundingBox" stroke="none" fill="none" x="38000" y="47194" width="1402" height="1603"/>
      <path fill="rgb(1,34,105)" stroke="none" d="M 39401,48795 C 39401,48795 39310,48796 39302,48796 39249,48796 39197,48782 39151,48756 39106,48729 39068,48691 39041,48646 39015,48600 39001,48548 39001,48496 39001,48495 39001,48795 39001,48795 L 38305,48795 C 38252,48795 38199,48781 38153,48754 38107,48728 38068,48689 38042,48643 38015,48597 38001,48544 38001,48491 L 38001,47498 C 38001,47445 38015,47392 38042,47346 38068,47300 38107,47261 38153,47235 38199,47208 38252,47194 38305,47194 L 39401,47195 39401,48795 Z M 38504,48395 L 39000,48395 39000,47595 38504,47594 C 38486,47594 38468,47599 38453,47608 38437,47617 38424,47630 38415,47646 38406,47661 38401,47679 38401,47697 L 38401,48292 C 38401,48310 38406,48328 38415,48344 38424,48359 38437,48372 38453,48381 38468,48390 38486,48395 38504,48395 Z"/>
     </g>
    </g>
    <g class="com.sun.star.drawing.ClosedBezierShape">
     <g id="id12">
      <rect class="BoundingBox" stroke="none" fill="none" x="32801" y="48995" width="2201" height="401"/>
      <path fill="rgb(255,149,14)" stroke="none" d="M 33000,49395 C 33000,49395 32931,49386 32901,49368 32871,49351 32845,49325 32828,49295 32810,49265 32801,49230 32801,49195 32801,49188 32802,48995 32802,48995 L 35001,48995 35001,49395 33000,49395 Z"/>
     </g>
    </g>
    <g class="com.sun.star.drawing.ClosedBezierShape">
     <g id="id13">
      <rect class="BoundingBox" stroke="none" fill="none" x="35801" y="48995" width="5001" height="401"/>
      <path fill="rgb(255,149,14)" stroke="none" d="M 35801,49395 L 35801,48995 40801,48995 40801,49195 C 40801,49230 40792,49265 40774,49295 40757,49325 40731,49351 40701,49368 40671,49386 40636,49395 40601,49395 L 35801,49395 Z"/>
     </g>
    </g>
    <g class="com.sun.star.drawing.ClosedBezierShape">
     <g id="id14">
      <rect class="BoundingBox" stroke="none" fill="none" x="38001" y="46594" width="2801" height="403"/>
      <path fill="rgb(255,149,14)" stroke="none" d="M 38001,46995 L 38001,46595 C 38001,46595 40594,46594 40601,46594 40636,46594 40671,46603 40701,46621 40731,46638 40757,46664 40774,46694 40792,46724 40801,46759 40801,46794 L 40801,46995 38001,46995 Z"/>
     </g>
    </g>
    <g class="com.sun.star.drawing.ClosedBezierShape">
     <g id="id15">
      <rect class="BoundingBox" stroke="none" fill="none" x="35801" y="46595" width="1401" height="2202"/>
      <path fill="rgb(1,34,105)" stroke="none" d="M 37201,48795 C 37201,48795 37110,48796 37102,48796 37049,48796 36997,48782 36951,48756 36906,48729 36868,48691 36841,48646 36815,48600 36801,48548 36801,48496 36801,48495 36801,48795 36801,48795 L 36101,48795 C 36048,48795 35997,48781 35951,48755 35905,48728 35868,48691 35841,48645 35815,48599 35801,48548 35801,48495 L 35801,47494 C 35801,47441 35815,47390 35841,47344 35868,47298 35905,47261 35951,47234 35997,47208 36048,47194 36101,47194 L 36801,47195 36801,46595 37201,46595 37201,48795 Z M 36301,48395 L 36800,48395 36800,47595 36301,47594 C 36283,47594 36266,47599 36251,47608 36235,47616 36222,47629 36214,47645 36205,47660 36200,47677 36200,47695 L 36200,48294 C 36200,48312 36205,48329 36214,48345 36222,48360 36235,48373 36251,48381 36266,48390 36283,48395 36301,48395 Z"/>
     </g>
    </g>
   </g>
   <g class="Group">
    <g class="com.sun.star.drawing.PolyPolygonShape">
     <g id="id16">
      <rect class="BoundingBox" stroke="none" fill="none" x="32801" y="45235" width="638" height="777"/>
      <path fill="rgb(1,34,105)" stroke="none" d="M 33438,45481 L 33438,45500 33436,45518 33433,45535 33430,45552 33425,45569 33419,45585 33412,45600 33404,45615 33395,45629 33385,45643 33374,45655 33363,45667 33350,45678 33336,45688 33322,45698 33306,45706 33290,45714 33273,45720 33256,45726 33237,45730 33218,45734 33198,45736 33177,45738 33156,45738 32963,45738 32963,46011 32801,46011 32801,45236 33149,45236 33183,45237 33215,45240 33244,45245 33272,45252 33298,45261 33310,45266 33322,45272 33333,45278 33343,45285 33353,45292 33363,45300 33372,45308 33381,45317 33389,45326 33396,45335 33403,45345 33409,45356 33414,45366 33419,45377 33424,45389 33428,45401 33431,45413 33433,45426 33437,45453 33438,45481 Z M 33275,45484 L 33274,45469 33273,45455 33270,45443 33266,45431 33261,45420 33255,45410 33247,45401 33239,45392 33229,45385 33219,45379 33207,45374 33194,45370 33180,45366 33165,45364 33148,45362 33131,45362 32963,45362 32963,45613 33135,45613 33152,45613 33167,45611 33181,45609 33195,45605 33207,45600 33213,45598 33219,45595 33224,45591 33229,45588 33234,45584 33239,45580 33243,45576 33247,45571 33251,45567 33254,45562 33258,45556 33261,45551 33263,45545 33266,45539 33268,45533 33270,45527 33273,45514 33274,45499 33275,45484 Z"/>
     </g>
    </g>
    <g class="com.sun.star.drawing.PolyPolygonShape">
     <g id="id17">
      <rect class="BoundingBox" stroke="none" fill="none" x="33520" y="45225" width="783" height="798"/>
      <path fill="rgb(1,34,105)" stroke="none" d="M 34302,45620 L 34302,45650 34299,45679 34296,45707 34290,45734 34284,45760 34275,45785 34266,45810 34254,45833 34242,45855 34228,45876 34213,45896 34196,45914 34179,45931 34160,45947 34139,45961 34118,45974 34095,45985 34071,45995 34047,46003 34021,46010 33995,46015 33967,46019 33939,46022 33910,46022 33865,46021 33823,46016 33784,46007 33765,46002 33747,45995 33729,45988 33712,45980 33696,45972 33680,45962 33665,45951 33651,45940 33637,45928 33624,45915 33611,45901 33599,45887 33588,45872 33578,45856 33569,45840 33560,45823 33553,45806 33546,45787 33535,45749 33526,45709 33522,45666 33520,45620 33522,45575 33526,45532 33535,45492 33546,45454 33553,45437 33560,45419 33569,45403 33578,45387 33588,45372 33599,45357 33611,45343 33623,45329 33637,45317 33650,45305 33665,45294 33680,45284 33696,45274 33712,45266 33729,45258 33747,45251 33784,45240 33824,45232 33866,45227 33911,45225 33956,45227 33998,45232 34038,45240 34075,45251 34093,45258 34110,45266 34126,45275 34142,45284 34157,45295 34171,45306 34185,45318 34199,45331 34211,45344 34223,45358 34234,45373 34244,45388 34253,45404 34262,45421 34269,45438 34276,45456 34288,45493 34296,45533 34301,45576 34302,45620 Z M 34137,45620 L 34136,45590 34133,45561 34128,45534 34122,45509 34114,45485 34103,45463 34098,45452 34091,45442 34085,45433 34077,45424 34070,45415 34062,45407 34053,45400 34045,45393 34036,45386 34026,45380 34016,45375 34006,45370 33996,45366 33985,45363 33973,45360 33961,45357 33937,45354 33911,45353 33884,45354 33860,45357 33848,45359 33836,45363 33825,45366 33814,45370 33804,45375 33794,45380 33785,45386 33775,45392 33767,45399 33758,45407 33750,45415 33743,45423 33735,45432 33729,45442 33722,45452 33717,45462 33706,45484 33698,45508 33692,45533 33687,45561 33684,45590 33683,45620 33684,45651 33687,45681 33692,45708 33698,45734 33707,45759 33717,45781 33723,45792 33730,45802 33737,45812 33744,45821 33752,45830 33760,45839 33768,45846 33777,45853 33786,45860 33796,45866 33806,45872 33816,45876 33826,45881 33837,45884 33848,45888 33860,45890 33872,45892 33884,45894 33910,45895 33936,45894 33961,45890 33973,45888 33984,45885 33995,45881 34006,45877 34016,45872 34026,45867 34036,45861 34045,45855 34054,45848 34062,45840 34070,45832 34078,45823 34085,45814 34092,45804 34098,45794 34104,45784 34114,45761 34122,45737 34129,45711 34133,45682 34136,45652 34137,45620 Z"/>
     </g>
    </g>
    <g class="com.sun.star.drawing.PolyPolygonShape">
     <g id="id18">
      <rect class="BoundingBox" stroke="none" fill="none" x="34352" y="45235" width="1061" height="777"/>
      <path fill="rgb(1,34,105)" stroke="none" d="M 35212,46011 L 35020,46011 34915,45563 34906,45523 34897,45482 34889,45440 34883,45397 34861,45507 34744,46011 34552,46011 34352,45236 34516,45236 34629,45737 34654,45858 34684,45712 34793,45236 34975,45236 35073,45649 35079,45679 35088,45724 35112,45858 35126,45794 35155,45667 35248,45236 35412,45236 35212,46011 Z"/>
     </g>
    </g>
    <g class="com.sun.star.drawing.PolyPolygonShape">
     <g id="id19">
      <rect class="BoundingBox" stroke="none" fill="none" x="35488" y="45236" width="633" height="776"/>
      <path fill="rgb(1,34,105)" stroke="none" d="M 35488,46011 L 35488,45236 36097,45236 36097,45361 35650,45361 35650,45556 36064,45556 36064,45682 35650,45682 35650,45886 36120,45886 36120,46011 35488,46011 Z"/>
     </g>
    </g>
    <g class="com.sun.star.drawing.PolyPolygonShape">
     <g id="id20">
      <rect class="BoundingBox" stroke="none" fill="none" x="36240" y="45235" width="717" height="777"/>
      <path fill="rgb(1,34,105)" stroke="none" d="M 36773,46011 L 36593,45717 36403,45717 36403,46011 36241,46011 36241,45236 36628,45236 36662,45237 36693,45240 36723,45244 36751,45251 36776,45259 36800,45270 36811,45275 36822,45282 36832,45288 36842,45296 36851,45303 36860,45311 36867,45320 36875,45329 36882,45338 36888,45348 36893,45358 36898,45368 36903,45379 36907,45391 36910,45402 36912,45414 36916,45440 36917,45467 36916,45487 36914,45506 36911,45525 36906,45543 36899,45560 36891,45577 36882,45592 36871,45608 36859,45622 36846,45635 36832,45646 36817,45657 36801,45666 36784,45673 36765,45680 36746,45685 36956,46011 36773,46011 Z M 36754,45474 L 36753,45460 36752,45447 36749,45436 36745,45425 36740,45415 36734,45406 36727,45397 36718,45390 36709,45383 36698,45378 36686,45373 36674,45369 36660,45366 36644,45364 36628,45362 36611,45362 36403,45362 36403,45591 36615,45591 36632,45590 36647,45589 36662,45586 36675,45583 36688,45579 36694,45576 36699,45573 36704,45570 36709,45567 36714,45564 36719,45560 36723,45556 36727,45552 36731,45548 36734,45543 36737,45538 36740,45533 36743,45528 36745,45523 36747,45517 36749,45512 36750,45506 36752,45500 36753,45487 36754,45474 Z"/>
     </g>
    </g>
    <g class="com.sun.star.drawing.PolyPolygonShape">
     <g id="id21">
      <rect class="BoundingBox" stroke="none" fill="none" x="37053" y="45236" width="633" height="776"/>
      <path fill="rgb(1,34,105)" stroke="none" d="M 37053,46011 L 37053,45236 37662,45236 37662,45361 37215,45361 37215,45556 37629,45556 37629,45682 37215,45682 37215,45886 37685,45886 37685,46011 37053,46011 Z"/>
     </g>
    </g>
    <g class="com.sun.star.drawing.PolyPolygonShape">
     <g id="id22">
      <rect class="BoundingBox" stroke="none" fill="none" x="37805" y="45236" width="691" height="776"/>
      <path fill="rgb(1,34,105)" stroke="none" d="M 38495,45618 L 38495,45647 38493,45676 38489,45703 38484,45730 38477,45756 38469,45781 38460,45804 38448,45827 38436,45849 38423,45869 38408,45888 38392,45906 38374,45922 38356,45938 38336,45951 38315,45964 38294,45975 38271,45985 38247,45993 38223,45999 38198,46005 38172,46008 38146,46010 38118,46011 37805,46011 37805,45236 38085,45236 38133,45238 38178,45242 38220,45250 38259,45261 38295,45275 38313,45283 38329,45292 38345,45301 38360,45312 38375,45323 38388,45335 38401,45347 38413,45361 38425,45375 38435,45389 38445,45405 38454,45421 38462,45438 38469,45455 38475,45473 38480,45492 38489,45531 38494,45573 38495,45618 Z M 38332,45618 L 38331,45588 38328,45559 38323,45532 38316,45508 38312,45496 38307,45485 38302,45474 38296,45464 38289,45454 38283,45445 38275,45436 38267,45427 38259,45419 38250,45412 38241,45405 38231,45398 38221,45392 38211,45387 38200,45382 38189,45378 38165,45371 38139,45366 38111,45362 38082,45361 37967,45361 37967,45886 38105,45886 38130,45885 38154,45881 38166,45879 38177,45876 38188,45872 38198,45868 38209,45863 38218,45858 38228,45852 38237,45845 38246,45838 38255,45831 38263,45822 38271,45814 38278,45805 38285,45795 38292,45785 38298,45774 38308,45752 38317,45729 38324,45703 38328,45677 38331,45648 38332,45618 Z"/>
     </g>
    </g>
    <g class="com.sun.star.drawing.PolyPolygonShape">
     <g id="id23">
      <rect class="BoundingBox" stroke="none" fill="none" x="38931" y="45235" width="688" height="777"/>
      <path fill="rgb(1,34,105)" stroke="none" d="M 39618,45790 L 39616,45816 39615,45828 39613,45840 39610,45851 39607,45862 39602,45873 39598,45884 39593,45894 39587,45903 39580,45912 39573,45921 39565,45930 39557,45938 39548,45946 39538,45953 39528,45960 39518,45967 39495,45979 39470,45988 39444,45997 39415,46003 39385,46007 39353,46010 39319,46011 38931,46011 38931,45236 39286,45236 39320,45237 39352,45239 39382,45243 39410,45248 39436,45255 39460,45264 39481,45274 39491,45279 39500,45285 39509,45292 39517,45298 39525,45305 39532,45313 39539,45321 39545,45329 39550,45337 39555,45346 39559,45355 39563,45365 39566,45375 39569,45385 39571,45396 39572,45407 39573,45431 39573,45447 39571,45462 39568,45477 39564,45492 39559,45505 39553,45518 39545,45530 39537,45542 39532,45548 39527,45553 39516,45563 39504,45572 39490,45580 39476,45587 39460,45594 39443,45599 39425,45603 39448,45607 39469,45611 39489,45617 39508,45624 39525,45632 39541,45641 39555,45651 39562,45657 39568,45663 39574,45669 39580,45675 39585,45682 39590,45689 39594,45696 39598,45703 39602,45711 39605,45718 39608,45726 39611,45735 39615,45752 39617,45771 39618,45790 Z M 39410,45453 L 39409,45440 39408,45428 39407,45423 39405,45418 39403,45413 39402,45408 39399,45403 39397,45399 39394,45395 39391,45391 39388,45388 39384,45384 39381,45381 39377,45378 39372,45376 39368,45373 39358,45369 39347,45365 39335,45362 39322,45360 39309,45358 39294,45357 39278,45356 39093,45356 39093,45548 39279,45548 39296,45548 39311,45547 39325,45545 39338,45542 39350,45539 39361,45535 39366,45533 39370,45530 39375,45527 39379,45524 39383,45521 39386,45518 39389,45515 39392,45511 39395,45507 39398,45503 39400,45499 39402,45495 39404,45490 39405,45485 39407,45480 39408,45475 39409,45464 39410,45453 Z M 39455,45777 L 39454,45764 39452,45752 39449,45740 39445,45730 39440,45720 39433,45711 39425,45703 39416,45695 39406,45689 39394,45684 39381,45679 39367,45675 39352,45672 39335,45670 39299,45668 39093,45668 39093,45891 39305,45891 39324,45890 39341,45889 39357,45887 39372,45883 39386,45879 39398,45875 39404,45872 39409,45869 39414,45866 39419,45862 39423,45859 39427,45855 39431,45851 39435,45846 39438,45842 39441,45837 39444,45832 39446,45827 39448,45821 39450,45816 39451,45810 39453,45804 39454,45791 39455,45777 Z"/>
     </g>
    </g>
    <g class="com.sun.star.drawing.PolyPolygonShape">
     <g id="id24">
      <rect class="BoundingBox" stroke="none" fill="none" x="39688" y="45236" width="715" height="776"/>
      <path fill="rgb(1,34,105)" stroke="none" d="M 40126,45693 L 40126,46011 39964,46011 39964,45693 39688,45236 39858,45236 40044,45564 40232,45236 40402,45236 40126,45693 Z"/>
     </g>
    </g>
   </g>
  </g>
 </g>
</svg>