<?xml version="1.0" encoding="UTF-8"?>
<!DOCTYPE svg PUBLIC "-//W3C//DTD SVG 1.1//EN" "http://www.w3.org/Graphics/SVG/1.1/DTD/svg11.dtd">
<svg version="1.2" width="42.04mm" height="43.03mm" viewBox="31997 28698 4204 4303" preserveAspectRatio="xMidYMid" fill-rule="evenodd" stroke-width="28.222" stroke-linejoin="round" xmlns="http://www.w3.org/2000/svg" xmlns:ooo="http://xml.openoffice.org/svg/export" xmlns:xlink="http://www.w3.org/1999/xlink" xmlns:presentation="http://sun.com/xmlns/staroffice/presentation" xmlns:smil="http://www.w3.org/2001/SMIL20/" xmlns:anim="urn:oasis:names:tc:opendocument:xmlns:animation:1.0" xmlns:svg="urn:oasis:names:tc:opendocument:xmlns:svg-compatible:1.0" xml:space="preserve">
 <defs class="EmbeddedBulletChars">
  <g id="bullet-char-template-57356" transform="scale(0.00048828125,-0.00048828125)">
   <path d="M 580,1141 L 1163,571 580,0 -4,571 580,1141 Z"/>
  </g>
  <g id="bullet-char-template-57354" transform="scale(0.00048828125,-0.00048828125)">
   <path d="M 8,1128 L 1137,1128 1137,0 8,0 8,1128 Z"/>
  </g>
  <g id="bullet-char-template-10146" transform="scale(0.00048828125,-0.00048828125)">
   <path d="M 174,0 L 602,739 174,1481 1456,739 174,0 Z M 1358,739 L 309,1346 659,739 1358,739 Z"/>
  </g>
  <g id="bullet-char-template-10132" transform="scale(0.00048828125,-0.00048828125)">
   <path d="M 2015,739 L 1276,0 717,0 1260,543 174,543 174,936 1260,936 717,1481 1274,1481 2015,739 Z"/>
  </g>
  <g id="bullet-char-template-10007" transform="scale(0.00048828125,-0.00048828125)">
   <path d="M 0,-2 C -7,14 -16,27 -25,37 L 356,567 C 262,823 215,952 215,954 215,979 228,992 255,992 264,992 276,990 289,987 310,991 331,999 354,1012 L 381,999 492,748 772,1049 836,1024 860,1049 C 881,1039 901,1025 922,1006 886,937 835,863 770,784 769,783 710,716 594,584 L 774,223 C 774,196 753,168 711,139 L 727,119 C 717,90 699,76 672,76 641,76 570,178 457,381 L 164,-76 C 142,-110 111,-127 72,-127 30,-127 9,-110 8,-76 1,-67 -2,-52 -2,-32 -2,-23 -1,-13 0,-2 Z"/>
  </g>
  <g id="bullet-char-template-10004" transform="scale(0.00048828125,-0.00048828125)">
   <path d="M 285,-33 C 182,-33 111,30 74,156 52,228 41,333 41,471 41,549 55,616 82,672 116,743 169,778 240,778 293,778 328,747 346,684 L 369,508 C 377,444 397,411 428,410 L 1163,1116 C 1174,1127 1196,1133 1229,1133 1271,1133 1292,1118 1292,1087 L 1292,965 C 1292,929 1282,901 1262,881 L 442,47 C 390,-6 338,-33 285,-33 Z"/>
  </g>
  <g id="bullet-char-template-9679" transform="scale(0.00048828125,-0.00048828125)">
   <path d="M 813,0 C 632,0 489,54 383,161 276,268 223,411 223,592 223,773 276,916 383,1023 489,1130 632,1184 813,1184 992,1184 1136,1130 1245,1023 1353,916 1407,772 1407,592 1407,412 1353,268 1245,161 1136,54 992,0 813,0 Z"/>
  </g>
  <g id="bullet-char-template-8226" transform="scale(0.00048828125,-0.00048828125)">
   <path d="M 346,457 C 273,457 209,483 155,535 101,586 74,649 74,723 74,796 101,859 155,911 209,963 273,989 346,989 419,989 480,963 531,910 582,859 608,796 608,723 608,648 583,586 532,535 482,483 420,457 346,457 Z"/>
  </g>
  <g id="bullet-char-template-8211" transform="scale(0.00048828125,-0.00048828125)">
   <path d="M -4,459 L 1135,459 1135,606 -4,606 -4,459 Z"/>
  </g>
  <g id="bullet-char-template-61548" transform="scale(0.00048828125,-0.00048828125)">
   <path d="M 173,740 C 173,903 231,1043 346,1159 462,1274 601,1332 765,1332 928,1332 1067,1274 1183,1159 1299,1043 1357,903 1357,740 1357,577 1299,437 1183,322 1067,206 928,148 765,148 601,148 462,206 346,322 231,437 173,577 173,740 Z"/>
  </g>
 </defs>
 <g class="Page">
  <g class="Group">
   <g class="com.sun.star.drawing.ClosedBezierShape">
    <g id="id3">
     <rect class="BoundingBox" stroke="none" fill="none" x="31997" y="28698" width="4204" height="4303"/>
     <path fill="rgb(1,34,105)" stroke="none" d="M 31999,32799 C 32000,32920 32092,32999 32199,32999 32306,32999 34486,33001 35099,32999 35712,32997 36197,32505 36199,31899 36201,31293 36199,30766 36199,30199 35999,30199 35799,30199 35599,30199 35599,30066 35599,29932 35599,29799 35799,29799 35999,29799 36199,29799 36201,29583 36199,29293 36199,29097 36199,28901 36044,28699 35799,28699 35554,28699 33131,28698 32753,28699 32375,28700 32002,29000 31999,29451 31996,29902 31998,32678 31999,32799 Z"/>
    </g>
   </g>
   <g class="Group">
    <g class="Group">
     <g class="com.sun.star.drawing.PolyPolygonShape">
      <g id="id4">
       <rect class="BoundingBox" stroke="none" fill="none" x="33545" y="29799" width="1655" height="2801"/>
       <path fill="rgb(255,255,255)" stroke="none" d="M 34800,31599 L 34800,30500 34034,31599 34800,31599 Z M 34800,32599 L 34800,31999 33546,31999 33546,31601 34800,29799 35194,29799 35199,32599 34800,32599 Z"/>
      </g>
     </g>
     <g class="com.sun.star.drawing.ClosedBezierShape">
      <g id="id5">
       <rect class="BoundingBox" stroke="none" fill="none" x="32398" y="29799" width="2158" height="1601"/>
       <path fill="rgb(255,149,14)" stroke="none" d="M 32400,30799 L 32999,30799 32999,30399 32400,30399 C 32400,30399 32397,30449 32400,30199 32403,29949 32612,29799 32800,29799 32988,29799 33969,29799 34554,29799 34183,30332 33441,31399 33441,31399 L 32400,31399 32400,30799 Z"/>
      </g>
     </g>
     <g class="com.sun.star.drawing.CustomShape">
      <g id="id6">
       <rect class="BoundingBox" stroke="none" fill="none" x="32400" y="31599" width="947" height="401"/>
       <path fill="rgb(255,149,14)" stroke="none" d="M 32873,31999 L 32400,31999 32400,31599 33346,31599 33346,31999 32873,31999 Z"/>
      </g>
     </g>
     <g class="com.sun.star.drawing.ClosedBezierShape">
      <g id="id7">
       <rect class="BoundingBox" stroke="none" fill="none" x="32399" y="32199" width="2200" height="401"/>
       <path fill="rgb(255,149,14)" stroke="none" d="M 32598,32599 C 32598,32599 32529,32590 32499,32572 32469,32555 32443,32529 32426,32499 32408,32469 32399,32434 32399,32399 32399,32392 32400,32199 32400,32199 L 34598,32199 34598,32599 32598,32599 Z"/>
      </g>
     </g>
    </g>
   </g>
   <g class="Group">
    <g class="com.sun.star.drawing.ClosedBezierShape">
     <g id="id8">
      <rect class="BoundingBox" stroke="none" fill="none" x="32399" y="29102" width="287" height="349"/>
      <path fill="rgb(255,255,255)" stroke="none" d="M 32684,29213 C 32684,29235 32678,29254 32669,29273 32658,29290 32643,29304 32626,29313 32605,29322 32583,29328 32558,29328 L 32471,29328 32471,29450 32399,29450 32399,29103 32555,29103 C 32597,29103 32628,29112 32650,29132 32673,29151 32684,29177 32684,29213 Z M 32610,29214 C 32610,29177 32589,29158 32547,29158 L 32471,29158 32471,29271 32548,29271 C 32567,29271 32583,29267 32595,29257 32605,29247 32610,29233 32610,29214 Z"/>
     </g>
    </g>
    <g class="com.sun.star.drawing.ClosedBezierShape">
     <g id="id9">
      <rect class="BoundingBox" stroke="none" fill="none" x="32721" y="29098" width="352" height="358"/>
      <path fill="rgb(255,255,255)" stroke="none" d="M 33072,29275 C 33072,29312 33064,29343 33050,29372 33036,29398 33014,29419 32988,29433 32961,29449 32930,29455 32895,29455 32842,29455 32799,29439 32768,29408 32738,29375 32721,29331 32721,29275 32721,29220 32738,29177 32768,29146 32799,29115 32842,29099 32895,29099 32950,29099 32994,29115 33025,29146 33055,29177 33072,29220 33072,29275 Z M 32997,29275 C 32997,29239 32988,29209 32970,29188 32953,29167 32927,29155 32895,29155 32864,29155 32839,29167 32820,29188 32804,29209 32795,29237 32795,29275 32795,29313 32804,29343 32822,29365 32839,29388 32864,29398 32895,29398 32927,29398 32953,29388 32970,29367 32988,29344 32997,29314 32997,29275 Z"/>
     </g>
    </g>
    <g class="com.sun.star.drawing.ClosedBezierShape">
     <g id="id10">
      <rect class="BoundingBox" stroke="none" fill="none" x="33093" y="29103" width="476" height="349"/>
      <path fill="rgb(255,255,255)" stroke="none" d="M 33478,29451 L 33392,29451 33345,29250 C 33338,29227 33333,29202 33330,29176 33326,29198 33324,29214 33321,29225 33319,29236 33301,29312 33268,29451 L 33183,29451 33093,29104 33166,29104 33217,29327 33227,29382 C 33233,29359 33237,29337 33242,29317 33247,29296 33261,29225 33291,29104 L 33371,29104 33415,29288 C 33419,29303 33424,29332 33432,29382 L 33439,29353 33452,29296 33493,29104 33567,29104 33478,29451 Z"/>
     </g>
    </g>
    <g class="com.sun.star.drawing.ClosedBezierShape">
     <g id="id11">
      <rect class="BoundingBox" stroke="none" fill="none" x="33600" y="29103" width="285" height="349"/>
      <path fill="rgb(255,255,255)" stroke="none" d="M 33601,29451 C 33601,29334 33601,29219 33601,29104 33692,29104 33782,29104 33874,29104 33874,29122 33874,29142 33874,29159 33806,29159 33739,29159 33673,29159 33673,29189 33673,29218 33673,29246 33734,29246 33798,29246 33858,29246 33858,29265 33858,29284 33858,29303 33798,29303 33734,29303 33673,29303 33673,29332 33673,29364 33673,29394 33743,29394 33812,29394 33883,29394 33883,29413 33883,29430 33883,29451 33789,29451 33695,29451 33601,29451 Z"/>
     </g>
    </g>
    <g class="com.sun.star.drawing.ClosedBezierShape">
     <g id="id12">
      <rect class="BoundingBox" stroke="none" fill="none" x="33938" y="29102" width="322" height="349"/>
      <path fill="rgb(255,255,255)" stroke="none" d="M 34178,29450 L 34096,29318 34011,29318 34011,29450 33939,29450 33939,29103 34111,29103 C 34153,29103 34184,29112 34208,29128 34229,29147 34242,29173 34242,29206 34242,29231 34234,29252 34220,29269 34208,29287 34187,29299 34165,29305 L 34258,29450 34178,29450 Z M 34167,29209 C 34167,29176 34147,29158 34104,29158 L 34011,29158 34011,29261 34106,29261 C 34126,29261 34142,29257 34152,29248 34162,29239 34167,29226 34167,29209 Z"/>
     </g>
    </g>
    <g class="com.sun.star.drawing.ClosedBezierShape">
     <g id="id13">
      <rect class="BoundingBox" stroke="none" fill="none" x="34301" y="29103" width="284" height="349"/>
      <path fill="rgb(255,255,255)" stroke="none" d="M 34301,29451 C 34301,29334 34301,29219 34301,29104 34392,29104 34483,29104 34574,29104 34574,29122 34574,29142 34574,29159 34506,29159 34439,29159 34373,29159 34373,29189 34373,29218 34373,29246 34434,29246 34498,29246 34559,29246 34559,29265 34559,29284 34559,29303 34498,29303 34434,29303 34373,29303 34373,29332 34373,29364 34373,29394 34444,29394 34513,29394 34584,29394 34584,29413 34584,29430 34584,29451 34490,29451 34395,29451 34301,29451 Z"/>
     </g>
    </g>
    <g class="com.sun.star.drawing.ClosedBezierShape">
     <g id="id14">
      <rect class="BoundingBox" stroke="none" fill="none" x="34637" y="29103" width="311" height="349"/>
      <path fill="rgb(255,255,255)" stroke="none" d="M 34946,29274 C 34946,29310 34938,29341 34925,29368 34911,29394 34891,29416 34865,29429 34840,29443 34809,29451 34777,29451 L 34637,29451 34637,29104 34763,29104 C 34821,29104 34866,29118 34898,29148 34930,29177 34946,29219 34946,29274 Z M 34873,29274 C 34873,29237 34864,29208 34843,29189 34825,29169 34797,29159 34762,29159 L 34709,29159 34709,29394 34770,29394 C 34802,29394 34827,29383 34845,29361 34864,29341 34873,29312 34873,29274 Z"/>
     </g>
    </g>
    <g class="com.sun.star.drawing.ClosedBezierShape">
     <g id="id15">
      <rect class="BoundingBox" stroke="none" fill="none" x="35139" y="29103" width="308" height="349"/>
      <path fill="rgb(255,255,255)" stroke="none" d="M 35446,29351 C 35446,29382 35434,29408 35411,29424 35387,29442 35354,29451 35312,29451 L 35140,29451 35140,29104 35298,29104 C 35341,29104 35373,29112 35393,29125 35416,29141 35426,29162 35426,29190 35426,29210 35421,29227 35411,29241 35398,29254 35383,29263 35361,29268 35388,29271 35410,29280 35425,29295 35440,29309 35446,29327 35446,29351 Z M 35354,29201 C 35354,29185 35349,29174 35339,29168 35329,29160 35314,29158 35294,29158 L 35212,29158 35212,29244 35295,29244 C 35315,29244 35331,29240 35341,29233 35349,29225 35354,29215 35354,29201 Z M 35375,29346 C 35375,29313 35350,29297 35305,29297 L 35212,29297 35212,29396 35307,29396 C 35329,29396 35346,29391 35358,29383 35368,29375 35375,29362 35375,29346 Z"/>
     </g>
    </g>
    <g class="com.sun.star.drawing.ClosedBezierShape">
     <g id="id16">
      <rect class="BoundingBox" stroke="none" fill="none" x="35479" y="29103" width="321" height="349"/>
      <path fill="rgb(255,255,255)" stroke="none" d="M 35675,29308 C 35675,29356 35675,29404 35675,29451 35651,29451 35628,29451 35603,29451 35603,29404 35603,29356 35603,29308 35562,29240 35520,29172 35480,29104 35504,29104 35531,29104 35556,29104 35583,29152 35611,29202 35638,29250 35667,29202 35694,29152 35723,29104 35749,29104 35772,29104 35799,29104 35757,29172 35717,29240 35675,29308 Z"/>
     </g>
    </g>
   </g>
  </g>
 </g>
</svg>