<?xml version="1.0" encoding="UTF-8"?>
<!DOCTYPE svg PUBLIC "-//W3C//DTD SVG 1.1//EN" "http://www.w3.org/Graphics/SVG/1.1/DTD/svg11.dtd">
<svg version="1.2" width="100.02mm" height="62.02mm" viewBox="31999 36800 10002 6202" preserveAspectRatio="xMidYMid" fill-rule="evenodd" stroke-width="28.222" stroke-linejoin="round" xmlns="http://www.w3.org/2000/svg" xmlns:ooo="http://xml.openoffice.org/svg/export" xmlns:xlink="http://www.w3.org/1999/xlink" xmlns:presentation="http://sun.com/xmlns/staroffice/presentation" xmlns:smil="http://www.w3.org/2001/SMIL20/" xmlns:anim="urn:oasis:names:tc:opendocument:xmlns:animation:1.0" xmlns:svg="urn:oasis:names:tc:opendocument:xmlns:svg-compatible:1.0" xml:space="preserve">
 <defs class="EmbeddedBulletChars">
  <g id="bullet-char-template-57356" transform="scale(0.00048828125,-0.00048828125)">
   <path d="M 580,1141 L 1163,571 580,0 -4,571 580,1141 Z"/>
  </g>
  <g id="bullet-char-template-57354" transform="scale(0.00048828125,-0.00048828125)">
   <path d="M 8,1128 L 1137,1128 1137,0 8,0 8,1128 Z"/>
  </g>
  <g id="bullet-char-template-10146" transform="scale(0.00048828125,-0.00048828125)">
   <path d="M 174,0 L 602,739 174,1481 1456,739 174,0 Z M 1358,739 L 309,1346 659,739 1358,739 Z"/>
  </g>
  <g id="bullet-char-template-10132" transform="scale(0.00048828125,-0.00048828125)">
   <path d="M 2015,739 L 1276,0 717,0 1260,543 174,543 174,936 1260,936 717,1481 1274,1481 2015,739 Z"/>
  </g>
  <g id="bullet-char-template-10007" transform="scale(0.00048828125,-0.00048828125)">
   <path d="M 0,-2 C -7,14 -16,27 -25,37 L 356,567 C 262,823 215,952 215,954 215,979 228,992 255,992 264,992 276,990 289,987 310,991 331,999 354,1012 L 381,999 492,748 772,1049 836,1024 860,1049 C 881,1039 901,1025 922,1006 886,937 835,863 770,784 769,783 710,716 594,584 L 774,223 C 774,196 753,168 711,139 L 727,119 C 717,90 699,76 672,76 641,76 570,178 457,381 L 164,-76 C 142,-110 111,-127 72,-127 30,-127 9,-110 8,-76 1,-67 -2,-52 -2,-32 -2,-23 -1,-13 0,-2 Z"/>
  </g>
  <g id="bullet-char-template-10004" transform="scale(0.00048828125,-0.00048828125)">
   <path d="M 285,-33 C 182,-33 111,30 74,156 52,228 41,333 41,471 41,549 55,616 82,672 116,743 169,778 240,778 293,778 328,747 346,684 L 369,508 C 377,444 397,411 428,410 L 1163,1116 C 1174,1127 1196,1133 1229,1133 1271,1133 1292,1118 1292,1087 L 1292,965 C 1292,929 1282,901 1262,881 L 442,47 C 390,-6 338,-33 285,-33 Z"/>
  </g>
  <g id="bullet-char-template-9679" transform="scale(0.00048828125,-0.00048828125)">
   <path d="M 813,0 C 632,0 489,54 383,161 276,268 223,411 223,592 223,773 276,916 383,1023 489,1130 632,1184 813,1184 992,1184 1136,1130 1245,1023 1353,916 1407,772 1407,592 1407,412 1353,268 1245,161 1136,54 992,0 813,0 Z"/>
  </g>
  <g id="bullet-char-template-8226" transform="scale(0.00048828125,-0.00048828125)">
   <path d="M 346,457 C 273,457 209,483 155,535 101,586 74,649 74,723 74,796 101,859 155,911 209,963 273,989 346,989 419,989 480,963 531,910 582,859 608,796 608,723 608,648 583,586 532,535 482,483 420,457 346,457 Z"/>
  </g>
  <g id="bullet-char-template-8211" transform="scale(0.00048828125,-0.00048828125)">
   <path d="M -4,459 L 1135,459 1135,606 -4,606 -4,459 Z"/>
  </g>
  <g id="bullet-char-template-61548" transform="scale(0.00048828125,-0.00048828125)">
   <path d="M 173,740 C 173,903 231,1043 346,1159 462,1274 601,1332 765,1332 928,1332 1067,1274 1183,1159 1299,1043 1357,903 1357,740 1357,577 1299,437 1183,322 1067,206 928,148 765,148 601,148 462,206 346,322 231,437 173,577 173,740 Z"/>
  </g>
 </defs>
 <g class="Page">
  <g class="Group">
   <g class="com.sun.star.drawing.ClosedBezierShape">
    <g id="id3">
     <rect class="BoundingBox" stroke="none" fill="none" x="31999" y="36800" width="10002" height="6202"/>
     <path fill="rgb(1,34,105)" stroke="none" d="M 32000,42396 C 32001,42719 32261,43001 32604,43000 32947,42999 37535,42997 40801,43000 41507,43000 42000,42425 42000,41800 42000,41175 42000,39800 42000,38800 41600,38800 40800,38800 40800,38800 L 40800,38031 42000,38031 C 42000,38031 42000,37707 42000,37404 42000,37101 41764,36801 41396,36800 41028,36799 33907,36801 33200,36800 32493,36799 32000,37389 32000,38000 31999,39213 31999,42073 32000,42396 Z"/>
    </g>
   </g>
   <g class="Group">
    <g class="com.sun.star.drawing.PolyPolygonShape">
     <g id="id4">
      <rect class="BoundingBox" stroke="none" fill="none" x="33948" y="39392" width="1655" height="2802"/>
      <path fill="rgb(255,255,255)" stroke="none" d="M 35202,41192 L 35202,40092 34436,41192 35202,41192 Z M 35202,42192 L 35202,41592 33948,41592 33948,41194 35202,39392 35597,39392 35602,42192 35202,42192 Z"/>
     </g>
    </g>
    <g class="com.sun.star.drawing.ClosedBezierShape">
     <g id="id5">
      <rect class="BoundingBox" stroke="none" fill="none" x="32801" y="39392" width="2157" height="1601"/>
      <path fill="rgb(255,149,14)" stroke="none" d="M 32802,40392 L 33401,40392 33401,39992 32802,39992 C 32802,39992 32799,40042 32802,39792 32805,39542 33014,39392 33202,39392 33390,39392 34371,39392 34956,39392 34585,39925 33843,40992 33843,40992 L 32802,40992 32802,40392 Z"/>
     </g>
    </g>
    <g class="com.sun.star.drawing.ClosedBezierShape">
     <g id="id6">
      <rect class="BoundingBox" stroke="none" fill="none" x="39601" y="39992" width="1202" height="1602"/>
      <path fill="rgb(255,255,255)" stroke="none" d="M 40103,41192 L 40802,41192 40801,41592 39899,41593 C 39847,41593 39796,41579 39750,41553 39705,41527 39667,41489 39641,41444 39615,41398 39601,41347 39601,41295 L 39601,40290 C 39601,40238 39615,40187 39641,40141 39667,40096 39705,40058 39750,40032 39796,40006 39847,39992 39899,39992 L 40801,39992 40802,40392 40103,40391 C 40085,40391 40068,40396 40052,40405 40036,40414 40024,40426 40015,40442 40006,40458 40001,40475 40001,40493 L 40001,41090 C 40001,41108 40006,41125 40015,41141 40024,41157 40036,41169 40052,41178 40068,41187 40085,41192 40103,41192 Z"/>
     </g>
    </g>
    <g class="com.sun.star.drawing.CustomShape">
     <g id="id7">
      <rect class="BoundingBox" stroke="none" fill="none" x="32802" y="41192" width="947" height="401"/>
      <path fill="rgb(255,149,14)" stroke="none" d="M 33275,41592 L 32802,41592 32802,41192 33748,41192 33748,41592 33275,41592 Z"/>
     </g>
    </g>
    <g class="com.sun.star.drawing.CustomShape">
     <g id="id8">
      <rect class="BoundingBox" stroke="none" fill="none" x="35801" y="39392" width="800" height="401"/>
      <path fill="rgb(255,149,14)" stroke="none" d="M 36201,39792 L 35801,39792 35801,39392 36600,39392 36600,39792 36201,39792 Z"/>
     </g>
    </g>
    <g class="com.sun.star.drawing.CustomShape">
     <g id="id9">
      <rect class="BoundingBox" stroke="none" fill="none" x="37401" y="39392" width="401" height="401"/>
      <path fill="rgb(255,255,255)" stroke="none" d="M 37601,39792 L 37401,39792 37401,39392 37801,39392 37801,39792 37601,39792 Z"/>
     </g>
    </g>
    <g class="com.sun.star.drawing.ClosedBezierShape">
     <g id="id10">
      <rect class="BoundingBox" stroke="none" fill="none" x="37401" y="39992" width="401" height="1602"/>
      <path fill="rgb(255,255,255)" stroke="none" d="M 37501,40019 C 37532,40001 37566,39992 37601,39992 L 37801,39992 37801,41592 C 37801,41592 37608,41593 37602,41593 37566,41593 37532,41584 37501,41566 37471,41549 37445,41523 37428,41493 37410,41462 37401,41428 37401,41393 L 37401,40193 C 37401,40157 37410,40123 37428,40092 37445,40062 37471,40036 37501,40019 Z"/>
     </g>
    </g>
    <g class="com.sun.star.drawing.ClosedBezierShape">
     <g id="id11">
      <rect class="BoundingBox" stroke="none" fill="none" x="38000" y="39991" width="1402" height="1603"/>
      <path fill="rgb(255,255,255)" stroke="none" d="M 39401,41592 C 39401,41592 39310,41593 39302,41593 39249,41593 39197,41579 39151,41553 39106,41526 39068,41488 39041,41443 39015,41397 39001,41345 39001,41293 39001,41292 39001,41592 39001,41592 L 38305,41592 C 38252,41592 38199,41578 38153,41551 38107,41525 38068,41486 38042,41440 38015,41394 38001,41341 38001,41288 L 38001,40295 C 38001,40242 38015,40189 38042,40143 38068,40097 38107,40058 38153,40032 38199,40005 38252,39991 38305,39991 L 39401,39992 39401,41592 Z M 38504,41192 L 39000,41192 39000,40392 38504,40391 C 38486,40391 38468,40396 38453,40405 38437,40414 38424,40427 38415,40443 38406,40458 38401,40476 38401,40494 L 38401,41089 C 38401,41107 38406,41125 38415,41141 38424,41156 38437,41169 38453,41178 38468,41187 38486,41192 38504,41192 Z"/>
     </g>
    </g>
    <g class="com.sun.star.drawing.ClosedBezierShape">
     <g id="id12">
      <rect class="BoundingBox" stroke="none" fill="none" x="32801" y="41792" width="2201" height="401"/>
      <path fill="rgb(255,149,14)" stroke="none" d="M 33000,42192 C 33000,42192 32931,42183 32901,42165 32871,42148 32845,42122 32828,42092 32810,42062 32801,42027 32801,41992 32801,41985 32802,41792 32802,41792 L 35001,41792 35001,42192 33000,42192 Z"/>
     </g>
    </g>
    <g class="com.sun.star.drawing.ClosedBezierShape">
     <g id="id13">
      <rect class="BoundingBox" stroke="none" fill="none" x="35801" y="41792" width="5001" height="402"/>
      <path fill="rgb(255,149,14)" stroke="none" d="M 35801,42192 L 35801,41792 40801,41792 40801,41992 C 40801,42027 40792,42062 40774,42092 40757,42122 40731,42148 40701,42165 40671,42183 40636,42192 40601,42192 L 35801,42192 Z"/>
     </g>
    </g>
    <g class="com.sun.star.drawing.ClosedBezierShape">
     <g id="id14">
      <rect class="BoundingBox" stroke="none" fill="none" x="38001" y="39391" width="2801" height="402"/>
      <path fill="rgb(255,149,14)" stroke="none" d="M 38001,39792 L 38001,39392 C 38001,39392 40594,39391 40601,39391 40636,39391 40671,39400 40701,39418 40731,39435 40757,39461 40774,39491 40792,39521 40801,39556 40801,39591 L 40801,39792 38001,39792 Z"/>
     </g>
    </g>
    <g class="com.sun.star.drawing.ClosedBezierShape">
     <g id="id15">
      <rect class="BoundingBox" stroke="none" fill="none" x="35801" y="39392" width="1401" height="2202"/>
      <path fill="rgb(255,255,255)" stroke="none" d="M 37201,41592 C 37201,41592 37110,41593 37102,41593 37049,41593 36997,41579 36951,41553 36906,41526 36868,41488 36841,41443 36815,41397 36801,41345 36801,41293 36801,41292 36801,41592 36801,41592 L 36101,41592 C 36048,41592 35997,41578 35951,41552 35905,41525 35868,41488 35841,41442 35815,41396 35801,41345 35801,41292 L 35801,40291 C 35801,40238 35815,40187 35841,40141 35868,40095 35905,40058 35951,40031 35997,40005 36048,39991 36101,39991 L 36801,39992 36801,39392 37201,39392 37201,41592 Z M 36301,41192 L 36800,41192 36800,40392 36301,40391 C 36283,40391 36266,40396 36251,40405 36235,40413 36222,40426 36214,40442 36205,40457 36200,40474 36200,40492 L 36200,41091 C 36200,41109 36205,41126 36214,41142 36222,41157 36235,41170 36251,41178 36266,41187 36283,41192 36301,41192 Z"/>
     </g>
    </g>
   </g>
   <g class="Group">
    <g class="com.sun.star.drawing.PolyPolygonShape">
     <g id="id16">
      <rect class="BoundingBox" stroke="none" fill="none" x="32801" y="38033" width="638" height="776"/>
      <path fill="rgb(255,255,255)" stroke="none" d="M 33438,38278 L 33438,38297 33436,38315 33433,38332 33430,38349 33425,38366 33419,38382 33412,38397 33404,38412 33395,38426 33385,38440 33374,38452 33363,38464 33350,38475 33336,38485 33322,38495 33306,38503 33290,38511 33273,38517 33256,38523 33237,38527 33218,38531 33198,38533 33177,38535 33156,38535 32963,38535 32963,38808 32801,38808 32801,38033 33149,38033 33183,38034 33215,38037 33244,38042 33272,38049 33298,38058 33310,38063 33322,38069 33333,38075 33343,38082 33353,38089 33363,38097 33372,38105 33381,38114 33389,38123 33396,38132 33403,38142 33409,38153 33414,38163 33419,38174 33424,38186 33428,38198 33431,38210 33433,38223 33437,38250 33438,38278 Z M 33275,38281 L 33274,38266 33273,38252 33270,38240 33266,38228 33261,38217 33255,38207 33247,38198 33239,38189 33229,38182 33219,38176 33207,38171 33194,38167 33180,38163 33165,38161 33148,38159 33131,38159 32963,38159 32963,38410 33135,38410 33152,38410 33167,38408 33181,38406 33195,38402 33207,38397 33213,38395 33219,38392 33224,38388 33229,38385 33234,38381 33239,38377 33243,38373 33247,38368 33251,38364 33254,38359 33258,38353 33261,38348 33263,38342 33266,38336 33268,38330 33270,38324 33273,38311 33274,38296 33275,38281 Z"/>
     </g>
    </g>
    <g class="com.sun.star.drawing.PolyPolygonShape">
     <g id="id17">
      <rect class="BoundingBox" stroke="none" fill="none" x="33520" y="38022" width="783" height="798"/>
      <path fill="rgb(255,255,255)" stroke="none" d="M 34302,38417 L 34302,38447 34299,38476 34296,38504 34290,38531 34284,38557 34275,38582 34266,38607 34254,38630 34242,38652 34228,38673 34213,38693 34196,38711 34179,38728 34160,38744 34139,38758 34118,38771 34095,38782 34071,38792 34047,38800 34021,38807 33995,38812 33967,38816 33939,38819 33910,38819 33865,38818 33823,38813 33784,38804 33765,38799 33747,38792 33729,38785 33712,38777 33696,38769 33680,38759 33665,38748 33651,38737 33637,38725 33624,38712 33611,38698 33599,38684 33588,38669 33578,38653 33569,38637 33560,38620 33553,38603 33546,38584 33535,38546 33526,38506 33522,38463 33520,38417 33522,38372 33526,38329 33535,38289 33546,38251 33553,38234 33560,38216 33569,38200 33578,38184 33588,38169 33599,38154 33611,38140 33623,38126 33637,38114 33650,38102 33665,38091 33680,38081 33696,38071 33712,38063 33729,38055 33747,38048 33784,38037 33824,38029 33866,38024 33911,38022 33956,38024 33998,38029 34038,38037 34075,38048 34093,38055 34110,38063 34126,38072 34142,38081 34157,38092 34171,38103 34185,38115 34199,38128 34211,38141 34223,38155 34234,38170 34244,38185 34253,38201 34262,38218 34269,38235 34276,38253 34288,38290 34296,38330 34301,38373 34302,38417 Z M 34137,38417 L 34136,38387 34133,38358 34128,38331 34122,38306 34114,38282 34103,38260 34098,38249 34091,38239 34085,38230 34077,38221 34070,38212 34062,38204 34053,38197 34045,38190 34036,38183 34026,38177 34016,38172 34006,38167 33996,38163 33985,38160 33973,38157 33961,38154 33937,38151 33911,38150 33884,38151 33860,38154 33848,38156 33836,38160 33825,38163 33814,38167 33804,38172 33794,38177 33785,38183 33775,38189 33767,38196 33758,38204 33750,38212 33743,38220 33735,38229 33729,38239 33722,38249 33717,38259 33706,38281 33698,38305 33692,38330 33687,38358 33684,38387 33683,38417 33684,38448 33687,38478 33692,38505 33698,38531 33707,38556 33717,38578 33723,38589 33730,38599 33737,38609 33744,38618 33752,38627 33760,38636 33768,38643 33777,38650 33786,38657 33796,38663 33806,38669 33816,38673 33826,38678 33837,38681 33848,38685 33860,38687 33872,38689 33884,38691 33910,38692 33936,38691 33961,38687 33973,38685 33984,38682 33995,38678 34006,38674 34016,38669 34026,38664 34036,38658 34045,38652 34054,38645 34062,38637 34070,38629 34078,38620 34085,38611 34092,38601 34098,38591 34104,38581 34114,38558 34122,38534 34129,38508 34133,38479 34136,38449 34137,38417 Z"/>
     </g>
    </g>
    <g class="com.sun.star.drawing.PolyPolygonShape">
     <g id="id18">
      <rect class="BoundingBox" stroke="none" fill="none" x="34352" y="38033" width="1061" height="776"/>
      <path fill="rgb(255,255,255)" stroke="none" d="M 35212,38808 L 35020,38808 34915,38360 34906,38320 34897,38279 34889,38237 34883,38194 34861,38304 34744,38808 34552,38808 34352,38033 34516,38033 34629,38534 34654,38655 34684,38509 34793,38033 34975,38033 35073,38446 35079,38476 35088,38521 35112,38655 35126,38591 35155,38464 35248,38033 35412,38033 35212,38808 Z"/>
     </g>
    </g>
    <g class="com.sun.star.drawing.PolyPolygonShape">
     <g id="id19">
      <rect class="BoundingBox" stroke="none" fill="none" x="35488" y="38033" width="633" height="776"/>
      <path fill="rgb(255,255,255)" stroke="none" d="M 35488,38808 L 35488,38033 36097,38033 36097,38158 35650,38158 35650,38353 36064,38353 36064,38479 35650,38479 35650,38683 36120,38683 36120,38808 35488,38808 Z"/>
     </g>
    </g>
    <g class="com.sun.star.drawing.PolyPolygonShape">
     <g id="id20">
      <rect class="BoundingBox" stroke="none" fill="none" x="36240" y="38033" width="717" height="776"/>
      <path fill="rgb(255,255,255)" stroke="none" d="M 36773,38808 L 36593,38514 36403,38514 36403,38808 36241,38808 36241,38033 36628,38033 36662,38034 36693,38037 36723,38041 36751,38048 36776,38056 36800,38067 36811,38072 36822,38079 36832,38085 36842,38093 36851,38100 36860,38108 36867,38117 36875,38126 36882,38135 36888,38145 36893,38155 36898,38165 36903,38176 36907,38188 36910,38199 36912,38211 36916,38237 36917,38264 36916,38284 36914,38303 36911,38322 36906,38340 36899,38357 36891,38374 36882,38389 36871,38405 36859,38419 36846,38432 36832,38443 36817,38454 36801,38463 36784,38470 36765,38477 36746,38482 36956,38808 36773,38808 Z M 36754,38271 L 36753,38257 36752,38244 36749,38233 36745,38222 36740,38212 36734,38203 36727,38194 36718,38187 36709,38180 36698,38175 36686,38170 36674,38166 36660,38163 36644,38161 36628,38159 36611,38159 36403,38159 36403,38388 36615,38388 36632,38387 36647,38386 36662,38383 36675,38380 36688,38376 36694,38373 36699,38370 36704,38367 36709,38364 36714,38361 36719,38357 36723,38353 36727,38349 36731,38345 36734,38340 36737,38335 36740,38330 36743,38325 36745,38320 36747,38314 36749,38309 36750,38303 36752,38297 36753,38284 36754,38271 Z"/>
     </g>
    </g>
    <g class="com.sun.star.drawing.PolyPolygonShape">
     <g id="id21">
      <rect class="BoundingBox" stroke="none" fill="none" x="37053" y="38033" width="633" height="776"/>
      <path fill="rgb(255,255,255)" stroke="none" d="M 37053,38808 L 37053,38033 37662,38033 37662,38158 37215,38158 37215,38353 37629,38353 37629,38479 37215,38479 37215,38683 37685,38683 37685,38808 37053,38808 Z"/>
     </g>
    </g>
    <g class="com.sun.star.drawing.PolyPolygonShape">
     <g id="id22">
      <rect class="BoundingBox" stroke="none" fill="none" x="37805" y="38033" width="691" height="776"/>
      <path fill="rgb(255,255,255)" stroke="none" d="M 38495,38415 L 38495,38444 38493,38473 38489,38500 38484,38527 38477,38553 38469,38578 38460,38601 38448,38624 38436,38646 38423,38666 38408,38685 38392,38703 38374,38719 38356,38735 38336,38748 38315,38761 38294,38772 38271,38782 38247,38790 38223,38796 38198,38802 38172,38805 38146,38807 38118,38808 37805,38808 37805,38033 38085,38033 38133,38035 38178,38039 38220,38047 38259,38058 38295,38072 38313,38080 38329,38089 38345,38098 38360,38109 38375,38120 38388,38132 38401,38144 38413,38158 38425,38172 38435,38186 38445,38202 38454,38218 38462,38235 38469,38252 38475,38270 38480,38289 38489,38328 38494,38370 38495,38415 Z M 38332,38415 L 38331,38385 38328,38356 38323,38329 38316,38305 38312,38293 38307,38282 38302,38271 38296,38261 38289,38251 38283,38242 38275,38233 38267,38224 38259,38216 38250,38209 38241,38202 38231,38195 38221,38189 38211,38184 38200,38179 38189,38175 38165,38168 38139,38163 38111,38159 38082,38158 37967,38158 37967,38683 38105,38683 38130,38682 38154,38678 38166,38676 38177,38673 38188,38669 38198,38665 38209,38660 38218,38655 38228,38649 38237,38642 38246,38635 38255,38628 38263,38619 38271,38611 38278,38602 38285,38592 38292,38582 38298,38571 38308,38549 38317,38526 38324,38500 38328,38474 38331,38445 38332,38415 Z"/>
     </g>
    </g>
    <g class="com.sun.star.drawing.PolyPolygonShape">
     <g id="id23">
      <rect class="BoundingBox" stroke="none" fill="none" x="38931" y="38033" width="688" height="776"/>
      <path fill="rgb(255,255,255)" stroke="none" d="M 39618,38587 L 39616,38613 39615,38625 39613,38637 39610,38648 39607,38659 39602,38670 39598,38681 39593,38691 39587,38700 39580,38709 39573,38718 39565,38727 39557,38735 39548,38743 39538,38750 39528,38757 39518,38764 39495,38776 39470,38785 39444,38794 39415,38800 39385,38804 39353,38807 39319,38808 38931,38808 38931,38033 39286,38033 39320,38034 39352,38036 39382,38040 39410,38045 39436,38052 39460,38061 39481,38071 39491,38076 39500,38082 39509,38089 39517,38095 39525,38102 39532,38110 39539,38118 39545,38126 39550,38134 39555,38143 39559,38152 39563,38162 39566,38172 39569,38182 39571,38193 39572,38204 39573,38228 39573,38244 39571,38259 39568,38274 39564,38289 39559,38302 39553,38315 39545,38327 39537,38339 39532,38345 39527,38350 39516,38360 39504,38369 39490,38377 39476,38384 39460,38391 39443,38396 39425,38400 39448,38404 39469,38408 39489,38414 39508,38421 39525,38429 39541,38438 39555,38448 39562,38454 39568,38460 39574,38466 39580,38472 39585,38479 39590,38486 39594,38493 39598,38500 39602,38508 39605,38515 39608,38523 39611,38532 39615,38549 39617,38568 39618,38587 Z M 39410,38250 L 39409,38237 39408,38225 39407,38220 39405,38215 39403,38210 39402,38205 39399,38200 39397,38196 39394,38192 39391,38188 39388,38185 39384,38181 39381,38178 39377,38175 39372,38173 39368,38170 39358,38166 39347,38162 39335,38159 39322,38157 39309,38155 39294,38154 39278,38153 39093,38153 39093,38345 39279,38345 39296,38345 39311,38344 39325,38342 39338,38339 39350,38336 39361,38332 39366,38330 39370,38327 39375,38324 39379,38321 39383,38318 39386,38315 39389,38312 39392,38308 39395,38304 39398,38300 39400,38296 39402,38292 39404,38287 39405,38282 39407,38277 39408,38272 39409,38261 39410,38250 Z M 39455,38574 L 39454,38561 39452,38549 39449,38537 39445,38527 39440,38517 39433,38508 39425,38500 39416,38492 39406,38486 39394,38481 39381,38476 39367,38472 39352,38469 39335,38467 39299,38465 39093,38465 39093,38688 39305,38688 39324,38687 39341,38686 39357,38684 39372,38680 39386,38676 39398,38672 39404,38669 39409,38666 39414,38663 39419,38659 39423,38656 39427,38652 39431,38648 39435,38643 39438,38639 39441,38634 39444,38629 39446,38624 39448,38618 39450,38613 39451,38607 39453,38601 39454,38588 39455,38574 Z"/>
     </g>
    </g>
    <g class="com.sun.star.drawing.PolyPolygonShape">
     <g id="id24">
      <rect class="BoundingBox" stroke="none" fill="none" x="39688" y="38033" width="715" height="777"/>
      <path fill="rgb(255,255,255)" stroke="none" d="M 40126,38490 L 40126,38808 39964,38808 39964,38490 39688,38033 39858,38033 40044,38361 40232,38033 40402,38033 40126,38490 Z"/>
     </g>
    </g>
   </g>
  </g>
 </g>
</svg>