<?xml version="1.0" encoding="UTF-8" standalone="no"?>
<svg
   xmlns:dc="http://purl.org/dc/elements/1.1/"
   xmlns:cc="http://creativecommons.org/ns#"
   xmlns:rdf="http://www.w3.org/1999/02/22-rdf-syntax-ns#"
   xmlns:svg="http://www.w3.org/2000/svg"
   xmlns="http://www.w3.org/2000/svg"
   xmlns:sodipodi="http://sodipodi.sourceforge.net/DTD/sodipodi-0.dtd"
   xmlns:inkscape="http://www.inkscape.org/namespaces/inkscape"
   version="1.2"
   width="117mm"
   height="58mm"
   viewBox="13200 7500 11700 5800"
   preserveAspectRatio="xMidYMid"
   fill-rule="evenodd"
   stroke-width="28.222"
   stroke-linejoin="round"
   xml:space="preserve"
   id="svg5331"
   inkscape:version="0.91 r13725"
   sodipodi:docname="poweredby4diac_large.svg"
   inkscape:export-filename="/home/alil/az-offlinework/4DIAC/webpage/4diac/media/poweredby4diac_large.svg.png"
   inkscape:export-xdpi="1600.61"
   inkscape:export-ydpi="1600.61"><metadata
     id="metadata5465"><rdf:RDF><cc:Work
         rdf:about=""><dc:format>image/svg+xml</dc:format><dc:type
           rdf:resource="http://purl.org/dc/dcmitype/StillImage" /></cc:Work></rdf:RDF></metadata><sodipodi:namedview
     pagecolor="#ffffff"
     bordercolor="#666666"
     borderopacity="1"
     objecttolerance="10"
     gridtolerance="10"
     guidetolerance="10"
     inkscape:pageopacity="0"
     inkscape:pageshadow="2"
     inkscape:window-width="1920"
     inkscape:window-height="1016"
     id="namedview5463"
     showgrid="false"
     inkscape:zoom="0.77912631"
     inkscape:cx="207.28346"
     inkscape:cy="102.75591"
     inkscape:window-x="0"
     inkscape:window-y="27"
     inkscape:window-maximized="1"
     inkscape:current-layer="svg5331" /><defs
     class="ClipPathGroup"
     id="defs5333"><clipPath
       id="presentation_clip_path"
       clipPathUnits="userSpaceOnUse"><rect
         x="13200"
         y="7500"
         width="11700"
         height="5800"
         id="rect5336" /></clipPath></defs><defs
     id="defs5341" /><defs
     class="TextShapeIndex"
     id="defs5366" /><defs
     class="EmbeddedBulletChars"
     id="defs5370" /><defs
     class="TextEmbeddedBitmaps"
     id="defs5402" /><g
     class="SlideGroup"
     id="g5404"><g
       id="g5406"><g
         id="container-id1"><g
           id="id1"
           class="Slide"
           clip-path="url(#presentation_clip_path)"><g
             class="Page"
             id="g5410"><g
               class="Group"
               id="g5412"><g
                 class="com.sun.star.drawing.ClosedBezierShape"
                 id="g5414"><g
                   id="id3"><rect
                     class="BoundingBox"
                     stroke="none"
                     fill="none"
                     x="13200"
                     y="7500"
                     width="11701"
                     height="5801"
                     id="rect5417" /><path
                     fill="rgb(255,255,255)"
                     stroke="none"
                     d="M 13300,13200 L 23100,13200 C 24200,13200 24800,12300 24800,11500 L 24800,9700 23700,9700 23700,8700 24800,8700 24800,7600 15000,7600 C 13933,7610 13300,8400 13300,9400 13300,10533 13300,12067 13300,13200 Z"
                     id="path5419" /><path
                     fill="none"
                     stroke="rgb(1,34,105)"
                     stroke-width="200"
                     stroke-linejoin="round"
                     d="M 13300,13200 L 23100,13200 C 24200,13200 24800,12300 24800,11500 L 24800,9700 23700,9700 23700,8700 24800,8700 24800,7600 15000,7600 C 13933,7610 13300,8400 13300,9400 13300,10533 13300,12067 13300,13200 Z"
                     id="path5421" /></g></g><g
                 class="Graphic"
                 id="g5423"><g
                   id="id4"><rect
                     class="BoundingBox"
                     stroke="none"
                     fill="none"
                     x="14000"
                     y="9695"
                     width="10179"
                     height="2854"
                     id="rect5426" /><path
                     fill="rgb(1,34,105)"
                     stroke="none"
                     d="M 16102,10474 L 16200,10366 16200,11699 16101,11699 16102,10474 Z"
                     id="path5428" /><path
                     fill="rgb(1,34,105)"
                     stroke="none"
                     d="M 14001,9699 L 16004,9699 15283,10902 14000,10902 14001,10687 14396,10687 14396,10292 14001,10292 14001,9699 Z"
                     id="path5430" /><path
                     fill="rgb(1,34,105)"
                     stroke="none"
                     d="M 15043,11300 L 14922,11501 14000,11501 14000,11300 15043,11300 Z"
                     id="path5432" /><path
                     fill="rgb(1,34,105)"
                     stroke="none"
                     d="M 16101,12499 L 16101,12200 14902,12200 14902,11699 16101,9699 16200,9699 15352,11710 16257,11823 16200,12499 16101,12499 Z"
                     id="path5434" /><path
                     fill="rgb(255,149,14)"
                     stroke="none"
                     d="M 16200,9699 L 15001,11699 15001,12101 16200,12101 16200,12499 16602,12499 16602,12101 16795,12101 16794,11699 16602,11699 16602,9699 16200,9699 16200,9699 Z M 16200,10366 L 16200,11699 15403,11699 16200,10366 16200,10366 Z"
                     id="path5436" /><path
                     fill="rgb(1,34,105)"
                     stroke="none"
                     d="M 15222,11001 L 15102,11202 14001,11202 14001,11001 C 14001,11001 14467,11001 15223,11001 L 15222,11001 Z"
                     id="path5438" /><path
                     fill="rgb(1,34,105)"
                     stroke="none"
                     d="M 14803,11699 L 14803,12298 16004,12298 16003,12492 14001,12492 14001,11600 14863,11600 14803,11699 Z"
                     id="path5440" /><path
                     fill="rgb(1,34,105)"
                     stroke="none"
                     d="M 19036,12501 L 19036,9695 18595,9695 18595,10662 C 18520,10583 18426,10522 18314,10478 18201,10434 18078,10412 17946,10411 17648,10418 17402,10522 17208,10723 17014,10924 16914,11179 16907,11489 16913,11794 17014,12045 17207,12242 17401,12439 17648,12541 17949,12548 18089,12549 18213,12524 18324,12475 18434,12426 18538,12347 18636,12239 L 18636,12501 19036,12501 Z M 18454,11980 C 18327,12111 18166,12178 17971,12183 17770,12178 17605,12109 17475,11975 17346,11841 17274,11671 17274,11465 17274,11268 17346,11101 17472,10976 17595,10854 17762,10776 17959,10776 18160,10776 18324,10848 18453,10980 18581,11111 18648,11278 18652,11482 18647,11683 18581,11849 18454,11980 Z"
                     id="path5442" /><path
                     fill="rgb(1,34,105)"
                     stroke="none"
                     d="M 19660,12500 L 19660,10309 19219,10309 19219,12500 19660,12500 Z M 19664,10127 L 19664,9696 19223,9696 19223,10127 19664,10127 Z"
                     id="path5444" /><path
                     fill="rgb(1,34,105)"
                     stroke="none"
                     d="M 23660,11875 C 23593,11981 23517,12058 23433,12107 23348,12155 23249,12179 23136,12179 22941,12175 22781,12108 22658,11979 22534,11849 22470,11682 22466,11476 22470,11270 22531,11104 22651,10977 22771,10850 22929,10785 23124,10781 23248,10781 23355,10807 23443,10859 23532,10912 23604,10991 23660,11097 L 24119,11098 C 24036,10863 23928,10726 23745,10601 23562,10476 23353,10413 23117,10412 22808,10419 22553,10522 22352,10721 22152,10920 22048,11173 22041,11480 22049,11784 22155,12036 22360,12236 22564,12437 22822,12541 23131,12548 23371,12547 23578,12484 23753,12360 23927,12236 24035,12105 24122,11876 L 23660,11875 Z"
                     id="path5446" /><path
                     fill="rgb(1,34,105)"
                     stroke="none"
                     d="M 21917,12501 L 21917,10370 21476,10370 21476,10662 C 21401,10583 21308,10522 21195,10478 21082,10434 20960,10412 20827,10411 20529,10418 20284,10522 20090,10723 19896,10924 19795,11179 19788,11489 19795,11794 19895,12045 20089,12242 20282,12439 20530,12541 20831,12548 20970,12549 21095,12524 21205,12475 21315,12426 21419,12347 21517,12239 L 21517,12501 21917,12501 Z M 21336,11980 C 21208,12111 21048,12178 20853,12183 20652,12178 20486,12109 20357,11975 20227,11841 20155,11671 20155,11465 20155,11268 20228,11101 20353,10976 20476,10854 20643,10776 20840,10776 21041,10776 21206,10848 21334,10980 21463,11111 21529,11278 21533,11482 21529,11683 21463,11849 21336,11980 Z"
                     id="path5448" /></g></g><g
                 class="com.sun.star.drawing.TextShape"
                 id="g5450"><g
                   id="id5"><rect
                     class="BoundingBox"
                     stroke="none"
                     fill="none"
                     x="14000"
                     y="7700"
                     width="9601"
                     height="1996"
                     id="rect5453" /><text
                     class="TextShape"
                     id="text5455"><tspan
                       class="TextParagraph"
                       font-family="Liberation Sans, sans-serif"
                       font-size="1199px"
                       font-weight="700"
                       id="tspan5457"><tspan
                         class="TextPosition"
                         x="14706"
                         y="9113"
                         id="tspan5459"><tspan
                           fill="rgb(1,34,105)"
                           stroke="none"
                           id="tspan5461">POWERED BY</tspan></tspan></tspan></text>
</g></g></g></g></g></g></g></g></svg>