<?xml version="1.0" encoding="UTF-8" standalone="no"?>
<svg
   xmlns:dc="http://purl.org/dc/elements/1.1/"
   xmlns:cc="http://creativecommons.org/ns#"
   xmlns:rdf="http://www.w3.org/1999/02/22-rdf-syntax-ns#"
   xmlns:svg="http://www.w3.org/2000/svg"
   xmlns="http://www.w3.org/2000/svg"
   xmlns:sodipodi="http://sodipodi.sourceforge.net/DTD/sodipodi-0.dtd"
   xmlns:inkscape="http://www.inkscape.org/namespaces/inkscape"
   version="1.2"
   width="41.5mm"
   height="41.5mm"
   viewBox="3925 8725 4150 4150"
   preserveAspectRatio="xMidYMid"
   fill-rule="evenodd"
   stroke-width="28.222"
   stroke-linejoin="round"
   xml:space="preserve"
   id="svg6196"
   inkscape:version="0.91 r13725"
   sodipodi:docname="poweredby4diac_small.svg"
   inkscape:export-filename="/home/alil/az-offlinework/4DIAC/webpage/4diac/media/poweredby4diac_small.svg.png"
   inkscape:export-xdpi="1600.61"
   inkscape:export-ydpi="1600.61"><metadata
     id="metadata6322"><rdf:RDF><cc:Work
         rdf:about=""><dc:format>image/svg+xml</dc:format><dc:type
           rdf:resource="http://purl.org/dc/dcmitype/StillImage" /></cc:Work></rdf:RDF></metadata><sodipodi:namedview
     pagecolor="#ffffff"
     bordercolor="#666666"
     borderopacity="1"
     objecttolerance="10"
     gridtolerance="10"
     guidetolerance="10"
     inkscape:pageopacity="0"
     inkscape:pageshadow="2"
     inkscape:window-width="1920"
     inkscape:window-height="1016"
     id="namedview6320"
     showgrid="false"
     inkscape:zoom="1.6049264"
     inkscape:cx="73.523622"
     inkscape:cy="73.523622"
     inkscape:window-x="0"
     inkscape:window-y="27"
     inkscape:window-maximized="1"
     inkscape:current-layer="svg6196" /><defs
     class="ClipPathGroup"
     id="defs6198"><clipPath
       id="presentation_clip_path"
       clipPathUnits="userSpaceOnUse"><rect
         x="3925"
         y="8725"
         width="4150"
         height="4150"
         id="rect6201" /></clipPath></defs><defs
     id="defs6206" /><defs
     class="TextShapeIndex"
     id="defs6231" /><defs
     class="EmbeddedBulletChars"
     id="defs6235" /><defs
     class="TextEmbeddedBitmaps"
     id="defs6267" /><g
     class="SlideGroup"
     id="g6269"><g
       id="g6271"><g
         id="container-id1"><g
           id="id1"
           class="Slide"
           clip-path="url(#presentation_clip_path)"><g
             class="Page"
             id="g6275"><g
               class="Group"
               id="g6277"><g
                 class="Group"
                 id="g6279"><g
                   class="Graphic"
                   id="g6281"><g
                     id="id3"><rect
                       class="BoundingBox"
                       stroke="none"
                       fill="none"
                       x="4600"
                       y="9402"
                       width="2801"
                       height="2801"
                       id="rect6284" /><path
                       fill="rgb(1,34,105)"
                       stroke="none"
                       d="M 6706,10177 L 6804,10069 6804,11402 6705,11402 6706,10177 Z"
                       id="path6286" /><path
                       fill="rgb(1,34,105)"
                       stroke="none"
                       d="M 4601,9402 L 6608,9402 5885,10605 4601,10605 4601,10390 4997,10390 4997,9995 4601,9995 4601,9402 Z"
                       id="path6288" /><path
                       fill="rgb(1,34,105)"
                       stroke="none"
                       d="M 5645,11003 L 5524,11204 4600,11204 4600,11003 5645,11003 Z"
                       id="path6290" /><path
                       fill="rgb(1,34,105)"
                       stroke="none"
                       d="M 6705,12202 L 6705,11902 5504,11902 5504,11402 6705,9403 6804,9403 5955,11413 6862,11526 6804,12202 6705,12202 Z"
                       id="path6292" /><path
                       fill="rgb(255,149,14)"
                       stroke="none"
                       d="M 6804,9403 L 5603,11402 5603,11804 6804,11804 6804,12202 7207,12202 7207,11804 7400,11804 7400,11402 7207,11402 7207,9403 6804,9403 6804,9403 Z M 6804,10069 L 6804,11402 6006,11402 6804,10069 6804,10069 Z"
                       id="path6294" /><path
                       fill="rgb(1,34,105)"
                       stroke="none"
                       d="M 5825,10704 L 5704,10905 4601,10905 4601,10704 C 4601,10704 5068,10704 5825,10704 L 5825,10704 Z"
                       id="path6296" /><path
                       fill="rgb(1,34,105)"
                       stroke="none"
                       d="M 5405,11402 L 5405,12001 6608,12001 6608,12202 4600,12202 4600,11303 5464,11303 5405,11402 Z"
                       id="path6298" /></g></g><g
                   class="com.sun.star.drawing.TextShape"
                   id="g6300"><g
                     id="id4"><rect
                       class="BoundingBox"
                       stroke="none"
                       fill="none"
                       x="6771"
                       y="9395"
                       width="469"
                       height="2801"
                       id="rect6303" /><text
                       class="TextShape"
                       transform="translate(7140,12123) rotate(-90) translate(-7140,-12123)"
                       id="text6305"><tspan
                         class="TextParagraph"
                         font-family="Liberation Sans, sans-serif"
                         font-size="388px"
                         font-weight="700"
                         id="tspan6307"><tspan
                           class="TextPosition"
                           x="7140"
                           y="12123"
                           id="tspan6309"><tspan
                             fill="rgb(255,255,255)"
                             stroke="none"
                             id="tspan6311">POWERED BY</tspan></tspan></tspan></text>
</g></g></g><g
                 class="com.sun.star.drawing.ClosedBezierShape"
                 id="g6313"><g
                   id="id5"><rect
                     class="BoundingBox"
                     stroke="none"
                     fill="none"
                     x="3925"
                     y="8725"
                     width="4151"
                     height="4151"
                     id="rect6316" /><path
                     fill="none"
                     stroke="rgb(1,34,105)"
                     stroke-width="150"
                     stroke-linejoin="round"
                     d="M 4000,12800 C 4000,12800 6400,12800 7000,12800 7600,12800 8000,12300 8000,11800 8000,11300 8000,10200 8000,10200 L 7500,10200 7500,9500 8000,9500 8000,8800 C 8000,8800 4900,8800 4600,8800 4300,8800 4000,9000 4000,9400 4000,9800 4000,11881 4000,12800 Z"
                     id="path6318" /></g></g></g></g></g></g></g></g></svg>