<?xml version="1.0" encoding="UTF-8" standalone="no"?>
<!-- Generator: Adobe Illustrator 17.0.0, SVG Export Plug-In . SVG Version: 6.00 Build 0)  -->

<svg
   xmlns:dc="http://purl.org/dc/elements/1.1/"
   xmlns:cc="http://creativecommons.org/ns#"
   xmlns:rdf="http://www.w3.org/1999/02/22-rdf-syntax-ns#"
   xmlns:svg="http://www.w3.org/2000/svg"
   xmlns="http://www.w3.org/2000/svg"
   xmlns:sodipodi="http://sodipodi.sourceforge.net/DTD/sodipodi-0.dtd"
   xmlns:inkscape="http://www.inkscape.org/namespaces/inkscape"
   version="1.1"
   id="svg3025"
   sodipodi:docname="conmeleon_c1_logo_neu.svg"
   inkscape:version="0.48.5 r10040"
   x="0px"
   y="0px"
   width="2652.9207"
   height="406.99323"
   viewBox="0 0 2652.9205 406.99321"
   enable-background="new 0 0 2172.433 356.752"
   xml:space="preserve"><metadata
     id="metadata26"><rdf:RDF><cc:Work
         rdf:about=""><dc:format>image/svg+xml</dc:format><dc:type
           rdf:resource="http://purl.org/dc/dcmitype/StillImage" /></cc:Work></rdf:RDF></metadata><defs
     id="defs24" /><sodipodi:namedview
     fit-margin-bottom="0"
     fit-margin-right="0"
     inkscape:window-maximized="0"
     inkscape:current-layer="layer1"
     inkscape:document-units="px"
     inkscape:pageopacity="0.0"
     inkscape:window-x="20"
     inkscape:window-y="20"
     inkscape:window-width="1154"
     inkscape:window-height="641"
     inkscape:pageshadow="2"
     fit-margin-left="0"
     id="base"
     bordercolor="#666666"
     pagecolor="#ffffff"
     borderopacity="1.0"
     inkscape:zoom="0.12374369"
     showgrid="false"
     inkscape:cy="-253.05903"
     fit-margin-top="0"
     inkscape:cx="592.31421"
     showguides="true"
     inkscape:guide-bbox="true"><sodipodi:guide
       orientation="1,0"
       position="1.4288118,575.95537"
       id="guide3809" /><sodipodi:guide
       orientation="0,1"
       position="-64.285475,347.38394"
       id="guide3811" /></sodipodi:namedview><g
     id="layer1"
     transform="translate(13.34399,-265.0049)"
     inkscape:groupmode="layer"
     inkscape:label="Ebene 1"><g
       id="g3850"
       transform="translate(22.832017,-65.377876)"><path
         id="path3830"
         inkscape:connector-curvature="0"
         d="m 271.289,416.429 c -7.308,-4.456 -20.747,-19.041 -30.456,-33.051 -6.181,-8.92 -6.218,-9.144 -2.026,-12.358 6.681,-5.122 33.595,-17.414 45.811,-20.923 l 11.066,-3.178 2.539,19.069 c 3.551,26.668 3.258,43.79 -0.85,49.654 -4.294,6.13 -16.709,6.504 -26.084,0.787 l 0,0 z"
         style="fill:#ffaaee;stroke:#606060;stroke-width:2.17680001" /><path
         id="path3832"
         inkscape:connector-curvature="0"
         d="m 329.742,429.425 c -3.815,-2.397 -7.978,-6.305 -9.251,-8.685 -3.958,-7.395 -2.643,-26.447 3.605,-52.245 l 6,-24.776 17.44,1.253 c 21.653,1.556 42.888,7.947 64.642,19.456 l 16.727,8.849 -5.843,4.47 c -3.214,2.458 -13.987,12.023 -23.941,21.255 -25.931,24.051 -39.353,32.792 -52.032,33.884 -7.789,0.671 -12.159,-0.201 -17.347,-3.461 l 0,0 0,0 z"
         style="fill:#ddafe9;stroke:#606060;stroke-width:2.17680001" /><path
         id="path3834"
         inkscape:connector-curvature="0"
         d="m 391.584,467.646 c -23.355,-5.324 -31.436,-16.831 -19.63,-27.953 6.716,-6.326 24.326,-15.487 60.304,-31.368 l 23.747,-10.482 8.362,9.423 c 4.599,5.182 11.375,14.688 15.057,21.125 6.718,11.743 17.796,37.978 16.558,39.216 -0.364,0.364 -21.173,1.166 -46.242,1.783 -33.407,0.823 -48.941,0.357 -58.156,-1.744 l 0,0 z"
         style="fill:#8080ff;stroke:#606060;stroke-width:2.17680001" /><path
         id="path3836"
         inkscape:connector-curvature="0"
         d="m 490.14,547.731 c -4.19,-1.633 -16.924,-6.574 -28.298,-10.98 -67.412,-26.113 -90.725,-44.65 -66.392,-52.788 9.611,-3.215 20.923,-2.702 73.446,3.327 l 32.087,3.683 1.415,7.54 c 1.696,9.042 -0.615,48.367 -2.975,50.607 -0.915,0.869 -5.092,0.244 -9.283,-1.389 z"
         style="fill:#aaccff;stroke:#606060;stroke-width:2.17680001" /><path
         id="path3838"
         inkscape:connector-curvature="0"
         d="m 415.943,592.99 c -38.463,-39.184 -48.445,-51.303 -51.053,-61.984 -2.169,-8.886 6.05,-12.066 22.547,-8.726 11.932,2.416 88.603,39.289 100.467,48.318 l 5.384,4.097 -9.208,18.127 c -8.519,16.769 -24.743,38.806 -28.571,38.806 -0.901,-0.001 -18.706,-17.388 -39.566,-38.638 l 0,0 z"
         style="fill:#aaeeff;stroke:#606060;stroke-width:2.17680001" /><path
         id="path3840"
         inkscape:connector-curvature="0"
         d="m 316.66,664.823 c 0.003,-11.673 -1.727,-37.152 -3.845,-56.619 -6.137,-56.4 -2.884,-74.644 13.6,-76.292 19.052,-1.904 37.485,17.712 82.448,87.743 25.813,40.205 26.266,35.382 -4.704,50.112 -23.781,11.311 -44.905,16.28 -69.214,16.28 h -18.289 l 0.004,-21.224 0,0 0,0 z"
         style="fill:#d5ffe6;stroke:#606060;stroke-width:2.17680001" /><path
         id="path3842"
         inkscape:connector-curvature="0"
         d="M 253.673,667.816 C 219.394,649.473 190.874,620.054 176.366,588.07 l -3.466,-7.64 30.433,-26.627 c 34.584,-30.259 53.01,-41.141 66.073,-39.021 18.186,2.951 26.242,15.509 23.983,37.387 -0.742,7.187 -6.247,30.699 -12.234,52.249 -5.987,21.55 -11.616,46.238 -12.51,54.862 l -1.625,15.68 -13.347,-7.144 0,0 z"
         style="fill:#eeffaa;stroke:#606060;stroke-width:2.17680001" /><path
         id="path3844"
         inkscape:connector-curvature="0"
         d="m 160.283,528.173 c -1.401,-14.955 1.555,-48.624 4.719,-53.744 0.944,-1.527 10.765,-1.929 29.033,-1.188 31.359,1.272 45.98,5.83 50.496,15.742 5.176,11.36 -8.929,22.209 -56.298,43.304 l -26.46,11.783 -1.49,-15.897 z"
         style="fill:#ffeeaa;stroke:#606060;stroke-width:2.17680001" /><path
         id="path3846"
         inkscape:connector-curvature="0"
         d="m 178.317,460.253 c -4.49,-0.47 -8.163,-1.771 -8.163,-2.893 0,-4.347 16.068,-34.703 18.369,-34.703 1.338,0 9.263,3.29 17.609,7.31 15.446,7.44 27.148,17.06 27.148,22.317 0.001,8.014 -22.856,11.327 -54.963,7.969 z"
         style="fill:#ffb380;stroke:#606060;stroke-width:2.17680001" /><path
         id="path3848"
         inkscape:connector-curvature="0"
         d="m 221.308,426.202 c -7.183,-2.714 -16.391,-7.003 -20.462,-9.53 l -7.401,-4.595 13.771,-14.341 13.771,-14.341 6.423,6.026 c 11.715,10.992 23.285,27.024 23.285,32.266 0,5.418 -5.614,9.757 -12.373,9.563 -2.175,-0.062 -9.83,-2.334 -17.014,-5.048 l 0,0 z"
         style="fill:#ff8080;stroke:#606060;stroke-width:2.17680001" /></g><path
       id="rect2985"
       inkscape:connector-curvature="0"
       d="m 1749.53,324.505 c -33.24,0 -60,17.84 -60,40 v 170 c 0,22.16 26.76,40 60,40 h 100 c 33.24,0 60,-17.84 60,-40 v -170 c 0,-22.16 -26.76,-40 -60,-40 l -100,0 0,0 z m 9.5,21.531 h 80.969 c 26.917,0 48.594,14.749 48.594,33.094 v 140.75 c 0,18.345 -21.677,33.094 -48.594,33.094 h -80.969 c -26.917,0 -48.594,-14.749 -48.594,-33.094 V 379.13 c 0,-18.345 21.678,-33.094 48.594,-33.094 l 0,0 z"
       style="fill:#606060;stroke:#b7b7b7" /><path
       id="rect2985-0"
       inkscape:connector-curvature="0"
       d="m 1194.286,324.505 c -33.24,0 -60,17.84 -60,40 v 170 c 0,22.16 26.76,40 60,40 h 84.375 v -0.125 h 43.562 v -21.438 h -61.031 v 0.031 h -57.406 c -26.917,0 -48.594,-14.749 -48.594,-33.094 v -42.781 h 177 v -0.031 h 22.094 V 364.505 c 0,-22.16 -26.76,-40 -60,-40 l -100,0 0,0 z m 9.5,21.531 h 80.969 c 26.917,0 48.594,14.749 48.594,33.094 v 77.062 H 1155.193 V 379.13 c -10e-4,-18.345 21.676,-33.094 48.593,-33.094 z"
       style="fill:#606060;stroke:#b7b7b7" /><path
       id="rect2985-0-2"
       inkscape:connector-curvature="0"
       d="m 858.194,324.755 c -33.24,0 -60,17.84 -60,40 v 150.5 19.5 39.5 h 20.844 V 512.661 H 819.1 V 379.38 c 0,-18.345 21.677,-33.094 48.594,-33.094 h 9.969 1.312 14 c 26.075,0 47.234,13.863 48.531,31.406 v 137.563 19.5 39.5 h 0.062 20.875 0.062 v -39.5 -19.5 -137.563 c 1.297,-17.543 22.456,-31.406 48.531,-31.406 h 15.312 8.812 c 26.917,0 48.594,14.749 48.594,33.094 v 133.281 h 0.062 v 61.594 h 20.844 v -39.5 -19.5 -150.5 c 0,-22.16 -26.76,-40 -60,-40 h -18.312 -24.844 c -20.603,0 -38.705,6.886 -49.5,17.375 -10.794,-10.49 -28.895,-17.375 -49.5,-17.375 h -23.531 -1.312 l -19.467,0 0,0 z"
       style="fill:#606060;stroke:#b7b7b7" /><path
       id="rect2985-8"
       inkscape:connector-curvature="0"
       d="m 608,324.755 c -33.24,0 -60,17.84 -60,40 v 150.5 19.5 39.5 h 20.844 v -61.594 h 0.062 V 379.38 c 0,-18.345 21.677,-33.094 48.594,-33.094 h 80.969 c 26.917,0 48.594,14.749 48.594,33.094 v 133.281 2.594 59 H 768 v -39.5 -19.5 -150.5 c 0,-22.16 -26.76,-40 -60,-40 l -100,0 0,0 z"
       style="fill:#606060;stroke:#b7b7b7" /><path
       id="rect2985-02"
       inkscape:connector-curvature="0"
       d="m 1386.839,265.635 v 213.867 31.356 63.517 h 20.584 v -99.044 h 0.062 V 265.635 l -20.646,0 0,0 z"
       style="fill:#606060;stroke:#b7b7b7;stroke-width:1.26020002" /><path
       id="rect2985-3"
       inkscape:connector-curvature="0"
       d="m 47.156,324.505 c -33.24,0 -60,17.84 -60,40 v 170 c 0,22.16 26.76,40 60,40 h 100 c 16.794,0 31.911,-4.542 42.781,-11.906 -5.796,-6.502 -11.121,-13.442 -15.875,-20.781 -8.892,6.859 -21.886,11.156 -36.438,11.156 H 56.656 C 29.739,552.974 8.062,538.225 8.062,519.88 V 379.13 c 0,-18.345 21.677,-33.094 48.594,-33.094 h 80.969 c 14.552,0 27.546,4.328 36.438,11.188 4.754,-7.34 10.079,-14.28 15.875,-20.781 -10.87,-7.364 -25.987,-11.938 -42.781,-11.938 l -100.001,0 0,0 z"
       style="fill:#606060;stroke:#b7b7b7" /><path
       id="rect2985-0-3"
       inkscape:connector-curvature="0"
       d="m 1497.564,324.505 c -33.24,0 -60,17.84 -60,40 v 170 c 0,22.16 26.76,40 60,40 h 84.375 v -0.125 h 43.562 v -21.438 h -61.031 v 0.031 h -57.406 c -26.917,0 -48.594,-14.749 -48.594,-33.094 v -42.781 h 177 v -0.031 h 22.094 V 364.505 c 0,-22.16 -26.76,-40 -60,-40 l -100,0 0,0 z m 9.5,21.531 h 80.969 c 26.917,0 48.594,14.749 48.594,33.094 v 77.062 H 1458.47 V 379.13 c 0,-18.345 21.677,-33.094 48.594,-33.094 z"
       style="fill:#606060;stroke:#b7b7b7" /><path
       id="rect2985-8-6"
       inkscape:connector-curvature="0"
       d="m 1998.59,325.005 c -33.24,0 -60,17.84 -60,40 v 150.5 19.5 39.5 h 20.844 v -61.594 h 0.062 V 379.63 c 0,-18.345 21.677,-33.094 48.594,-33.094 h 80.969 c 26.917,0 48.594,14.749 48.594,33.094 v 133.281 2.594 59 h 20.938 v -39.5 -19.5 -150.5 c 0,-22.16 -26.76,-40 -60,-40 l -100.001,0 0,0 z"
       style="fill:#606060;stroke:#b7b7b7" /><g
       id="g3803"
       transform="translate(1.9999999,49.999999)"><path
         inkscape:connector-curvature="0"
         id="rect2985-4"
         d="m 2539.9651,274.96302 0,29.69287 1.0343,0 c 37.1196,0 67.0136,20.33946 67.0136,45.63824 l 0,183.80274 0,3.57694 0,81.36449 28.8741,0 0,-54.47284 0,-26.89165 0,-207.54842 c 0,-30.55995 -36.9037,-55.16237 -82.7436,-55.16237 l -14.1784,0 z"
         style="fill:#606060;fill-opacity:1;stroke:#b7b7b7;stroke-width:1.3790592;stroke-opacity:1" /><path
         inkscape:connector-curvature="0"
         id="rect2985-82"
         d="m 2374.2513,274.71666 c -46.0824,0 -83.1812,24.73255 -83.1812,55.45413 l 0,235.68003 c 0,30.72158 37.0988,55.45412 83.1812,55.45412 l 125.0751,0 0,-29.84991 -111.9048,0 c -37.3158,0 -67.368,-20.44704 -67.368,-45.87963 l 0,-195.12919 c 0,-25.4326 30.0522,-45.87963 67.368,-45.87963 l 111.9048,0 0,-29.84992 -125.0751,0 z"
         style="fill:#606060;fill-opacity:1;stroke:#b7b7b7;stroke-width:1.38635314;stroke-opacity:1" /></g></g></svg>