<?xml version="1.0" encoding="UTF-8" standalone="no"?>
<!-- Created with Inkscape (http://www.inkscape.org/) -->

<svg
   xmlns:dc="http://purl.org/dc/elements/1.1/"
   xmlns:cc="http://creativecommons.org/ns#"
   xmlns:rdf="http://www.w3.org/1999/02/22-rdf-syntax-ns#"
   xmlns:svg="http://www.w3.org/2000/svg"
   xmlns="http://www.w3.org/2000/svg"
   xmlns:sodipodi="http://sodipodi.sourceforge.net/DTD/sodipodi-0.dtd"
   xmlns:inkscape="http://www.inkscape.org/namespaces/inkscape"
   id="svg2985"
   version="1.1"
   inkscape:version="0.48.5 r10040"
   width="360.68634"
   height="101.11961"
   xml:space="preserve"
   sodipodi:docname="4diac_logo (1).svg"><metadata
     id="metadata2991"><rdf:RDF><cc:Work
         rdf:about=""><dc:format>image/svg+xml</dc:format><dc:type
           rdf:resource="http://purl.org/dc/dcmitype/StillImage" /><dc:title></dc:title></cc:Work></rdf:RDF></metadata><defs
     id="defs2989"><clipPath
       clipPathUnits="userSpaceOnUse"
       id="clipPath2999"><path
         d="m 0,0.4 1683.7,0 0,1190.5 L 0,1190.9 0,0.4 Z"
         id="path3001"
         inkscape:connector-curvature="0"
         style="clip-rule:evenodd" /></clipPath><clipPath
       clipPathUnits="userSpaceOnUse"
       id="clipPath3513"><path
         d="m 842,-76 0,0 0,1342.1 0,0 0,-1342.1 z"
         id="path3515"
         inkscape:connector-curvature="0" /></clipPath></defs><sodipodi:namedview
     pagecolor="#ffffff"
     bordercolor="#666666"
     borderopacity="1"
     objecttolerance="10"
     gridtolerance="10000"
     guidetolerance="10000"
     inkscape:pageopacity="0"
     inkscape:pageshadow="2"
     inkscape:window-width="1920"
     inkscape:window-height="1138"
     id="namedview2987"
     showgrid="false"
     inkscape:zoom="2"
     inkscape:cx="242.74179"
     inkscape:cy="84.075377"
     inkscape:window-x="-8"
     inkscape:window-y="217"
     inkscape:window-maximized="1"
     inkscape:current-layer="g2993"
     inkscape:snap-to-guides="true"
     inkscape:snap-grids="true"
     inkscape:snap-others="false"
     inkscape:snap-page="false"
     inkscape:snap-perpendicular="true"
     inkscape:snap-tangential="false"
     fit-margin-top="0"
     fit-margin-left="0"
     fit-margin-right="0"
     fit-margin-bottom="0"><inkscape:grid
       type="xygrid"
       id="grid3388"
       dotted="false"
       originx="-34.977459"
       originy="-1194.0127" /></sodipodi:namedview><g
     id="g2993"
     inkscape:groupmode="layer"
     inkscape:label="Logo_New"
     transform="matrix(1.25,0,0,-1.25,-34.977459,1295.1324)"><g
       id="g3509"><g
         id="g3511" /><g
         id="g3517"><g
           clip-path="url(#clipPath3513)"
           id="g3519"
           style="opacity:0.5"><g
             id="g3521" /></g></g></g><g
       id="g3377"
       transform="translate(-0.40005084,-0.22860048)"><g
         id="g3426"
         transform="translate(1.0030859e-6,0)"><path
           d="m 87.961895,1014.2514 2.791789,3.0654 0,-37.8 -2.8,0 z"
           style="fill:#012269;fill-opacity:1;fill-rule:evenodd;stroke:none"
           id="path3015-8"
           inkscape:connector-curvature="0"
           sodipodi:nodetypes="ccccc" /><path
           sodipodi:nodetypes="ccccccccc"
           inkscape:connector-curvature="0"
           id="path3405"
           style="fill:#012269;fill-opacity:1;fill-rule:evenodd;stroke:none"
           d="m 28.399659,1036.233 56.802952,-0.01 -20.45875,-34.1116 -36.347669,-0.01 0.0046,6.1159 11.202097,0 -0.0015,11.1961 -11.200343,0 z" /><path
           sodipodi:nodetypes="ccccc"
           d="m 57.938574,990.81729 -3.419682,-5.70013 -26.124155,-2.2e-4 -0.01272,5.70363 z"
           style="fill:#012269;fill-opacity:1;fill-rule:evenodd;stroke:none"
           id="path3005-3"
           inkscape:connector-curvature="0" /><path
           d="m 87.953684,956.81679 0,8.5 -34,0 0,14.20001 34,56.7 2.8,0 -24.041631,-57.02412 25.667977,-3.19764 -1.626346,-19.17825 z"
           style="fill:#012269;fill-opacity:1;fill-rule:evenodd;stroke:none"
           id="path3009-8"
           inkscape:connector-curvature="0"
           sodipodi:nodetypes="cccccccccc" /><path
           style="fill:#ff950e;fill-opacity:1;fill-rule:evenodd;stroke:none"
           d="m 77.964844,0.32421875 -42.5,70.87500025 0,14.25 42.5,0 0,14.125 14.25,0 0,-14.125 6.816406,0.0039 -0.0039,-14.257813 -6.8125,0.0039 0,-70.87500025 -14.25,0 z m 0,23.62500025 0,47.25 -28.25,0 28.25,-47.25 z"
           transform="matrix(0.8,0,0,-0.8,28.382017,1036.4759)"
           id="path3011-3"
           inkscape:connector-curvature="0" /><path
           inkscape:connector-curvature="0"
           id="path3411"
           style="fill:#012269;fill-opacity:1;fill-rule:evenodd;stroke:none"
           d="m 63.036042,999.31163 -3.41516,-5.69507 -31.218548,6.2e-4 -0.0054,5.69876 c 0,0 13.223376,-8.8e-4 34.648468,-8.8e-4 z"
           sodipodi:nodetypes="cccccc" /><path
           inkscape:connector-curvature="0"
           id="path3413"
           style="fill:#012269;fill-opacity:1;fill-rule:evenodd;stroke:none"
           d="m 51.150596,979.51527 0.0031,-16.99924 34.042178,0.004 -0.0422,-5.49649 -56.753125,0 -4.3e-4,25.29761 24.434827,-0.005 z"
           sodipodi:nodetypes="cccccccc" /></g></g><path
       sodipodi:nodetypes="ccccccscscsccccscssascc"
       inkscape:connector-curvature="0"
       id="path4994"
       style="font-size:104px;font-style:normal;font-variant:normal;font-weight:bold;font-stretch:normal;line-height:125%;letter-spacing:-4.4000001px;word-spacing:0px;fill:#012269;fill-opacity:1;stroke:none;font-family:TeXGyreAdventor;-inkscape-font-specification:TeXGyreAdventor Bold"
       d="m 170.744,956.55267 0,79.55323 -12.50609,0 0,-27.426 c -2.11559,2.2386 -4.76942,3.9806 -7.9615,5.2257 -3.19217,1.2451 -6.67006,1.8773 -10.43368,1.8967 -8.4378,-0.2021 -15.40688,-3.1527 -20.90725,-8.8513 -5.50039,-5.6987 -8.34917,-12.93291 -8.54631,-21.70247 0.1883,-8.65779 3.02822,-15.78017 8.51974,-21.36708 5.4915,-5.58692 12.50487,-8.47715 21.04015,-8.67069 3.94748,-0.0216 7.48298,0.66665 10.60647,2.06445 3.12342,1.39779 6.0741,3.63428 8.85202,6.70947 l 0,-7.43201 z m -10.87955,28.89576 c -0.12987,-5.71423 -1.99709,-10.42521 -5.60169,-14.13284 -3.60468,-3.70771 -8.1679,-5.62697 -13.68965,-5.75783 -5.69906,0.13569 -10.3871,2.10343 -14.06411,5.90323 -3.67705,3.79976 -5.70651,8.61603 -5.70651,14.45274 0,5.59919 2.04532,10.31265 5.61667,13.87106 3.48462,3.47201 8.21362,5.66931 13.79448,5.67051 5.69552,0 10.36204,-2.0527 14.00418,-5.77228 3.64204,-3.71986 5.52424,-8.46468 5.64663,-14.23459 z" /><path
       sodipodi:nodetypes="cccccccccc"
       inkscape:connector-curvature="0"
       id="path4996"
       style="font-size:104px;font-style:normal;font-variant:normal;font-weight:bold;font-stretch:normal;line-height:125%;letter-spacing:-4.4000001px;word-spacing:0px;fill:#012269;fill-opacity:1;stroke:none;font-family:TeXGyreAdventor;-inkscape-font-specification:TeXGyreAdventor Bold"
       d="m 188.4516,956.55864 0,62.14866 -12.50611,0 0,-62.14866 z m 0.10632,67.29476 0,12.2274 -12.50609,0 0,-12.2274 z" /><path
       sodipodi:nodetypes="ccscscsccccccscscscc"
       inkscape:connector-curvature="0"
       id="path5000"
       style="font-size:104px;font-style:normal;font-variant:normal;font-weight:bold;font-stretch:normal;line-height:125%;letter-spacing:-4.4000001px;word-spacing:0px;fill:#012269;fill-opacity:1;stroke:none;font-family:TeXGyreAdventor;-inkscape-font-specification:TeXGyreAdventor Bold"
       d="m 314.93105,974.27608 -13.07494,0.014 c -1.91696,-2.99081 -4.06981,-5.17807 -6.45849,-6.56164 -2.3888,-1.38362 -5.19041,-2.06682 -8.40487,-2.04962 -5.53937,0.1155 -10.06129,2.00782 -13.56577,5.67698 -3.50449,3.66916 -5.31326,8.42205 -5.42627,14.25881 0.098,5.8268 1.84807,10.54042 5.24933,14.1407 3.40126,3.60039 7.86418,5.45339 13.38881,5.55899 3.5315,0 6.55429,-0.7398 9.06842,-2.2263 2.51403,-1.4871 4.56365,-3.73329 6.14884,-6.73875 l 12.99378,-0.027 c -2.3564,6.66425 -5.39868,10.55105 -10.5878,14.09545 -5.1892,3.5442 -11.12899,5.3325 -17.81937,5.3653 -8.76395,-0.198 -15.98743,-3.1178 -21.67047,-8.7596 -5.68307,-5.6415 -8.62467,-12.8173 -8.82483,-21.52675 0.21756,-8.61819 3.2288,-15.76768 9.0337,-21.44855 5.80488,-5.68088 13.09799,-8.62684 21.87934,-8.83789 6.79046,0.0392 12.66064,1.81457 17.61052,5.32625 4.94977,3.51163 8.00359,7.22596 10.46007,13.7402 z" /><path
       sodipodi:nodetypes="ccccccscscsccccscssascc"
       inkscape:connector-curvature="0"
       id="path4994-4"
       style="font-size:104px;font-style:normal;font-variant:normal;font-weight:bold;font-stretch:normal;line-height:125%;letter-spacing:-4.4000001px;word-spacing:0px;fill:#012269;fill-opacity:1;stroke:none;font-family:TeXGyreAdventor;-inkscape-font-specification:TeXGyreAdventor Bold"
       d="m 252.43009,956.55269 0,60.40091 -12.5061,0 0,-8.2737 c -2.11558,2.2386 -4.76942,3.9806 -7.9615,5.2258 -3.19216,1.2451 -6.67006,1.8773 -10.43367,1.8966 -8.4378,-0.2021 -15.40689,-3.1526 -20.90725,-8.8513 -5.5004,-5.6987 -8.34918,-12.93292 -8.54632,-21.70248 0.18829,-8.65779 3.02821,-15.78015 8.51974,-21.36705 5.49151,-5.58688 12.50488,-8.47716 21.04015,-8.6707 3.94748,-0.0219 7.48297,0.6667 10.60648,2.06447 3.12341,1.39779 6.07408,3.63427 8.852,6.70945 l 0,-7.432 z m -10.87958,28.89574 c -0.12985,-5.71425 -1.99707,-10.42511 -5.60167,-14.13284 -3.60469,-3.70765 -8.1679,-5.62702 -13.68964,-5.75783 -5.69907,0.13569 -10.38711,2.10349 -14.06411,5.90323 -3.67705,3.79974 -5.70651,8.61602 -5.70651,14.45274 0,5.59919 2.04531,10.31275 5.61665,13.87106 3.48464,3.47191 8.21362,5.66931 13.79449,5.67051 5.69552,0 10.36205,-2.0526 14.00419,-5.77218 3.64203,-3.71997 5.52422,-8.46478 5.6466,-14.23469 z" /></g></svg>