<?xml version="1.0" encoding="UTF-8"?>

<svg version="1.2" baseProfile="tiny" width="132.01mm" height="52.02mm" viewBox="22201 21999 13201 5202" preserveAspectRatio="xMidYMid" fill-rule="evenodd" stroke-width="28.222" stroke-linejoin="round" xmlns="http://www.w3.org/2000/svg" xmlns:ooo="http://xml.openoffice.org/svg/export" xmlns:xlink="http://www.w3.org/1999/xlink" xml:space="preserve">
 <defs class="ClipPathGroup">
  <clipPath id="presentation_clip_path" clipPathUnits="userSpaceOnUse">
   <rect x="22201" y="21999" width="13201" height="5202"/>
  </clipPath>
 </defs>
 <defs class="TextShapeIndex">
  <g ooo:slide="id1" ooo:id-list="id3 id4 id5 id6 id7 id8 id9 id10 id11 id12 id13 id14 id15 id16 id17 id18 id19 id20 id21 id22 id23 id24 id25 id26 id27 id28 id29 id30 id31 id32 id33 id34 id35 id36 id37 id38 id39 id40 id41 id42 id43 id44 id45 id46 id47 id48 id49 id50 id51 id52 id53 id54 id55 id56 id57 id58 id59 id60 id61 id62"/>
 </defs>
 <defs class="EmbeddedBulletChars">
  <g id="bullet-char-template(57356)" transform="scale(0.00048828125,-0.00048828125)">
   <path d="M 580,1141 L 1163,571 580,0 -4,571 580,1141 Z"/>
  </g>
  <g id="bullet-char-template(57354)" transform="scale(0.00048828125,-0.00048828125)">
   <path d="M 8,1128 L 1137,1128 1137,0 8,0 8,1128 Z"/>
  </g>
  <g id="bullet-char-template(10146)" transform="scale(0.00048828125,-0.00048828125)">
   <path d="M 174,0 L 602,739 174,1481 1456,739 174,0 Z M 1358,739 L 309,1346 659,739 1358,739 Z"/>
  </g>
  <g id="bullet-char-template(10132)" transform="scale(0.00048828125,-0.00048828125)">
   <path d="M 2015,739 L 1276,0 717,0 1260,543 174,543 174,936 1260,936 717,1481 1274,1481 2015,739 Z"/>
  </g>
  <g id="bullet-char-template(10007)" transform="scale(0.00048828125,-0.00048828125)">
   <path d="M 0,-2 C -7,14 -16,27 -25,37 L 356,567 C 262,823 215,952 215,954 215,979 228,992 255,992 264,992 276,990 289,987 310,991 331,999 354,1012 L 381,999 492,748 772,1049 836,1024 860,1049 C 881,1039 901,1025 922,1006 886,937 835,863 770,784 769,783 710,716 594,584 L 774,223 C 774,196 753,168 711,139 L 727,119 C 717,90 699,76 672,76 641,76 570,178 457,381 L 164,-76 C 142,-110 111,-127 72,-127 30,-127 9,-110 8,-76 1,-67 -2,-52 -2,-32 -2,-23 -1,-13 0,-2 Z"/>
  </g>
  <g id="bullet-char-template(10004)" transform="scale(0.00048828125,-0.00048828125)">
   <path d="M 285,-33 C 182,-33 111,30 74,156 52,228 41,333 41,471 41,549 55,616 82,672 116,743 169,778 240,778 293,778 328,747 346,684 L 369,508 C 377,444 397,411 428,410 L 1163,1116 C 1174,1127 1196,1133 1229,1133 1271,1133 1292,1118 1292,1087 L 1292,965 C 1292,929 1282,901 1262,881 L 442,47 C 390,-6 338,-33 285,-33 Z"/>
  </g>
  <g id="bullet-char-template(9679)" transform="scale(0.00048828125,-0.00048828125)">
   <path d="M 813,0 C 632,0 489,54 383,161 276,268 223,411 223,592 223,773 276,916 383,1023 489,1130 632,1184 813,1184 992,1184 1136,1130 1245,1023 1353,916 1407,772 1407,592 1407,412 1353,268 1245,161 1136,54 992,0 813,0 Z"/>
  </g>
  <g id="bullet-char-template(8226)" transform="scale(0.00048828125,-0.00048828125)">
   <path d="M 346,457 C 273,457 209,483 155,535 101,586 74,649 74,723 74,796 101,859 155,911 209,963 273,989 346,989 419,989 480,963 531,910 582,859 608,796 608,723 608,648 583,586 532,535 482,483 420,457 346,457 Z"/>
  </g>
  <g id="bullet-char-template(8211)" transform="scale(0.00048828125,-0.00048828125)">
   <path d="M -4,459 L 1135,459 1135,606 -4,606 -4,459 Z"/>
  </g>
 </defs>
 <defs class="TextEmbeddedBitmaps"/>
 <g class="SlideGroup">
  <g>
   <g id="id1" class="Slide" clip-path="url(#presentation_clip_path)">
    <g class="Page">
     <g class="com.sun.star.drawing.CustomShape">
      <g id="id3">
       <path fill="rgb(234,234,234)" stroke="none" d="M 22674,21999 C 22437,21999 22201,22235 22201,22472 L 22201,26727 C 22201,26964 22437,27201 22674,27201 L 34928,27201 C 35165,27201 35402,26964 35402,26727 L 35402,22472 C 35402,22235 35165,21999 34928,21999 L 22674,21999 Z M 22201,21999 L 22201,21999 Z M 35402,27201 L 35402,27201 Z"/>
      </g>
     </g>
     <g class="com.sun.star.drawing.CustomShape">
      <g id="id4">
       <path fill="rgb(255,255,255)" stroke="none" d="M 31378,22801 C 31291,22801 31204,22888 31204,22975 L 31204,26627 C 31204,26714 31291,26802 31378,26802 L 34824,26802 C 34911,26802 34998,26714 34998,26627 L 34998,22975 C 34998,22888 34911,22801 34824,22801 L 31378,22801 Z M 31204,22801 L 31204,22801 Z M 34999,26802 L 34999,26802 Z"/>
      </g>
     </g>
     <g class="com.sun.star.drawing.LineShape">
      <g id="id5">
       <path fill="none" stroke="rgb(0,69,138)" stroke-width="100" stroke-linejoin="round" d="M 31301,24801 L 34901,24801"/>
      </g>
     </g>
     <g class="com.sun.star.drawing.LineShape">
      <g id="id6">
       <path fill="none" stroke="rgb(0,69,138)" stroke-width="100" stroke-linejoin="round" d="M 31901,24801 L 31895,23201"/>
      </g>
     </g>
     <g class="com.sun.star.drawing.CustomShape">
      <g id="id7">
       <path fill="rgb(0,69,138)" stroke="none" d="M 31411,23001 C 31378,23001 31345,23034 31345,23067 L 31345,23335 C 31345,23368 31378,23402 31411,23402 L 32379,23402 C 32412,23402 32446,23368 32446,23335 L 32446,23067 C 32446,23034 32412,23001 32379,23001 L 31411,23001 Z M 31345,23001 L 31345,23001 Z M 32446,23402 L 32446,23402 Z"/>
      </g>
     </g>
     <g class="Group">
      <g class="com.sun.star.drawing.CustomShape">
       <g id="id8">
        <path fill="rgb(0,137,209)" stroke="none" d="M 22689,22800 C 22648,22800 22607,22841 22607,22882 L 22607,26719 C 22607,26760 22648,26802 22689,26802 L 24325,26802 C 24366,26802 24407,26760 24407,26719 L 24407,22882 C 24407,22841 24366,22800 24325,22800 L 22689,22800 Z M 22607,22800 L 22607,22800 Z M 24408,26802 L 24408,26802 Z"/>
       </g>
      </g>
      <g class="Group">
       <g class="com.sun.star.drawing.LineShape">
        <g id="id9">
         <path fill="none" stroke="rgb(0,69,138)" stroke-width="200" stroke-linejoin="round" d="M 22807,23101 L 24207,23101"/>
        </g>
       </g>
       <g class="com.sun.star.drawing.LineShape">
        <g id="id10">
         <path fill="none" stroke="rgb(1,34,105)" stroke-width="200" stroke-linejoin="round" d="M 23107,23401 L 24207,23401"/>
        </g>
       </g>
       <g class="com.sun.star.drawing.LineShape">
        <g id="id11">
         <path fill="none" stroke="rgb(234,234,234)" stroke-width="200" stroke-linejoin="round" d="M 23107,23701 L 24207,23701"/>
        </g>
       </g>
       <g class="com.sun.star.drawing.LineShape">
        <g id="id12">
         <path fill="none" stroke="rgb(1,34,105)" stroke-width="200" stroke-linejoin="round" d="M 23107,26401 L 24207,26401"/>
        </g>
       </g>
       <g class="com.sun.star.drawing.LineShape">
        <g id="id13">
         <path fill="none" stroke="rgb(234,234,234)" stroke-width="200" stroke-linejoin="round" d="M 23507,26101 L 24207,26101"/>
        </g>
       </g>
       <g class="com.sun.star.drawing.LineShape">
        <g id="id14">
         <path fill="none" stroke="rgb(234,234,234)" stroke-width="200" stroke-linejoin="round" d="M 23507,25501 L 24207,25501"/>
        </g>
       </g>
       <g class="com.sun.star.drawing.LineShape">
        <g id="id15">
         <path fill="none" stroke="rgb(0,69,138)" stroke-width="200" stroke-linejoin="round" d="M 23107,24901 L 24207,24901"/>
        </g>
       </g>
       <g class="com.sun.star.drawing.LineShape">
        <g id="id16">
         <path fill="none" stroke="rgb(1,34,105)" stroke-width="200" stroke-linejoin="round" d="M 23107,24301 L 24207,24301"/>
        </g>
       </g>
       <g class="com.sun.star.drawing.LineShape">
        <g id="id17">
         <path fill="none" stroke="rgb(0,69,138)" stroke-width="200" stroke-linejoin="round" d="M 23507,25201 L 24207,25201"/>
        </g>
       </g>
       <g class="com.sun.star.drawing.LineShape">
        <g id="id18">
         <path fill="none" stroke="rgb(1,34,105)" stroke-width="200" stroke-linejoin="round" d="M 23107,25801 L 24207,25801"/>
        </g>
       </g>
       <g class="com.sun.star.drawing.LineShape">
        <g id="id19">
         <path fill="none" stroke="rgb(0,69,138)" stroke-width="200" stroke-linejoin="round" d="M 22807,24601 L 24207,24601"/>
        </g>
       </g>
       <g class="com.sun.star.drawing.LineShape">
        <g id="id20">
         <path fill="none" stroke="rgb(0,69,138)" stroke-width="200" stroke-linejoin="round" d="M 23507,24001 L 24207,24001"/>
        </g>
       </g>
      </g>
     </g>
     <g class="com.sun.star.drawing.CustomShape">
      <g id="id21">
       <path fill="rgb(255,255,255)" stroke="none" d="M 24791,22801 C 24699,22801 24607,22893 24607,22985 L 24607,26617 C 24607,26709 24699,26801 24791,26801 L 30823,26801 C 30915,26801 31008,26709 31008,26617 L 31008,22985 C 31008,22893 30915,22801 30823,22801 L 24791,22801 Z M 24607,22801 L 24607,22801 Z M 31008,26802 L 31008,26802 Z"/>
      </g>
     </g>
     <g class="com.sun.star.drawing.LineShape">
      <g id="id22">
       <path fill="none" stroke="rgb(0,69,138)" stroke-width="100" stroke-linejoin="round" d="M 34301,24801 L 34300,24101"/>
      </g>
     </g>
     <g class="com.sun.star.drawing.CustomShape">
      <g id="id23">
       <path fill="rgb(0,69,138)" stroke="none" d="M 33816,23901 C 33783,23901 33750,23934 33750,23967 L 33750,24235 C 33750,24268 33783,24302 33816,24302 L 34784,24302 C 34817,24302 34851,24268 34851,24235 L 34851,23967 C 34851,23934 34817,23901 34784,23901 L 33816,23901 Z M 33750,23901 L 33750,23901 Z M 34851,24302 L 34851,24302 Z"/>
      </g>
     </g>
     <g class="com.sun.star.drawing.LineShape">
      <g id="id24">
       <path fill="none" stroke="rgb(0,69,138)" stroke-width="100" stroke-linejoin="round" d="M 33501,24801 L 33495,23201"/>
      </g>
     </g>
     <g class="com.sun.star.drawing.CustomShape">
      <g id="id25">
       <path fill="rgb(0,69,138)" stroke="none" d="M 33011,23001 C 32978,23001 32945,23034 32945,23067 L 32945,23335 C 32945,23368 32978,23402 33011,23402 L 33979,23402 C 34012,23402 34046,23368 34046,23335 L 34046,23067 C 34046,23034 34012,23001 33979,23001 L 33011,23001 Z M 32945,23001 L 32945,23001 Z M 34046,23402 L 34046,23402 Z"/>
      </g>
     </g>
     <g class="com.sun.star.drawing.LineShape">
      <g id="id26">
       <path fill="none" stroke="rgb(0,69,138)" stroke-width="100" stroke-linejoin="round" d="M 32696,24801 L 32695,24101"/>
      </g>
     </g>
     <g class="com.sun.star.drawing.CustomShape">
      <g id="id27">
       <path fill="rgb(0,69,138)" stroke="none" d="M 32211,23901 C 32178,23901 32145,23934 32145,23967 L 32145,24235 C 32145,24268 32178,24302 32211,24302 L 33179,24302 C 33212,24302 33246,24268 33246,24235 L 33246,23967 C 33246,23934 33212,23901 33179,23901 L 32211,23901 Z M 32145,23901 L 32145,23901 Z M 33246,24302 L 33246,24302 Z"/>
      </g>
     </g>
     <g class="com.sun.star.drawing.LineShape">
      <g id="id28">
       <path fill="none" stroke="rgb(0,69,138)" stroke-width="100" stroke-linejoin="round" d="M 32201,24801 L 32193,26301"/>
      </g>
     </g>
     <g class="com.sun.star.drawing.CustomShape">
      <g id="id29">
       <path fill="rgb(0,69,138)" stroke="none" d="M 31709,26501 C 31676,26501 31643,26468 31643,26435 L 31643,26167 C 31643,26134 31676,26100 31709,26100 L 32677,26100 C 32710,26100 32744,26134 32744,26167 L 32744,26435 C 32744,26468 32710,26501 32677,26501 L 31709,26501 Z M 31643,26501 L 31643,26501 Z M 32744,26100 L 32744,26100 Z"/>
      </g>
     </g>
     <g class="com.sun.star.drawing.LineShape">
      <g id="id30">
       <path fill="none" stroke="rgb(0,69,138)" stroke-width="100" stroke-linejoin="round" d="M 33901,24801 L 33902,26301"/>
      </g>
     </g>
     <g class="com.sun.star.drawing.CustomShape">
      <g id="id31">
       <path fill="rgb(0,69,138)" stroke="none" d="M 33418,26501 C 33385,26501 33352,26468 33352,26435 L 33352,26167 C 33352,26134 33385,26100 33418,26100 L 34386,26100 C 34419,26100 34453,26134 34453,26167 L 34453,26435 C 34453,26468 34419,26501 34386,26501 L 33418,26501 Z M 33352,26501 L 33352,26501 Z M 34453,26100 L 34453,26100 Z"/>
      </g>
     </g>
     <g class="com.sun.star.drawing.LineShape">
      <g id="id32">
       <path fill="none" stroke="rgb(0,69,138)" stroke-width="100" stroke-linejoin="round" d="M 33052,24801 L 33051,25501"/>
      </g>
     </g>
     <g class="com.sun.star.drawing.CustomShape">
      <g id="id33">
       <path fill="rgb(0,69,138)" stroke="none" d="M 32567,25701 C 32534,25701 32501,25668 32501,25635 L 32501,25367 C 32501,25334 32534,25300 32567,25300 L 33535,25300 C 33568,25300 33602,25334 33602,25367 L 33602,25635 C 33602,25668 33568,25701 33535,25701 L 32567,25701 Z M 32501,25701 L 32501,25701 Z M 33602,25300 L 33602,25300 Z"/>
      </g>
     </g>
     <g class="com.sun.star.drawing.PolyLineShape">
      <g id="id34">
       <path fill="none" stroke="rgb(0,69,138)" stroke-width="50" stroke-linejoin="round" d="M 25600,26000 L 26000,26001 26000,25300 26801,25300"/>
      </g>
     </g>
     <g class="com.sun.star.drawing.PolyLineShape">
      <g id="id35">
       <path fill="none" stroke="rgb(0,69,138)" stroke-width="50" stroke-linejoin="round" d="M 25600,26149 L 27600,26149 27600,25601 28101,25601"/>
      </g>
     </g>
     <g class="com.sun.star.drawing.LineShape">
      <g id="id36">
       <path fill="none" stroke="rgb(0,69,138)" stroke-width="50" stroke-linejoin="round" d="M 28501,24700 L 29901,24701"/>
      </g>
     </g>
     <g class="com.sun.star.drawing.PolyLineShape">
      <g id="id37">
       <path fill="none" stroke="rgb(0,69,138)" stroke-width="50" stroke-linejoin="round" d="M 25600,26300 L 27799,26301 27799,25801 28100,25801"/>
      </g>
     </g>
     <g class="com.sun.star.drawing.PolyLineShape">
      <g id="id38">
       <path fill="none" stroke="rgb(0,69,138)" stroke-width="50" stroke-linejoin="round" d="M 25600,24700 L 26000,24701 26000,25150 26700,25150"/>
      </g>
     </g>
     <g class="com.sun.star.drawing.PolyLineShape">
      <g id="id39">
       <path fill="none" stroke="rgb(0,69,138)" stroke-width="50" stroke-linejoin="round" d="M 25600,23700 L 26200,23701 26200,25001 26801,25001"/>
      </g>
     </g>
     <g class="com.sun.star.drawing.PolyLineShape">
      <g id="id40">
       <path fill="none" stroke="rgb(0,69,138)" stroke-width="50" stroke-linejoin="round" d="M 25600,23500 L 27600,23500 27600,24501 28101,24501"/>
      </g>
     </g>
     <g class="com.sun.star.drawing.PolyLineShape">
      <g id="id41">
       <path fill="none" stroke="rgb(0,69,138)" stroke-width="50" stroke-linejoin="round" d="M 28501,24501 L 29301,24501 29301,23501 29901,23501"/>
      </g>
     </g>
     <g class="com.sun.star.drawing.PolyLineShape">
      <g id="id42">
       <path fill="none" stroke="rgb(0,69,138)" stroke-width="50" stroke-linejoin="round" d="M 28501,25601 L 29400,25601 29400,26001 29901,26001"/>
      </g>
     </g>
     <g class="com.sun.star.drawing.PolyLineShape">
      <g id="id43">
       <path fill="none" stroke="rgb(204,0,0)" stroke-width="50" stroke-linejoin="round" d="M 25600,23200 L 27800,23201 27800,24201 28101,24201"/>
      </g>
     </g>
     <g class="com.sun.star.drawing.PolyLineShape">
      <g id="id44">
       <path fill="none" stroke="rgb(204,0,0)" stroke-width="50" stroke-linejoin="round" d="M 28501,24201 L 29001,24201 29001,23201 29901,23201"/>
      </g>
     </g>
     <g class="com.sun.star.drawing.PolyLineShape">
      <g id="id45">
       <path fill="none" stroke="rgb(204,0,0)" stroke-width="50" stroke-linejoin="round" d="M 28501,25301 L 29600,25301 29600,25701 29901,25701"/>
      </g>
     </g>
     <g class="com.sun.star.drawing.PolyLineShape">
      <g id="id46">
       <path fill="none" stroke="rgb(204,0,0)" stroke-width="50" stroke-linejoin="round" d="M 30300,23201 L 30600,23201 30600,24101 29600,24100 29600,24401 30000,24401"/>
      </g>
     </g>
     <g class="com.sun.star.drawing.PolyLineShape">
      <g id="id47">
       <path fill="none" stroke="rgb(204,0,0)" stroke-width="50" stroke-linejoin="round" d="M 25600,24400 L 26400,24401 26400,24701 26801,24701"/>
      </g>
     </g>
     <g class="com.sun.star.drawing.PolyLineShape">
      <g id="id48">
       <path fill="none" stroke="rgb(204,0,0)" stroke-width="50" stroke-linejoin="round" d="M 25600,25700 L 27400,25700 27400,25300 28101,25301"/>
      </g>
     </g>
     <g class="com.sun.star.drawing.PolyPolygonShape">
      <g id="id49">
       <path fill="rgb(1,34,105)" stroke="none" d="M 25200,25601 L 25800,25601 25800,25801 25700,25801 25700,25901 25800,25901 25800,26401 25200,26401 25200,25901 25300,25901 25300,25801 25200,25801 25200,25601 Z"/>
      </g>
     </g>
     <g class="com.sun.star.drawing.PolyPolygonShape">
      <g id="id50">
       <path fill="rgb(1,34,105)" stroke="none" d="M 25200,24301 L 25800,24301 25800,24501 25700,24501 25700,24601 25800,24601 25800,25101 25200,25101 25200,24601 25300,24601 25300,24501 25200,24501 25200,24301 Z"/>
      </g>
     </g>
     <g class="com.sun.star.drawing.PolyPolygonShape">
      <g id="id51">
       <path fill="rgb(1,34,105)" stroke="none" d="M 25200,23101 L 25800,23101 25800,23301 25700,23301 25700,23401 25800,23401 25800,23901 25200,23901 25200,23401 25300,23401 25300,23301 25200,23301 25200,23101 Z"/>
      </g>
     </g>
     <g class="com.sun.star.drawing.PolyPolygonShape">
      <g id="id52">
       <path fill="rgb(1,34,105)" stroke="none" d="M 28007,25201 L 28607,25201 28607,25401 28507,25401 28507,25501 28607,25501 28607,26001 28007,26001 28007,25501 28107,25501 28107,25401 28007,25401 28007,25201 Z"/>
      </g>
     </g>
     <g class="com.sun.star.drawing.PolyPolygonShape">
      <g id="id53">
       <path fill="rgb(1,34,105)" stroke="none" d="M 29807,25601 L 30407,25601 30407,25801 30307,25801 30307,25901 30407,25901 30407,26401 29807,26401 29807,25901 29907,25901 29907,25801 29807,25801 29807,25601 Z"/>
      </g>
     </g>
     <g class="com.sun.star.drawing.PolyPolygonShape">
      <g id="id54">
       <path fill="rgb(1,34,105)" stroke="none" d="M 29807,24301 L 30407,24301 30407,24501 30307,24501 30307,24601 30407,24601 30407,25101 29807,25101 29807,24601 29907,24601 29907,24501 29807,24501 29807,24301 Z"/>
      </g>
     </g>
     <g class="com.sun.star.drawing.PolyPolygonShape">
      <g id="id55">
       <path fill="rgb(1,34,105)" stroke="none" d="M 29807,23101 L 30407,23101 30407,23301 30307,23301 30307,23401 30407,23401 30407,23901 29807,23901 29807,23401 29907,23401 29907,23301 29807,23301 29807,23101 Z"/>
      </g>
     </g>
     <g class="com.sun.star.drawing.LineShape">
      <g id="id56">
       <path fill="none" stroke="rgb(1,34,105)" stroke-width="200" stroke-linejoin="round" d="M 27101,22338 L 30501,22338"/>
      </g>
     </g>
     <g class="Group">
      <g class="Group">
       <g class="com.sun.star.drawing.LineShape">
        <g id="id57">
         <path fill="none" stroke="rgb(1,34,105)" stroke-width="100" stroke-linejoin="round" d="M 34598,22600 L 34998,22200"/>
        </g>
       </g>
       <g class="com.sun.star.drawing.LineShape">
        <g id="id58">
         <path fill="none" stroke="rgb(1,34,105)" stroke-width="100" stroke-linejoin="round" d="M 34598,22200 L 34998,22600"/>
        </g>
       </g>
      </g>
      <g class="com.sun.star.drawing.LineShape">
       <g id="id59">
        <path fill="none" stroke="rgb(1,34,105)" stroke-width="100" stroke-linejoin="round" d="M 34598,22200 L 34998,22600"/>
       </g>
      </g>
     </g>
     <g class="com.sun.star.drawing.PolyLineShape">
      <g id="id60">
       <path fill="none" stroke="rgb(0,69,138)" stroke-width="50" stroke-linejoin="round" d="M 27099,25001 L 27600,25002 27600,24700 28100,24700"/>
      </g>
     </g>
     <g class="com.sun.star.drawing.PolyPolygonShape">
      <g id="id61">
       <path fill="rgb(1,34,105)" stroke="none" d="M 28007,24101 L 28607,24101 28607,24301 28507,24301 28507,24401 28607,24401 28607,24901 28007,24901 28007,24401 28107,24401 28107,24301 28007,24301 28007,24101 Z"/>
      </g>
     </g>
     <g class="com.sun.star.drawing.PolyPolygonShape">
      <g id="id62">
       <path fill="rgb(1,34,105)" stroke="none" d="M 26600,24601 L 27200,24601 27200,24801 27100,24801 27100,24901 27200,24901 27200,25401 26600,25401 26600,24901 26700,24901 26700,24801 26600,24801 26600,24601 Z"/>
      </g>
     </g>
    </g>
   </g>
  </g>
 </g>
</svg>