<?xml version="1.0" encoding="UTF-8" standalone="no"?>
<!DOCTYPE svg PUBLIC "-//W3C//DTD SVG 1.1//EN" "http://www.w3.org/Graphics/SVG/1.1/DTD/svg11.dtd">
<svg width="100%" height="100%" viewBox="0 0 1920 1080" version="1.1" xmlns="http://www.w3.org/2000/svg" xmlns:xlink="http://www.w3.org/1999/xlink" xml:space="preserve" xmlns:serif="http://www.serif.com/" style="fill-rule:evenodd;clip-rule:evenodd;stroke-linecap:round;stroke-linejoin:round;stroke-miterlimit:1.5;">
    <path d="M1369.55,182.881C1364.66,183.672 1360.33,186.483 1357.61,190.627C1353.35,197.146 1345.94,201.47 1337.52,201.47C1324.34,201.47 1313.64,190.886 1313.64,177.848C1313.64,164.811 1324.34,154.226 1337.52,154.226C1345.03,154.226 1351.73,157.665 1356.11,163.036C1357.9,165.251 1360.19,167.004 1362.79,168.149C1367.92,170.49 1374.65,171.827 1381.86,171.16C1385.03,170.867 1387.66,170.592 1389.88,170.223C1393.62,169.594 1396.91,167.407 1398.95,164.206C1402.63,158.191 1409.35,154.226 1417,154.226C1428.8,154.226 1438.38,163.667 1438.38,175.295C1438.38,186.923 1428.8,196.363 1417,196.363C1410.43,196.363 1404.55,193.441 1400.63,188.846C1399.24,187.206 1397.46,185.946 1395.45,185.186C1391.66,183.685 1387.15,182.713 1382.21,182.37C1377.88,182.069 1373.52,182.255 1369.55,182.881Z" style="fill:rgb(42,164,73);"/>
    <path d="M1573.03,214.448C1571.78,208.921 1568.35,204.131 1563.53,201.156C1555.66,196.338 1550.44,187.839 1550.44,178.167C1550.44,163.156 1563.02,150.969 1578.53,150.969C1594.03,150.969 1606.62,163.156 1606.62,178.167C1606.62,187.089 1602.17,195.013 1595.31,199.974C1590.89,203.18 1587.63,207.735 1586.02,212.954C1585.1,215.91 1584.46,219.017 1584.25,222.166C1583.86,228.059 1585.22,233.808 1587.21,238.709C1588.08,240.854 1589.53,242.716 1591.39,244.087C1592.8,245.026 1594.02,246.205 1595.07,247.52C1595.95,248.628 1597.03,249.55 1598.27,250.231C1603.94,253.272 1612.57,255.374 1621.24,254.629C1628.71,253.986 1635.57,251.376 1640.3,248.182C1641.4,247.425 1642.36,246.483 1643.14,245.398C1647.4,239.524 1654.02,235.753 1661.45,235.753C1674.32,235.753 1684.76,247.082 1684.76,261.035C1684.76,274.989 1674.32,286.317 1661.45,286.317C1653.54,286.317 1646.55,282.04 1642.33,275.505C1641.59,274.342 1640.65,273.322 1639.54,272.497C1634.72,268.886 1628.28,265.648 1621.59,265.202C1613.88,264.686 1606.08,265.629 1600.54,267.784C1598.44,268.619 1596.6,270.004 1595.21,271.796C1591.61,276.438 1585.95,279.422 1579.6,279.422C1568.68,279.422 1559.82,270.611 1559.82,259.758C1559.82,253.874 1562.43,248.59 1566.55,244.985C1569.37,242.511 1571.48,239.33 1572.66,235.771C1573.93,231.877 1574.67,227.687 1574.36,223.483C1574.13,220.298 1573.67,217.265 1573.03,214.448ZM1321.23,124.206C1323.3,128.175 1324.47,132.69 1324.47,137.477C1324.47,147.272 1319.57,155.926 1312.09,161.1C1306.62,164.893 1302.84,170.657 1301.53,177.18C1301.36,178.503 1301.19,179.85 1301.11,181.228C1300.74,187.544 1302.45,193.459 1305.2,197.694C1306.01,198.94 1307.06,200.017 1308.28,200.87C1313.68,204.717 1317.21,211.048 1317.21,218.203C1317.21,229.898 1307.78,239.393 1296.15,239.393C1291.19,239.393 1286.63,237.667 1283.03,234.779C1283.03,234.795 1283.03,234.811 1283.02,234.827C1283,234.792 1282.98,234.756 1282.95,234.721C1281.81,233.795 1280.76,232.751 1279.83,231.608C1279.41,231.075 1278.9,230.608 1278.34,230.219C1274.03,227.297 1267.84,225.307 1260.73,224.789C1253.15,224.238 1245.49,225.367 1240.2,227.877C1238.42,228.741 1236.93,230.082 1235.87,231.749C1231.4,238.65 1223.64,243.229 1214.81,243.229C1201,243.229 1189.78,232.015 1189.78,218.203C1189.78,215.848 1190.11,213.569 1190.72,211.408C1193.68,200.893 1203.35,193.176 1214.81,193.176C1222.76,193.176 1229.85,196.894 1234.44,202.684C1235.07,203.483 1235.66,204.322 1236.19,205.196C1237.31,207.066 1238.9,208.606 1240.81,209.659C1245.85,212.437 1252.86,214.163 1260.42,213.402C1270.99,212.339 1275.01,212.466 1278.26,206.945C1278.28,207.12 1278.56,206.334 1278.59,206.499C1280.25,203.975 1282.44,201.829 1285,200.221C1285.16,200.119 1285.08,200.166 1285,200.215C1288.68,195.737 1291.86,187.407 1290.71,179.398C1289.97,174.238 1287.95,169.612 1285.32,166.081C1284.24,164.619 1282.94,163.333 1281.47,162.269C1281.16,162.046 1280.84,161.832 1280.52,161.628C1272.56,156.557 1267.29,147.629 1267.29,137.477C1267.29,121.65 1280.1,108.799 1295.88,108.799C1306.89,108.799 1316.45,115.052 1321.23,124.206ZM1610.82,346.852C1607.41,348.13 1604.56,350.564 1602.77,353.729C1599.7,359.354 1594.39,363.571 1588.05,365.291L1589.54,359.478C1581.88,355.647 1571.51,351.952 1558.68,349.767C1557.85,347.331 1557.4,344.721 1557.4,342.006C1557.4,328.687 1568.27,317.873 1581.66,317.873C1589.45,317.873 1596.39,321.535 1600.83,327.222C1601.52,328.114 1602.36,328.869 1603.33,329.448C1608.66,332.641 1615.46,335.332 1622.29,334.744C1629.13,334.157 1635.2,332.306 1639.78,329.825C1641.09,329.107 1642.26,328.162 1643.24,327.035C1647.01,322.735 1652.57,320.027 1658.77,320.027C1670.15,320.027 1679.4,329.181 1679.4,340.456C1679.4,351.732 1670.15,360.886 1658.77,360.886C1652.06,360.886 1646.1,357.716 1642.33,352.81C1641.16,351.27 1639.66,350.012 1637.94,349.129C1633.65,346.852 1628.65,345.151 1623.53,344.809C1619.08,344.512 1614.73,345.398 1610.82,346.852ZM1255.67,239.393C1266.38,239.393 1275.08,248.007 1275.08,258.616C1275.08,269.225 1266.38,277.838 1255.67,277.838C1244.96,277.838 1236.26,269.225 1236.26,258.616C1236.26,248.007 1244.96,239.393 1255.67,239.393ZM1376.9,281.147C1387.23,281.147 1395.62,289.503 1395.62,299.794C1395.62,310.086 1387.23,318.442 1376.9,318.442C1366.58,318.442 1358.19,310.086 1358.19,299.794C1358.19,289.503 1366.58,281.147 1376.9,281.147ZM1417.38,230.583C1433.06,230.583 1445.79,243.342 1445.79,259.057C1445.79,274.772 1433.06,287.531 1417.38,287.531C1401.7,287.531 1388.98,274.772 1388.98,259.057C1388.98,243.342 1401.7,230.583 1417.38,230.583ZM1334.38,239.393C1345.83,239.393 1355.13,248.748 1355.13,260.27C1355.13,271.792 1345.83,281.147 1334.38,281.147C1322.93,281.147 1313.64,271.792 1313.64,260.27C1313.64,248.748 1322.93,239.393 1334.38,239.393ZM1376.84,196.363C1388.82,196.363 1398.54,206.004 1398.54,217.878C1398.54,229.753 1388.82,239.393 1376.84,239.393C1364.86,239.393 1355.13,229.753 1355.13,217.878C1355.13,206.004 1364.86,196.363 1376.84,196.363ZM1538.2,114.516C1549.78,114.516 1559.17,124.3 1559.17,136.35C1559.17,148.401 1549.78,158.185 1538.2,158.185C1526.63,158.185 1517.24,148.401 1517.24,136.35C1517.24,124.3 1526.63,114.516 1538.2,114.516ZM1457.66,118.857C1468.3,118.857 1476.94,127.668 1476.94,138.521C1476.94,149.374 1468.3,158.185 1457.66,158.185C1447.02,158.185 1438.38,149.374 1438.38,138.521C1438.38,127.668 1447.02,118.857 1457.66,118.857ZM1457.66,192.915C1470.13,192.915 1480.26,203.328 1480.26,216.154C1480.26,228.98 1470.13,239.393 1457.66,239.393C1445.19,239.393 1435.06,228.98 1435.06,216.154C1435.06,203.328 1445.19,192.915 1457.66,192.915ZM1455.88,277.323C1467.51,277.323 1476.94,286.992 1476.94,298.902C1476.94,310.812 1467.51,320.481 1455.88,320.481C1444.26,320.481 1434.83,310.812 1434.83,298.902C1434.83,286.992 1444.26,277.323 1455.88,277.323ZM1701.87,278.911C1714.42,278.911 1724.6,288.81 1724.6,301.001C1724.6,313.193 1714.42,323.091 1701.87,323.091C1689.33,323.091 1679.14,313.193 1679.14,301.001C1679.14,288.81 1689.33,278.911 1701.87,278.911ZM1619.58,282.231C1629.82,282.231 1638.13,290.642 1638.13,301.001C1638.13,311.361 1629.82,319.771 1619.58,319.771C1609.35,319.771 1601.03,311.361 1601.03,301.001C1601.03,290.642 1609.35,282.231 1619.58,282.231ZM1621.19,198.214C1632.32,198.214 1641.35,207.597 1641.35,219.154C1641.35,230.712 1632.32,240.095 1621.19,240.095C1610.07,240.095 1601.03,230.712 1601.03,219.154C1601.03,207.597 1610.07,198.214 1621.19,198.214ZM1701.95,367.616C1710.68,367.616 1717.77,374.825 1717.77,383.704C1717.77,392.584 1710.68,399.793 1701.95,399.793C1693.21,399.793 1686.12,392.584 1686.12,383.704C1686.12,374.825 1693.21,367.616 1701.95,367.616ZM1661.97,404.389C1673.18,404.389 1682.28,413.372 1682.28,424.436C1682.28,435.5 1673.18,444.483 1661.97,444.483C1650.77,444.483 1641.67,435.5 1641.67,424.436C1641.67,413.372 1650.77,404.389 1661.97,404.389ZM1621.24,447.803C1630.68,447.803 1638.35,455.412 1638.35,464.785C1638.35,474.158 1630.68,481.768 1621.24,481.768C1611.8,481.768 1604.13,474.158 1604.13,464.785C1604.13,455.412 1611.8,447.803 1621.24,447.803ZM1619.58,358.167C1633.47,358.167 1644.74,369.438 1644.74,383.321C1644.74,397.204 1633.47,408.475 1619.58,408.475C1605.7,408.475 1594.43,397.204 1594.43,383.321C1594.43,369.438 1605.7,358.167 1619.58,358.167ZM1486.78,354.189C1482.35,350.74 1479.5,345.362 1479.5,339.324C1479.5,328.924 1487.95,320.481 1498.37,320.481C1508.78,320.481 1517.24,328.924 1517.24,339.324C1517.24,342.357 1516.52,345.223 1515.24,347.762C1504.79,348.73 1495.27,350.934 1486.78,354.189ZM1572.61,480.169C1575.43,479.138 1578.48,478.575 1581.66,478.575C1596.11,478.575 1607.83,490.19 1607.83,504.496C1607.83,511.986 1604.62,518.738 1599.48,523.472C1596.48,506.484 1587.76,492.307 1572.61,480.169Z" style="fill:rgb(42,164,73);stroke:rgb(42,164,73);stroke-width:1px;"/>
    <path d="M1242.92,305.707C1239.19,307.059 1235.94,309.462 1233.55,312.624C1229.65,317.781 1223.45,321.124 1216.47,321.124C1204.7,321.124 1195.15,311.626 1195.15,299.928C1195.15,288.229 1204.7,278.732 1216.47,278.732C1222.93,278.732 1228.72,281.59 1232.63,286.101C1233.76,287.425 1235.13,288.531 1236.66,289.364C1241.7,292.154 1247.82,294.282 1253.97,293.753C1260.38,293.202 1266.12,291.541 1270.58,289.291C1272.76,288.201 1274.68,286.67 1276.23,284.798C1280.69,279.398 1287.3,275.76 1294.23,275.76C1306.65,275.76 1316.74,285.845 1316.74,298.268C1316.74,310.69 1306.65,320.775 1294.23,320.775C1286.61,320.775 1279.35,317.6 1274.89,312.273C1273.39,310.488 1271.54,309.025 1269.46,307.974C1265.18,305.81 1260.25,304.155 1255.2,303.818C1250.92,303.532 1246.72,304.345 1242.92,305.707ZM1489.32,196.786C1488.47,194.797 1487.11,193.064 1485.38,191.758C1480,187.704 1476.53,181.147 1476.53,173.762C1476.53,161.359 1486.32,151.29 1498.37,151.29C1510.42,151.29 1520.2,161.359 1520.2,173.762C1520.2,181 1516.87,187.444 1511.7,191.555C1510.18,192.744 1508.95,194.251 1508.08,195.97C1505.54,200.866 1503.57,206.716 1503.17,212.719C1502.76,218.923 1504.29,224.966 1506.46,230.03C1507.58,232.668 1509.49,234.893 1511.93,236.398C1518.68,240.498 1523.16,248.095 1523.16,256.765C1523.16,269.944 1512.81,280.643 1500.05,280.643C1487.3,280.643 1476.94,269.944 1476.94,256.765C1476.94,249.801 1479.84,243.528 1484.44,239.162C1485.65,238.033 1486.69,236.728 1487.51,235.291C1490.88,229.435 1493.84,221.76 1493.29,214.037C1492.81,207.445 1491.34,201.506 1489.32,196.786ZM1172.77,315.058C1185.74,315.058 1196.27,325.772 1196.27,338.968C1196.27,352.164 1185.74,362.877 1172.77,362.877C1159.81,362.877 1149.28,352.164 1149.28,338.968C1149.28,325.772 1159.81,315.058 1172.77,315.058ZM1376.84,114.899C1388.82,114.899 1398.54,124.597 1398.54,136.542C1398.54,148.487 1388.82,158.185 1376.84,158.185C1364.86,158.185 1355.13,148.487 1355.13,136.542C1355.13,124.597 1364.86,114.899 1376.84,114.899ZM1539.36,282.231C1551.57,282.231 1561.48,291.386 1561.48,302.661C1561.48,313.937 1551.57,323.091 1539.36,323.091C1527.15,323.091 1517.24,313.937 1517.24,302.661C1517.24,291.386 1527.15,282.231 1539.36,282.231ZM1538.53,198.214C1550.28,198.214 1559.82,207.597 1559.82,219.154C1559.82,230.712 1550.28,240.095 1538.53,240.095C1526.78,240.095 1517.24,230.712 1517.24,219.154C1517.24,207.597 1526.78,198.214 1538.53,198.214ZM1576.81,404.896C1578.37,404.564 1580,404.389 1581.66,404.389C1594.06,404.389 1604.13,414.116 1604.13,426.096C1604.13,438.076 1594.06,447.803 1581.66,447.803C1569.26,447.803 1559.19,438.076 1559.19,426.096C1559.19,416.603 1565.51,408.526 1574.3,405.581C1575.03,405.934 1575.72,406.283 1576.37,406.622L1576.81,404.896Z" style="fill:rgb(33,69,55);stroke:rgb(32,69,52);stroke-width:1px;"/>
    <path d="M1142.25,273.815C1143.34,275.664 1144.8,277.276 1146.52,278.558C1152.4,282.925 1156.17,289.905 1156.17,297.757C1156.17,311.076 1145.3,321.89 1131.91,321.89C1118.52,321.89 1107.65,311.076 1107.65,297.757C1107.65,289.75 1111.58,282.648 1117.62,278.257C1119.74,276.737 1121.48,274.751 1122.7,272.452C1125.44,267.519 1127.47,261.559 1126.97,255.562C1126.64,251.489 1125.86,247.684 1124.76,244.303C1123.6,240.794 1121.44,237.698 1118.56,235.389C1113.78,231.57 1110.72,225.748 1110.72,219.23C1110.72,207.743 1120.21,198.417 1131.91,198.417C1143.61,198.417 1153.11,207.743 1153.11,219.23C1153.11,225.798 1150,231.659 1145.16,235.475C1143.59,236.694 1142.31,238.239 1141.4,240.002C1139.12,244.279 1137.4,249.261 1137.04,254.367C1136.54,261.58 1139.14,268.567 1142.25,273.815ZM1172.77,237.361C1185.74,237.361 1196.27,247.717 1196.27,260.472C1196.27,273.228 1185.74,283.584 1172.77,283.584C1159.81,283.584 1149.28,273.228 1149.28,260.472C1149.28,247.717 1159.81,237.361 1172.77,237.361ZM1254.65,158.195C1266.49,158.195 1276.1,167.891 1276.1,179.833C1276.1,191.775 1266.49,201.47 1254.65,201.47C1242.81,201.47 1233.2,191.775 1233.2,179.833C1233.2,167.891 1242.81,158.195 1254.65,158.195Z" style="fill:rgb(24,157,73);stroke:rgb(24,157,73);stroke-width:1px;"/>
    <g transform="matrix(1.19104,0,0,1,340.116,-5.29481)">
        <path d="M136.752,767.009C136.152,769.634 135.478,772.559 135.028,774.809L134.803,774.809C134.278,772.484 133.528,769.559 132.853,767.009L126.705,745.184L114.558,745.184L128.579,783.584C128.879,784.409 129.029,785.009 129.029,785.459C129.029,786.284 127.155,790.559 123.48,793.184C121.531,794.534 119.431,795.734 117.632,796.259L120.406,805.634C122.881,805.184 127.155,803.684 131.204,799.784C135.927,795.059 139.452,787.709 144.1,774.209L153.548,745.184L142.001,745.184L136.752,767.009Z" style="fill:rgb(42,164,73);fill-rule:nonzero;"/>
        <path d="M176.278,744.284C164.951,744.284 156.483,752.225 156.483,766.254C156.483,779.834 164.576,787.775 175.828,787.775C185.132,787.775 195.323,781.632 195.323,765.729C195.323,753.05 187.979,744.284 176.278,744.284ZM184.083,765.954C184.083,773.382 181.231,779.609 175.978,779.609C170.575,779.609 167.723,773.457 167.723,766.029C167.723,759.652 169.9,752.45 176.053,752.45C181.756,752.45 184.083,759.427 184.083,765.954Z" style="fill:rgb(42,164,73);fill-rule:nonzero;"/>
        <path d="M227.508,745.184L227.508,770.903C227.508,775.634 224.28,778.709 220.678,778.709C216.1,778.709 214.298,774.734 214.298,768.434L214.298,745.184L203.208,745.184L203.208,770.084C203.208,782.605 208.603,787.775 216.55,787.775C223.005,787.775 226.832,784.104 228.557,781.406L228.782,781.406L229.306,786.95L238.973,786.95C238.823,783.426 238.598,779.151 238.598,774.203L238.598,745.184L227.508,745.184Z" style="fill:rgb(42,164,73);fill-rule:nonzero;"/>
        <path d="M258.325,752.458L257.875,745.184L248.358,745.184C248.508,748.933 248.658,753.057 248.658,758.231L248.658,786.95L259.748,786.95L259.748,765.355C259.748,758.225 263.573,754.85 268.598,754.85C269.723,754.85 270.623,754.925 271.448,755.075L271.448,744.509C270.698,744.359 270.023,744.284 268.973,744.284C265.073,744.284 260.573,747.059 258.624,752.458L258.325,752.458Z" style="fill:rgb(42,164,73);fill-rule:nonzero;"/>
        <path d="M303.175,745.184L293.508,745.184C293.658,749.009 293.808,753.434 293.808,758.834L293.808,803.675L304.898,803.675L304.898,782.905L305.048,782.905C306.849,785.677 310.376,787.775 314.954,787.775C323.431,787.775 332.123,781.032 332.123,765.659C332.123,752.825 325.379,744.284 316.23,744.284C310.827,744.284 306.549,746.607 303.849,750.877L303.699,750.877L303.175,745.184ZM304.898,762.278C304.898,757.251 308.275,753.2 312.553,753.2C318.031,753.2 320.883,758.602 320.883,766.029C320.883,773.532 317.956,779.084 312.328,779.084C308.575,779.084 304.898,776.158 304.898,770.081L304.898,762.278Z" style="fill:rgb(42,164,73);fill-rule:nonzero;"/>
        <path d="M349.6,752.458L349.15,745.184L339.633,745.184C339.783,748.933 339.933,753.057 339.933,758.231L339.933,786.95L351.023,786.95L351.023,765.355C351.023,758.225 354.848,754.85 359.873,754.85C360.998,754.85 361.898,754.925 362.723,755.075L362.723,744.509C361.973,744.359 361.298,744.284 360.248,744.284C356.348,744.284 351.848,747.059 349.899,752.458L349.6,752.458Z" style="fill:rgb(42,164,73);fill-rule:nonzero;"/>
        <path d="M386.278,744.284C374.951,744.284 366.483,752.225 366.483,766.254C366.483,779.834 374.576,787.775 385.828,787.775C395.132,787.775 405.323,781.632 405.323,765.729C405.323,753.05 397.979,744.284 386.278,744.284ZM394.083,765.954C394.083,773.382 391.231,779.609 385.978,779.609C380.575,779.609 377.723,773.457 377.723,766.029C377.723,759.652 379.9,752.45 386.053,752.45C391.756,752.45 394.083,759.427 394.083,765.954Z" style="fill:rgb(42,164,73);fill-rule:nonzero;"/>
        <path d="M441.698,745.934C439.898,745.183 436.598,744.359 432.998,744.359C419.201,744.359 411.108,753.95 411.108,766.48C411.108,779.758 419.051,787.7 431.273,787.7C435.698,787.7 439.523,786.801 441.398,785.902L440.198,777.584C438.398,778.409 436.223,778.934 433.448,778.934C427.073,778.934 422.348,774.207 422.348,766.029C422.348,758.677 426.398,753.05 433.373,753.05C436.448,753.05 438.473,753.725 439.898,754.4L441.698,745.934Z" style="fill:rgb(42,164,73);fill-rule:nonzero;"/>
        <path d="M481.824,769.4C482.048,768.201 482.123,766.628 482.123,764.98C482.123,751.475 475.529,744.284 465.404,744.284C453.177,744.284 446.283,754.627 446.283,766.628C446.283,779.609 453.626,787.7 466.529,787.7C471.708,787.7 476.578,786.801 480.025,785.302L478.452,777.657C475.604,778.633 472.382,779.384 468.255,779.384C462.252,779.384 457.148,776.531 456.848,769.4L481.824,769.4ZM456.848,761.684C457.148,757.555 459.4,752 464.728,752C470.207,752 471.933,757.33 471.858,761.684L456.848,761.684Z" style="fill:rgb(42,164,73);fill-rule:nonzero;"/>
        <path d="M487.308,784.928C490.081,786.576 494.502,787.7 499.074,787.7C509.504,787.7 515.498,782.456 515.498,774.507C515.498,768.73 512.201,764.679 505.157,761.753C500.351,759.727 498.773,758.527 498.773,756.201C498.773,753.95 500.576,752.225 503.956,752.225C507.106,752.225 510.028,753.425 511.827,754.401L513.925,746.606C511.527,745.333 507.855,744.284 503.581,744.284C494.277,744.284 488.283,749.977 488.283,757.477C488.283,762.053 491.13,766.48 498.924,769.631C503.506,771.581 504.933,772.932 504.933,775.483C504.933,778.034 503.055,779.684 499.149,779.684C495.701,779.684 491.58,778.184 489.407,776.908L487.308,784.928Z" style="fill:rgb(42,164,73);fill-rule:nonzero;"/>
        <path d="M520.533,784.928C523.306,786.576 527.727,787.7 532.299,787.7C542.729,787.7 548.723,782.456 548.723,774.507C548.723,768.73 545.426,764.679 538.382,761.753C533.576,759.727 531.998,758.527 531.998,756.201C531.998,753.95 533.801,752.225 537.181,752.225C540.331,752.225 543.253,753.425 545.052,754.401L547.15,746.606C544.752,745.333 541.08,744.284 536.806,744.284C527.502,744.284 521.508,749.977 521.508,757.477C521.508,762.053 524.355,766.48 532.149,769.631C536.731,771.581 538.158,772.932 538.158,775.483C538.158,778.034 536.28,779.684 532.374,779.684C528.926,779.684 524.805,778.184 522.632,776.908L520.533,784.928Z" style="fill:rgb(42,164,73);fill-rule:nonzero;"/>
        <path d="M596.658,745.184L596.658,770.903C596.658,775.634 593.43,778.709 589.828,778.709C585.25,778.709 583.448,774.734 583.448,768.434L583.448,745.184L572.358,745.184L572.358,770.084C572.358,782.605 577.753,787.775 585.7,787.775C592.155,787.775 595.982,784.104 597.707,781.406L597.932,781.406L598.456,786.95L608.123,786.95C607.973,783.426 607.748,779.151 607.748,774.203L607.748,745.184L596.658,745.184Z" style="fill:rgb(42,164,73);fill-rule:nonzero;"/>
        <path d="M627.624,750.818L627.1,745.184L617.508,745.184C617.658,748.865 617.808,752.846 617.808,757.729L617.808,786.95L628.898,786.95L628.898,762.086C628.898,755.75 633.026,753.425 636.028,753.425C640.757,753.425 642.408,757.475 642.408,762.575L642.408,786.95L653.498,786.95L653.498,761.375C653.498,749.679 647.578,744.359 639.931,744.359C633.852,744.284 629.724,747.738 627.849,750.818L627.624,750.818Z" style="fill:rgb(42,164,73);fill-rule:nonzero;"/>
        <path d="M688.233,726.659L688.233,749.229L688.083,749.229C686.432,746.382 682.905,744.359 678.027,744.359C669.026,744.359 661.158,752.151 661.158,766.405C661.158,779.084 667.902,787.775 677.351,787.775C682.454,787.775 686.957,785.152 689.132,781.032L689.357,781.032L689.881,786.95L699.623,786.95C699.473,783.875 699.323,779.225 699.323,775.025L699.323,726.659L688.233,726.659ZM688.233,769.85C688.233,776.458 684.03,778.859 680.728,778.859C675.475,778.859 672.323,773.832 672.323,766.254C672.323,758.977 675.175,753.125 680.878,753.125C684.556,753.125 688.233,756.126 688.233,762.203L688.233,769.85Z" style="fill:rgb(42,164,73);fill-rule:nonzero;"/>
        <path d="M742.674,769.4C742.898,768.201 742.973,766.628 742.973,764.98C742.973,751.475 736.379,744.284 726.254,744.284C714.027,744.284 707.133,754.627 707.133,766.628C707.133,779.609 714.476,787.7 727.379,787.7C732.558,787.7 737.428,786.801 740.875,785.302L739.302,777.657C736.454,778.633 733.232,779.384 729.105,779.384C723.102,779.384 717.998,776.531 717.698,769.4L742.674,769.4ZM717.698,761.684C717.998,757.555 720.25,752 725.578,752C731.057,752 732.783,757.33 732.708,761.684L717.698,761.684Z" style="fill:rgb(42,164,73);fill-rule:nonzero;"/>
        <path d="M760.375,752.458L759.925,745.184L750.408,745.184C750.558,748.933 750.708,753.057 750.708,758.231L750.708,786.95L761.798,786.95L761.798,765.355C761.798,758.225 765.623,754.85 770.648,754.85C771.773,754.85 772.673,754.925 773.498,755.075L773.498,744.509C772.748,744.359 772.073,744.284 771.023,744.284C767.123,744.284 762.623,747.059 760.674,752.458L760.375,752.458Z" style="fill:rgb(42,164,73);fill-rule:nonzero;"/>
        <path d="M824.198,745.934C822.398,745.183 819.098,744.359 815.498,744.359C801.701,744.359 793.608,753.95 793.608,766.48C793.608,779.758 801.551,787.7 813.773,787.7C818.198,787.7 822.023,786.801 823.898,785.902L822.698,777.584C820.898,778.409 818.723,778.934 815.948,778.934C809.573,778.934 804.848,774.207 804.848,766.029C804.848,758.677 808.898,753.05 815.873,753.05C818.948,753.05 820.973,753.725 822.398,754.4L824.198,745.934Z" style="fill:rgb(42,164,73);fill-rule:nonzero;"/>
        <path d="M848.428,744.284C837.101,744.284 828.633,752.225 828.633,766.254C828.633,779.834 836.726,787.775 847.978,787.775C857.282,787.775 867.473,781.632 867.473,765.729C867.473,753.05 860.129,744.284 848.428,744.284ZM856.233,765.954C856.233,773.382 853.381,779.609 848.128,779.609C842.725,779.609 839.873,773.457 839.873,766.029C839.873,759.652 842.05,752.45 848.203,752.45C853.906,752.45 856.233,759.427 856.233,765.954Z" style="fill:rgb(42,164,73);fill-rule:nonzero;"/>
        <path d="M885.324,750.818L884.8,745.184L875.208,745.184C875.358,748.865 875.508,752.846 875.508,757.729L875.508,786.95L886.598,786.95L886.598,762.086C886.598,755.75 890.726,753.425 893.728,753.425C898.457,753.425 900.108,757.475 900.108,762.575L900.108,786.95L911.198,786.95L911.198,761.375C911.198,749.679 905.278,744.359 897.631,744.359C891.552,744.284 887.424,747.738 885.549,750.818L885.324,750.818Z" style="fill:rgb(42,164,73);fill-rule:nonzero;"/>
        <path d="M917.433,745.184L917.433,753.35L922.908,753.35L922.908,772.632C922.908,777.284 923.132,787.7 935.123,787.7C938.348,787.7 941.048,787.325 942.548,786.726L942.398,778.259C941.273,778.484 940.373,778.634 938.798,778.634C935.423,778.634 933.848,776.533 933.848,771.506L933.848,753.35L943.073,753.35L943.073,745.184L933.848,745.184L933.848,734.309L922.908,737.534L922.908,745.184L917.433,745.184Z" style="fill:rgb(42,164,73);fill-rule:nonzero;"/>
        <path d="M959.65,752.458L959.2,745.184L949.683,745.184C949.833,748.933 949.983,753.057 949.983,758.231L949.983,786.95L961.073,786.95L961.073,765.355C961.073,758.225 964.898,754.85 969.923,754.85C971.048,754.85 971.948,754.925 972.773,755.075L972.773,744.509C972.023,744.359 971.348,744.284 970.298,744.284C966.398,744.284 961.898,747.059 959.949,752.458L959.65,752.458Z" style="fill:rgb(42,164,73);fill-rule:nonzero;"/>
        <path d="M996.328,744.284C985.001,744.284 976.533,752.225 976.533,766.254C976.533,779.834 984.626,787.775 995.878,787.775C1005.18,787.775 1015.37,781.632 1015.37,765.729C1015.37,753.05 1008.03,744.284 996.328,744.284ZM1004.13,765.954C1004.13,773.382 1001.28,779.609 996.028,779.609C990.625,779.609 987.773,773.457 987.773,766.029C987.773,759.652 989.95,752.45 996.103,752.45C1001.81,752.45 1004.13,759.427 1004.13,765.954Z" style="fill:rgb(42,164,73);fill-rule:nonzero;"/>
        <rect x="1023.41" y="726.659" width="11.091" height="60.291" style="fill:rgb(42,164,73);fill-rule:nonzero;"/>
    </g>
    <g transform="matrix(1.15422,0,0,1.15422,1512.58,-433)">
        <g transform="matrix(100,0,0,100,191.255,847.394)">
        </g>
        <text x="117.573px" y="847.394px" style="font-family:'ArialMT', 'Arial', sans-serif;font-size:100px;">®</text>
    </g>
    <g transform="matrix(0.903675,0,0,0.903675,59.3277,61.6719)">
        <path d="M589.74,396.005L591.239,409.839C597.546,410.847 603.737,412.44 609.724,414.596L618.224,403.336C627.344,406.965 635.93,411.726 643.761,417.498L637.859,430.197C642.796,434.1 647.328,438.452 651.391,443.194L664.613,437.525C670.623,445.047 675.58,453.294 679.357,462.054L667.634,470.217C669.879,475.968 671.538,481.914 672.587,487.972L686.99,489.412C688.278,498.812 688.278,508.334 686.99,517.735L672.587,519.175C671.538,525.233 669.879,531.179 667.634,536.929L679.357,545.093C675.58,553.853 670.623,562.099 664.613,569.622L651.391,563.952C647.328,568.694 642.796,573.047 637.859,576.949L643.761,589.649C635.93,595.421 627.344,600.182 618.224,603.811L609.724,592.551C603.737,594.707 597.546,596.3 591.239,597.308L589.74,611.141C579.953,612.379 570.039,612.379 560.251,611.141L558.752,597.308C552.445,596.3 546.254,594.707 540.267,592.551L531.768,603.811C522.647,600.182 514.061,595.421 506.23,589.649L512.132,576.949C507.195,573.047 502.663,568.694 498.601,563.952L485.378,569.622C479.369,562.099 474.412,553.853 470.634,545.093L482.357,536.929C480.112,531.179 478.454,525.233 477.404,519.175L463.002,517.735C461.713,508.334 461.713,498.812 463.002,489.412L477.404,487.972C478.454,481.914 480.112,475.968 482.357,470.217L470.634,462.054C474.412,453.294 479.369,445.047 485.378,437.525L498.601,443.194C502.663,438.452 507.195,434.1 512.132,430.197L506.23,417.498C514.061,411.726 522.647,406.965 531.768,403.336L540.267,414.596C546.254,412.44 552.445,410.847 558.752,409.839L560.251,396.005C570.039,394.768 579.953,394.768 589.74,396.005ZM574.996,427.922C531.524,427.922 496.231,461.82 496.231,503.573C496.231,545.327 531.524,579.225 574.996,579.225C618.467,579.225 653.76,545.327 653.76,503.573C653.76,461.82 618.467,427.922 574.996,427.922ZM574.996,433.538C615.24,433.538 647.912,464.92 647.912,503.573C647.912,542.227 615.24,573.609 574.996,573.609C534.752,573.609 502.079,542.227 502.079,503.573C502.079,464.92 534.752,433.538 574.996,433.538ZM574.996,439.039C537.913,439.039 507.806,467.956 507.806,503.573C507.806,539.191 537.913,568.108 574.996,568.108C612.079,568.108 642.185,539.191 642.185,503.573C642.185,467.956 612.079,439.039 574.996,439.039Z" style="fill:rgb(255,0,0);"/>
        <clipPath id="_clip1">
            <path d="M589.74,396.005L591.239,409.839C597.546,410.847 603.737,412.44 609.724,414.596L618.224,403.336C627.344,406.965 635.93,411.726 643.761,417.498L637.859,430.197C642.796,434.1 647.328,438.452 651.391,443.194L664.613,437.525C670.623,445.047 675.58,453.294 679.357,462.054L667.634,470.217C669.879,475.968 671.538,481.914 672.587,487.972L686.99,489.412C688.278,498.812 688.278,508.334 686.99,517.735L672.587,519.175C671.538,525.233 669.879,531.179 667.634,536.929L679.357,545.093C675.58,553.853 670.623,562.099 664.613,569.622L651.391,563.952C647.328,568.694 642.796,573.047 637.859,576.949L643.761,589.649C635.93,595.421 627.344,600.182 618.224,603.811L609.724,592.551C603.737,594.707 597.546,596.3 591.239,597.308L589.74,611.141C579.953,612.379 570.039,612.379 560.251,611.141L558.752,597.308C552.445,596.3 546.254,594.707 540.267,592.551L531.768,603.811C522.647,600.182 514.061,595.421 506.23,589.649L512.132,576.949C507.195,573.047 502.663,568.694 498.601,563.952L485.378,569.622C479.369,562.099 474.412,553.853 470.634,545.093L482.357,536.929C480.112,531.179 478.454,525.233 477.404,519.175L463.002,517.735C461.713,508.334 461.713,498.812 463.002,489.412L477.404,487.972C478.454,481.914 480.112,475.968 482.357,470.217L470.634,462.054C474.412,453.294 479.369,445.047 485.378,437.525L498.601,443.194C502.663,438.452 507.195,434.1 512.132,430.197L506.23,417.498C514.061,411.726 522.647,406.965 531.768,403.336L540.267,414.596C546.254,412.44 552.445,410.847 558.752,409.839L560.251,396.005C570.039,394.768 579.953,394.768 589.74,396.005ZM574.996,427.922C531.524,427.922 496.231,461.82 496.231,503.573C496.231,545.327 531.524,579.225 574.996,579.225C618.467,579.225 653.76,545.327 653.76,503.573C653.76,461.82 618.467,427.922 574.996,427.922ZM574.996,433.538C615.24,433.538 647.912,464.92 647.912,503.573C647.912,542.227 615.24,573.609 574.996,573.609C534.752,573.609 502.079,542.227 502.079,503.573C502.079,464.92 534.752,433.538 574.996,433.538ZM574.996,439.039C537.913,439.039 507.806,467.956 507.806,503.573C507.806,539.191 537.913,568.108 574.996,568.108C612.079,568.108 642.185,539.191 642.185,503.573C642.185,467.956 612.079,439.039 574.996,439.039Z"/>
        </clipPath>
        <g clip-path="url(#_clip1)">
            <g transform="matrix(1.10659,0,0,1.10659,-65.6515,-68.2456)">
                <path d="M592.261,419.532L593.616,432.033C599.316,432.944 604.91,434.384 610.32,436.332L618.001,426.157C626.243,429.436 634.002,433.738 641.079,438.954L635.745,450.431C640.207,453.957 644.302,457.89 647.973,462.176L659.922,457.053C665.353,463.85 669.832,471.302 673.246,479.218L662.652,486.596C664.681,491.792 666.18,497.165 667.128,502.64L680.143,503.941C681.308,512.436 681.308,521.041 680.143,529.536L667.128,530.838C666.18,536.312 664.681,541.685 662.652,546.882L673.246,554.259C669.832,562.175 665.353,569.627 659.922,576.425L647.973,571.302C644.302,575.587 640.207,579.52 635.745,583.047L641.079,594.523C634.002,599.739 626.243,604.042 618.001,607.321L610.32,597.146C604.91,599.094 599.316,600.533 593.616,601.445L592.261,613.945C583.417,615.064 574.458,615.064 565.613,613.945L564.258,601.445C558.558,600.533 552.964,599.094 547.554,597.146L539.873,607.321C531.631,604.042 523.872,599.739 516.795,594.523L522.129,583.047C517.667,579.52 513.572,575.587 509.901,571.302L497.952,576.425C492.521,569.627 488.042,562.175 484.628,554.259L495.222,546.882C493.193,541.685 491.694,536.312 490.746,530.838L477.731,529.536C476.566,521.041 476.566,512.436 477.731,503.941L490.746,502.64C491.694,497.165 493.193,491.792 495.222,486.596L484.628,479.218C488.042,471.302 492.521,463.85 497.952,457.053L509.901,462.176C513.572,457.89 517.667,453.957 522.129,450.431L516.795,438.954C523.872,433.738 531.631,429.436 539.873,426.157L547.554,436.332C552.964,434.384 558.558,432.944 564.258,432.033L565.613,419.532C574.458,418.414 583.417,418.414 592.261,419.532ZM578.937,448.374C539.653,448.374 507.76,479.007 507.76,516.739C507.76,554.47 539.653,585.103 578.937,585.103C618.221,585.103 650.114,554.47 650.114,516.739C650.114,479.007 618.221,448.374 578.937,448.374Z" style="fill:rgb(42,164,73);"/>
            </g>
            <g transform="matrix(1.10659,0,0,1.10659,-65.6515,-68.2456)">
                <path d="M578.937,453.45C615.304,453.45 644.83,481.809 644.83,516.739C644.83,551.669 615.304,580.028 578.937,580.028C542.57,580.028 513.044,551.669 513.044,516.739C513.044,481.809 542.57,453.45 578.937,453.45ZM578.937,458.421C545.426,458.421 518.219,484.552 518.219,516.739C518.219,548.925 545.426,575.057 578.937,575.057C612.448,575.057 639.655,548.925 639.655,516.739C639.655,484.552 612.448,458.421 578.937,458.421Z" style="fill:rgb(42,164,73);"/>
            </g>
        </g>
    </g>
    <g transform="matrix(0.837888,0,0,0.837888,1395.55,501.797)">
        <rect x="-1173.28" y="-189.943" width="59.15" height="321.55" style="fill-rule:nonzero;"/>
    </g>
    <g transform="matrix(0.837888,0,0,0.837888,1395.55,501.797)">
        <path d="M-686.887,-64.376L-687.686,-64.376C-697.683,-81.957 -715.694,-95.543 -743.711,-95.543C-792.916,-95.543 -835.68,-51.99 -835.68,21.634C-835.68,82.456 -802.508,130.007 -749.714,130.007C-725.299,130.007 -705.287,119.219 -694.08,101.639L-693.281,101.639L-693.281,118.021C-693.281,160.838 -715.293,179.657 -748.514,179.657C-772.128,179.657 -792.916,172.45 -806.105,165.243L-817.696,210.424C-800.11,220.413 -773.329,225.607 -747.313,225.607C-638.927,225.607 -634.93,144.822 -634.93,101.239L-634.93,-24.383C-634.93,-55.462 -634.13,-75.106 -632.93,-91.143L-684.489,-91.143L-686.887,-64.376ZM-694.08,38.752C-694.08,76.437 -718.095,85.257 -731.703,85.257C-759.72,85.257 -776.13,58.797 -776.13,19.909C-776.13,-21.982 -758.119,-49.193 -731.303,-49.193C-711.291,-49.193 -694.08,-32.786 -694.08,-4.375L-694.08,38.752Z" style="fill-rule:nonzero;"/>
    </g>
    <g transform="matrix(0.837888,0,0,0.837888,1395.55,501.797)">
        <path d="M-520.13,-151.968C-520.13,-170.353 -532.921,-183.543 -552.106,-183.543C-570.491,-183.543 -583.68,-170.353 -583.68,-151.968C-583.68,-133.982 -570.891,-120.393 -552.106,-120.393C-533.72,-120.393 -520.13,-132.783 -520.13,-151.968ZM-581.28,-91.143L-581.28,131.607L-522.13,131.607L-522.13,-91.143L-581.28,-91.143Z" style="fill-rule:nonzero;"/>
    </g>
    <g transform="matrix(0.837888,0,0,0.837888,1395.55,501.797)">
        <path d="M-465.68,130.412C-451.293,132.41 -429.312,134.407 -400.126,134.407C-345.293,134.407 -310.891,124.419 -290.108,105.64C-272.123,89.657 -262.13,66.445 -262.13,42.433C-262.13,3.212 -287.71,-23.974 -322.082,-32.763L-322.082,-34.362C-289.317,-46.747 -272.93,-72.756 -272.93,-100.772C-272.93,-125.987 -284.521,-146.379 -302.905,-158.765C-324.087,-173.548 -350.493,-178.343 -387.718,-178.343C-417.721,-178.343 -448.096,-175.546 -465.68,-171.95L-465.68,130.412ZM-406.93,-132.391C-401.727,-133.592 -393.722,-134.393 -380.913,-134.393C-354.495,-134.393 -331.68,-124.386 -331.68,-93.968C-331.68,-68.753 -351.693,-50.743 -385.316,-50.743L-406.93,-50.743L-406.93,-132.391ZM-384.916,-7.593C-354.498,-7.593 -324.08,5.213 -324.08,40.832C-324.08,75.65 -351.297,90.057 -383.316,90.057C-393.722,90.057 -400.927,89.657 -406.93,88.456L-406.93,-7.593L-384.916,-7.593Z" style="fill-rule:nonzero;"/>
    </g>
    <path d="M1171.82,407.594C1172.14,407.576 1172.45,407.567 1172.77,407.567C1181.93,407.567 1189.37,415.005 1189.37,424.167C1189.37,433.328 1181.93,440.766 1172.77,440.766C1171.08,440.766 1169.45,440.512 1167.91,440.041C1171,432.915 1172.54,425.233 1172.54,417.361C1172.54,414 1172.3,410.74 1171.82,407.594ZM1437.87,435.876C1433.46,442.659 1425.79,447.15 1417.07,447.15C1412.27,447.15 1407.79,445.792 1404,443.441L1404,401.572C1407.79,399.221 1412.27,397.863 1417.07,397.863C1426.25,397.863 1434.27,402.844 1438.55,410.235C1437.56,415.111 1437.05,420.179 1437.05,425.396C1437.05,428.997 1437.33,432.49 1437.87,435.876ZM1344.19,361.942C1341.43,363.039 1338.4,363.643 1335.22,363.643C1322.18,363.643 1311.6,353.459 1311.6,340.915C1311.6,328.371 1322.18,318.187 1335.22,318.187C1348.26,318.187 1358.84,328.371 1358.84,340.915C1358.84,344.111 1358.15,347.154 1356.91,349.914L1344.19,349.914L1344.19,361.942ZM1391.32,349.914C1390.1,346.986 1389.43,343.795 1389.43,340.456C1389.43,326.256 1401.55,314.728 1416.48,314.728C1431.41,314.728 1443.53,326.256 1443.53,340.456C1443.53,354.657 1431.41,366.185 1416.48,366.185C1411.98,366.185 1407.73,365.137 1404,363.283L1404,349.914L1391.32,349.914ZM1344.19,443.33C1342.36,443.905 1340.42,444.213 1338.41,444.213C1327.14,444.213 1317.98,434.487 1317.98,422.507C1317.98,410.526 1327.14,400.8 1338.41,400.8C1340.42,400.8 1342.36,401.109 1344.19,401.683L1344.19,443.33ZM1209.13,404.865C1197.89,402.802 1189.37,393.07 1189.37,381.392C1189.37,369.713 1197.89,359.981 1209.13,357.918L1209.13,404.865ZM1230.45,349.914C1229.42,347.111 1228.86,344.079 1228.86,340.915C1228.86,326.644 1240.3,315.058 1254.39,315.058C1268.49,315.058 1279.93,326.644 1279.93,340.915C1279.93,349.717 1275.58,357.497 1268.93,362.168L1268.93,349.914L1230.45,349.914ZM1296.66,358.28C1310.68,358.28 1322.07,369.323 1322.07,382.924C1322.07,396.525 1310.68,407.567 1296.66,407.567C1282.63,407.567 1271.25,396.525 1271.25,382.924C1271.25,369.323 1282.63,358.28 1296.66,358.28Z" style="fill:rgb(152,206,130);stroke:rgb(152,206,130);stroke-width:1px;"/>
    <g transform="matrix(0.837888,0,0,0.837888,1395.55,501.797)">
        <path d="M-54.88,-175.943L-54.88,9.775C-54.88,64.492 -74.49,87.257 -106.506,87.257C-136.921,87.257 -157.33,63.693 -157.33,9.775L-157.33,-175.943L-216.48,-175.943L-216.48,4.582C-216.48,94.849 -177.313,136.007 -108.106,136.007C-38.494,136.007 4.27,94.05 4.27,4.183L4.27,-175.943L-54.88,-175.943Z" style="fill-rule:nonzero;"/>
    </g>
    <g transform="matrix(0.837888,0,0,0.837888,1395.55,501.797)">
        <path d="M49.92,118.425C64.311,127.216 95.085,135.607 125.479,135.607C197.103,135.607 237.47,96.447 237.47,42.847C237.47,2.438 215.488,-25.968 166.311,-47.973C128.681,-65.177 113.47,-75.18 113.47,-97.185C113.47,-114.389 127.48,-131.193 158.705,-131.193C183.914,-131.193 202.699,-123.591 213.49,-117.989L225.879,-166.357C211.491,-173.549 189.11,-180.343 159.906,-180.343C93.486,-180.343 53.92,-141.582 53.92,-91.183C53.92,-51.174 82.695,-22.367 129.082,-2.363C163.108,12.44 177.92,25.643 177.92,47.649C177.92,70.454 160.706,86.057 127.881,86.057C103.078,86.057 77.5,78.456 61.513,68.853L49.92,118.425Z" style="fill-rule:nonzero;"/>
    </g>
    <g transform="matrix(0.837888,0,0,0.837888,1395.55,501.797)">
        <path d="M49.92,118.425C64.311,127.216 95.085,135.607 125.479,135.607C197.103,135.607 237.47,96.447 237.47,42.847C237.47,2.438 215.488,-25.968 166.311,-47.973C128.681,-65.177 113.47,-75.18 113.47,-97.185C113.47,-114.389 127.48,-131.193 158.705,-131.193C183.914,-131.193 202.699,-123.591 213.49,-117.989L225.879,-166.357C211.491,-173.549 189.11,-180.343 159.906,-180.343C93.486,-180.343 53.92,-141.582 53.92,-91.183C53.92,-51.174 82.695,-22.367 129.082,-2.363C163.108,12.44 177.92,25.643 177.92,47.649C177.92,70.454 160.706,86.057 127.881,86.057C103.078,86.057 77.5,78.456 61.513,68.853L49.92,118.425Z" style="fill-rule:nonzero;"/>
    </g>
    <g transform="matrix(3.06091,0,0,1.08391,-2492.52,-34.197)">
        <rect x="1209.33" y="354.377" width="19.538" height="53.19" style="fill:none;"/>
    </g>
</svg>
