<?xml version="1.0" encoding="UTF-8"?>
<!DOCTYPE svg PUBLIC "-//W3C//DTD SVG 1.1//EN" "http://www.w3.org/Graphics/SVG/1.1/DTD/svg11.dtd">
<svg version="1.2" width="80.03mm" height="28.02mm" viewBox="2999 13199 8003 2802" preserveAspectRatio="xMidYMid" fill-rule="evenodd" stroke-width="28.222" stroke-linejoin="round" xmlns="http://www.w3.org/2000/svg" xmlns:ooo="http://xml.openoffice.org/svg/export" xmlns:xlink="http://www.w3.org/1999/xlink" xmlns:presentation="http://sun.com/xmlns/staroffice/presentation" xmlns:smil="http://www.w3.org/2001/SMIL20/" xmlns:anim="urn:oasis:names:tc:opendocument:xmlns:animation:1.0" xmlns:svg="urn:oasis:names:tc:opendocument:xmlns:svg-compatible:1.0" xml:space="preserve">
 <defs class="EmbeddedBulletChars">
  <g id="bullet-char-template-57356" transform="scale(0.00048828125,-0.00048828125)">
   <path d="M 580,1141 L 1163,571 580,0 -4,571 580,1141 Z"/>
  </g>
  <g id="bullet-char-template-57354" transform="scale(0.00048828125,-0.00048828125)">
   <path d="M 8,1128 L 1137,1128 1137,0 8,0 8,1128 Z"/>
  </g>
  <g id="bullet-char-template-10146" transform="scale(0.00048828125,-0.00048828125)">
   <path d="M 174,0 L 602,739 174,1481 1456,739 174,0 Z M 1358,739 L 309,1346 659,739 1358,739 Z"/>
  </g>
  <g id="bullet-char-template-10132" transform="scale(0.00048828125,-0.00048828125)">
   <path d="M 2015,739 L 1276,0 717,0 1260,543 174,543 174,936 1260,936 717,1481 1274,1481 2015,739 Z"/>
  </g>
  <g id="bullet-char-template-10007" transform="scale(0.00048828125,-0.00048828125)">
   <path d="M 0,-2 C -7,14 -16,27 -25,37 L 356,567 C 262,823 215,952 215,954 215,979 228,992 255,992 264,992 276,990 289,987 310,991 331,999 354,1012 L 381,999 492,748 772,1049 836,1024 860,1049 C 881,1039 901,1025 922,1006 886,937 835,863 770,784 769,783 710,716 594,584 L 774,223 C 774,196 753,168 711,139 L 727,119 C 717,90 699,76 672,76 641,76 570,178 457,381 L 164,-76 C 142,-110 111,-127 72,-127 30,-127 9,-110 8,-76 1,-67 -2,-52 -2,-32 -2,-23 -1,-13 0,-2 Z"/>
  </g>
  <g id="bullet-char-template-10004" transform="scale(0.00048828125,-0.00048828125)">
   <path d="M 285,-33 C 182,-33 111,30 74,156 52,228 41,333 41,471 41,549 55,616 82,672 116,743 169,778 240,778 293,778 328,747 346,684 L 369,508 C 377,444 397,411 428,410 L 1163,1116 C 1174,1127 1196,1133 1229,1133 1271,1133 1292,1118 1292,1087 L 1292,965 C 1292,929 1282,901 1262,881 L 442,47 C 390,-6 338,-33 285,-33 Z"/>
  </g>
  <g id="bullet-char-template-9679" transform="scale(0.00048828125,-0.00048828125)">
   <path d="M 813,0 C 632,0 489,54 383,161 276,268 223,411 223,592 223,773 276,916 383,1023 489,1130 632,1184 813,1184 992,1184 1136,1130 1245,1023 1353,916 1407,772 1407,592 1407,412 1353,268 1245,161 1136,54 992,0 813,0 Z"/>
  </g>
  <g id="bullet-char-template-8226" transform="scale(0.00048828125,-0.00048828125)">
   <path d="M 346,457 C 273,457 209,483 155,535 101,586 74,649 74,723 74,796 101,859 155,911 209,963 273,989 346,989 419,989 480,963 531,910 582,859 608,796 608,723 608,648 583,586 532,535 482,483 420,457 346,457 Z"/>
  </g>
  <g id="bullet-char-template-8211" transform="scale(0.00048828125,-0.00048828125)">
   <path d="M -4,459 L 1135,459 1135,606 -4,606 -4,459 Z"/>
  </g>
  <g id="bullet-char-template-61548" transform="scale(0.00048828125,-0.00048828125)">
   <path d="M 173,740 C 173,903 231,1043 346,1159 462,1274 601,1332 765,1332 928,1332 1067,1274 1183,1159 1299,1043 1357,903 1357,740 1357,577 1299,437 1183,322 1067,206 928,148 765,148 601,148 462,206 346,322 231,437 173,577 173,740 Z"/>
  </g>
 </defs>
 <g class="Page">
  <g class="Group">
   <g class="com.sun.star.drawing.PolyPolygonShape">
    <g id="id3">
     <rect class="BoundingBox" stroke="none" fill="none" x="4147" y="13200" width="1655" height="2801"/>
     <path fill="rgb(1,34,105)" stroke="none" d="M 5401,15000 L 5401,13900 4635,15000 5401,15000 Z M 5401,16000 L 5401,15400 4147,15400 4147,15002 5401,13200 5796,13200 5801,16000 5401,16000 Z"/>
    </g>
   </g>
   <g class="com.sun.star.drawing.ClosedBezierShape">
    <g id="id4">
     <rect class="BoundingBox" stroke="none" fill="none" x="3000" y="13200" width="2157" height="1601"/>
     <path fill="rgb(255,149,14)" stroke="none" d="M 3001,14200 L 3600,14200 3600,13800 3001,13800 C 3001,13800 2998,13850 3001,13600 3004,13350 3213,13200 3401,13200 3589,13200 4570,13200 5155,13200 4784,13733 4042,14800 4042,14800 L 3001,14800 3001,14200 Z"/>
    </g>
   </g>
   <g class="com.sun.star.drawing.ClosedBezierShape">
    <g id="id5">
     <rect class="BoundingBox" stroke="none" fill="none" x="9800" y="13799" width="1202" height="1603"/>
     <path fill="rgb(1,34,105)" stroke="none" d="M 10302,15000 L 11001,15000 11000,15400 10098,15401 C 10046,15401 9995,15387 9949,15361 9904,15335 9866,15297 9840,15252 9814,15206 9800,15155 9800,15103 L 9800,14098 C 9800,14046 9814,13995 9840,13949 9866,13904 9904,13866 9949,13840 9995,13814 10046,13800 10098,13800 L 11000,13800 11001,14200 10302,14199 C 10284,14199 10267,14204 10251,14213 10235,14222 10223,14234 10214,14250 10205,14266 10200,14283 10200,14301 L 10200,14898 C 10200,14916 10205,14933 10214,14949 10223,14965 10235,14977 10251,14986 10267,14995 10284,15000 10302,15000 Z"/>
    </g>
   </g>
   <g class="com.sun.star.drawing.CustomShape">
    <g id="id6">
     <rect class="BoundingBox" stroke="none" fill="none" x="3001" y="15000" width="947" height="401"/>
     <path fill="rgb(255,149,14)" stroke="none" d="M 3474,15400 L 3001,15400 3001,15000 3947,15000 3947,15400 3474,15400 Z"/>
    </g>
   </g>
   <g class="com.sun.star.drawing.CustomShape">
    <g id="id7">
     <rect class="BoundingBox" stroke="none" fill="none" x="6000" y="13200" width="800" height="401"/>
     <path fill="rgb(255,149,14)" stroke="none" d="M 6400,13600 L 6000,13600 6000,13200 6799,13200 6799,13600 6400,13600 Z"/>
    </g>
   </g>
   <g class="com.sun.star.drawing.CustomShape">
    <g id="id8">
     <rect class="BoundingBox" stroke="none" fill="none" x="7600" y="13200" width="401" height="401"/>
     <path fill="rgb(1,34,105)" stroke="none" d="M 7800,13600 L 7600,13600 7600,13200 8000,13200 8000,13600 7800,13600 Z"/>
    </g>
   </g>
   <g class="com.sun.star.drawing.ClosedBezierShape">
    <g id="id9">
     <rect class="BoundingBox" stroke="none" fill="none" x="7600" y="13799" width="401" height="1603"/>
     <path fill="rgb(1,34,105)" stroke="none" d="M 7700,13827 C 7731,13809 7765,13800 7800,13800 L 8000,13800 8000,15400 C 8000,15400 7807,15401 7801,15401 7765,15401 7731,15392 7700,15374 7670,15357 7644,15331 7627,15301 7609,15270 7600,15236 7600,15201 L 7600,14001 C 7600,13965 7609,13931 7627,13900 7644,13870 7670,13844 7700,13827 Z"/>
    </g>
   </g>
   <g class="com.sun.star.drawing.ClosedBezierShape">
    <g id="id10">
     <rect class="BoundingBox" stroke="none" fill="none" x="8199" y="13799" width="1402" height="1603"/>
     <path fill="rgb(1,34,105)" stroke="none" d="M 9600,15400 C 9600,15400 9509,15401 9501,15401 9448,15401 9396,15387 9350,15361 9305,15334 9267,15296 9240,15251 9214,15205 9200,15153 9200,15101 9200,15100 9200,15400 9200,15400 L 8504,15400 C 8451,15400 8398,15386 8352,15359 8306,15333 8267,15294 8241,15248 8214,15202 8200,15149 8200,15096 L 8200,14103 C 8200,14050 8214,13997 8241,13951 8267,13905 8306,13866 8352,13840 8398,13813 8451,13799 8504,13799 L 9600,13800 9600,15400 Z M 8703,15000 L 9199,15000 9199,14200 8703,14199 C 8685,14199 8667,14204 8652,14213 8636,14222 8623,14235 8614,14251 8605,14266 8600,14284 8600,14302 L 8600,14897 C 8600,14915 8605,14933 8614,14949 8623,14964 8636,14977 8652,14986 8667,14995 8685,15000 8703,15000 Z"/>
    </g>
   </g>
   <g class="com.sun.star.drawing.ClosedBezierShape">
    <g id="id11">
     <rect class="BoundingBox" stroke="none" fill="none" x="2999" y="15600" width="2202" height="401"/>
     <path fill="rgb(255,149,14)" stroke="none" d="M 3199,16000 C 3199,16000 3130,15991 3100,15973 3070,15956 3044,15930 3027,15900 3009,15870 3000,15835 3000,15800 3000,15793 3001,15600 3001,15600 L 5200,15600 5200,16000 3199,16000 Z"/>
    </g>
   </g>
   <g class="com.sun.star.drawing.ClosedBezierShape">
    <g id="id12">
     <rect class="BoundingBox" stroke="none" fill="none" x="6000" y="15600" width="5001" height="401"/>
     <path fill="rgb(255,149,14)" stroke="none" d="M 6000,16000 L 6000,15600 11000,15600 11000,15800 C 11000,15835 10991,15870 10973,15900 10956,15930 10930,15956 10900,15973 10870,15991 10835,16000 10800,16000 L 6000,16000 Z"/>
    </g>
   </g>
   <g class="com.sun.star.drawing.ClosedBezierShape">
    <g id="id13">
     <rect class="BoundingBox" stroke="none" fill="none" x="8200" y="13199" width="2801" height="402"/>
     <path fill="rgb(255,149,14)" stroke="none" d="M 8200,13600 L 8200,13200 C 8200,13200 10793,13199 10800,13199 10835,13199 10870,13208 10900,13226 10930,13243 10956,13269 10973,13299 10991,13329 11000,13364 11000,13399 L 11000,13600 8200,13600 Z"/>
    </g>
   </g>
   <g class="com.sun.star.drawing.ClosedBezierShape">
    <g id="id14">
     <rect class="BoundingBox" stroke="none" fill="none" x="6000" y="13199" width="1401" height="2203"/>
     <path fill="rgb(1,34,105)" stroke="none" d="M 7400,15400 C 7400,15400 7309,15401 7301,15401 7248,15401 7196,15387 7150,15361 7105,15334 7067,15296 7040,15251 7014,15205 7000,15153 7000,15101 7000,15100 7000,15400 7000,15400 L 6300,15400 C 6247,15400 6196,15386 6150,15360 6104,15333 6067,15296 6040,15250 6014,15204 6000,15153 6000,15100 L 6000,14099 C 6000,14046 6014,13995 6040,13949 6067,13903 6104,13866 6150,13839 6196,13813 6247,13799 6300,13799 L 7000,13800 7000,13200 7400,13200 7400,15400 Z M 6500,15000 L 6999,15000 6999,14200 6500,14199 C 6482,14199 6465,14204 6450,14213 6434,14221 6421,14234 6413,14250 6404,14265 6399,14282 6399,14300 L 6399,14899 C 6399,14917 6404,14934 6413,14950 6421,14965 6434,14978 6450,14986 6465,14995 6482,15000 6500,15000 Z"/>
    </g>
   </g>
  </g>
 </g>
</svg>