<?xml version="1.0" encoding="UTF-8" standalone="no"?>
<!-- Created with Inkscape (http://www.inkscape.org/) -->

<svg
   xmlns:dc="http://purl.org/dc/elements/1.1/"
   xmlns:cc="http://creativecommons.org/ns#"
   xmlns:rdf="http://www.w3.org/1999/02/22-rdf-syntax-ns#"
   xmlns:svg="http://www.w3.org/2000/svg"
   xmlns="http://www.w3.org/2000/svg"
   xmlns:sodipodi="http://sodipodi.sourceforge.net/DTD/sodipodi-0.dtd"
   xmlns:inkscape="http://www.inkscape.org/namespaces/inkscape"
   width="27.948822mm"
   height="27.94874mm"
   viewBox="0 0 99.031259 99.030968"
   id="svg4192"
   version="1.1"
   inkscape:version="0.91 r13725"
   sodipodi:docname="icon.svg">
  <defs
     id="defs4194" />
  <sodipodi:namedview
     id="base"
     pagecolor="#ffffff"
     bordercolor="#666666"
     borderopacity="1.0"
     inkscape:pageopacity="0.0"
     inkscape:pageshadow="2"
     inkscape:zoom="3.959798"
     inkscape:cx="103.86986"
     inkscape:cy="14.270917"
     inkscape:document-units="px"
     inkscape:current-layer="layer1"
     showgrid="false"
     fit-margin-top="0"
     fit-margin-left="0"
     fit-margin-right="0"
     fit-margin-bottom="0"
     inkscape:window-width="1920"
     inkscape:window-height="1016"
     inkscape:window-x="0"
     inkscape:window-y="27"
     inkscape:window-maximized="1" />
  <metadata
     id="metadata4197">
    <rdf:RDF>
      <cc:Work
         rdf:about="">
        <dc:format>image/svg+xml</dc:format>
        <dc:type
           rdf:resource="http://purl.org/dc/dcmitype/StillImage" />
        <dc:title></dc:title>
      </cc:Work>
    </rdf:RDF>
  </metadata>
  <g
     inkscape:label="Layer 1"
     inkscape:groupmode="layer"
     id="layer1"
     transform="translate(-10.484371,-11.41815)">
    <path
       d="m 84.959221,38.82877 3.48974,-3.8225 0,47.13599 -3.5,0 z"
       style="fill:#012269;fill-opacity:1;fill-rule:evenodd;stroke:none"
       id="path3015-8"
       inkscape:connector-curvature="0"
       sodipodi:nodetypes="ccccc" />
    <path
       sodipodi:nodetypes="ccccccccc"
       inkscape:connector-curvature="0"
       id="path3405"
       style="fill:#012269;fill-opacity:1;fill-rule:evenodd;stroke:none"
       d="m 10.506421,11.41815 71.00369,0.0125 -25.57343,42.5365 -45.43459,0.0125 0.006,-7.62638 14.00262,0 -0.002,-13.96137 -14.00043,0 z" />
    <path
       sodipodi:nodetypes="ccccc"
       d="m 47.430071,68.05073 -4.2746,7.10797 -32.6552,2.7e-4 -0.0159,-7.11232 z"
       style="fill:#012269;fill-opacity:1;fill-rule:evenodd;stroke:none"
       id="path3005-3"
       inkscape:connector-curvature="0" />
    <path
       d="m 84.948961,110.44878 0,-10.59935 -42.5,0 0,-17.70717 42.5,-70.70399 3.5,0 -30.05204,71.10816 32.08497,3.9874 -2.03293,23.91495 z"
       style="fill:#012269;fill-opacity:1;fill-rule:evenodd;stroke:none"
       id="path3009-8"
       inkscape:connector-curvature="0"
       sodipodi:nodetypes="cccccccccc" />
    <path
       style="fill:#ff950e;fill-opacity:1;fill-rule:evenodd;stroke:none"
       d="m 88.449221,11.43865 -42.5,70.70395 0,14.21561 42.5,0 0,14.09091 14.249989,0 0,-14.09091 6.81642,0.004 -0.004,-14.2234 -6.8125,0.004 0,-70.70391 -14.250009,0 z m 0,23.568 0,47.13595 -28.25,0 28.25,-47.13595 z"
       id="path3011-3"
       inkscape:connector-curvature="0" />
    <path
       inkscape:connector-curvature="0"
       id="path3411"
       style="fill:#012269;fill-opacity:1;fill-rule:evenodd;stroke:none"
       d="m 53.801901,57.45843 -4.26895,7.10167 -39.02318,-7.8e-4 -0.007,-7.10626 c 0,0 16.52922,10e-4 43.31058,10e-4 z"
       sodipodi:nodetypes="cccccc" />
    <path
       inkscape:connector-curvature="0"
       id="path3413"
       style="fill:#012269;fill-opacity:1;fill-rule:evenodd;stroke:none"
       d="m 38.945101,82.14416 0.004,21.19777 42.55272,-0.005 0.0024,7.11446 -71.012437,0.008 -0.0084,-31.821902 30.567215,0.01389 z"
       sodipodi:nodetypes="cccccccc" />
  </g>
</svg>
